<?xml version="1.0" encoding="utf-8"?>
<!-- Generator: Adobe Illustrator 19.0.0, SVG Export Plug-In . SVG Version: 6.00 Build 0)  -->
<svg version="1.1" id="Layer_1" xmlns="http://www.w3.org/2000/svg" xmlns:xlink="http://www.w3.org/1999/xlink" x="0px" y="0px"
	 viewBox="0 0 12 12" style="enable-background:new 0 0 12 12;" xml:space="preserve">
<style type="text/css">
	.st0{fill:#010101;}
</style>
<path id="XMLID_2_" class="st0" d="M5.7,11.5c-0.1,0.1-0.1,0.2-0.3,0.3C5.3,11.9,5.1,12,4.9,12H3.1c-0.3,0-0.5-0.1-0.6-0.3
	c-0.1-0.2-0.1-0.5,0.1-0.8l2.7-4.6C5.4,6.2,5.4,6.1,5.4,6c0-0.1,0-0.2-0.1-0.4L2.6,1C2.4,0.7,2.4,0.4,2.5,0.2C2.6,0.1,2.8,0,3.1,0
	h1.8c0.2,0,0.4,0,0.5,0.1c0.1,0.1,0.2,0.2,0.3,0.3l3,5.1c0.1,0.2,0.2,0.3,0.2,0.5c0,0.1-0.1,0.3-0.2,0.5L5.7,11.5z"/>
</svg>
