<?xml version="1.0" encoding="utf-8"?>
<!-- Generator: Adobe Illustrator 19.0.0, SVG Export Plug-In . SVG Version: 6.00 Build 0)  -->
<svg version="1.1" id="Layer_1" xmlns="http://www.w3.org/2000/svg" xmlns:xlink="http://www.w3.org/1999/xlink" x="0px" y="0px"
	 viewBox="0 -1 12 14" style="enable-background:new 0 -1 12 14;" xml:space="preserve">
<style type="text/css">
	.st0{fill:none;}
</style>
<title>ic_pause_black_48dp</title>
<g>
	<path d="M1.3,13h1.5C3.4,13,4,12.4,4,11.7V0.3C4-0.4,3.4-1,2.7-1H1.3C0.6-1,0-0.4,0,0.3v11.5C0,12.4,0.6,13,1.3,13z M8,0.3v11.5
		C8,12.4,8.6,13,9.3,13h1.5c0.7,0,1.3-0.6,1.3-1.3V0.3C12-0.4,11.4-1,10.7-1H9.3C8.6-1,8-0.4,8,0.3z"/>
	<path class="st0" d="M-6-6h24v24H-6V-6z"/>
</g>
</svg>
