<?xml version="1.0" encoding="utf-8"?>
<!-- Generator: Adobe Illustrator 19.0.0, SVG Export Plug-In . SVG Version: 6.00 Build 0)  -->
<svg version="1.1" id="Layer_1" xmlns="http://www.w3.org/2000/svg" xmlns:xlink="http://www.w3.org/1999/xlink" x="0px" y="0px"
	 viewBox="0 0 12 12" style="enable-background:new 0 0 12 12;" xml:space="preserve">
<style type="text/css">
	.st0{fill:#010101;}
</style>
<path id="XMLID_2_" class="st0" d="M5.6,0.5c0.1-0.1,0.1-0.2,0.3-0.3C6,0.1,6.2,0,6.4,0h1.8c0.3,0,0.5,0.1,0.6,0.3s0.1,0.5-0.1,0.8
	L6,5.7C5.9,5.8,5.9,5.9,5.9,6s0,0.2,0.1,0.4L8.7,11c0.2,0.3,0.2,0.6,0.1,0.8C8.7,11.9,8.5,12,8.2,12H6.4c-0.2,0-0.4,0-0.5-0.1
	c-0.1-0.1-0.2-0.2-0.3-0.3l-3-5.1C2.5,6.3,2.4,6.2,2.4,6c0-0.1,0.1-0.3,0.2-0.5L5.6,0.5z"/>
</svg>
