<svg xmlns="http://www.w3.org/2000/svg">
<defs>
<font id="d056d92e6dd8ae2771bbfd9affde0eac" horiz-adv-x='1024' >
  <font-face 
    font-family="GTSectraFine-Book"
    font-weight="300"
    font-stretch="normal"
    units-per-em="1000"
    panose-1="2 0 5 3 7 0 0 2 0 3"
    ascent="750"
    descent="-250"
    x-height="466"
    cap-height="701"
    bbox="-160 -248 2028 965"
    underline-thickness="50"
    underline-position="-50"
    unicode-range="U+000D-FB04"
  />
<missing-glyph horiz-adv-x="625" 
d="M605 460l-3 -41l-8 -35l-12 -31l-3 -156l-21 -7l-50 70l-27 -7l-19 -140l-32 4l-7 -4l-4 -94l30 -19l16 -14l-3 -15l-30 1l-24 18h-14l-8 8l7 76l-4 47l-61 1l-3 -52l-2 -56v-20l-15 -6l-8 6l-30 -10h-32l-1 11l11 11l50 21l-6 96l-98 -6l-147 140l-4 115l-13 10l-10 36
v26l15 8l-3 78l92 -62l9 47l10 36l22 35l28 35l39 29l40 15l38 14h22l-68 22l4 17h7l79 -20l-4 51l16 12h32l19 -5l29 -25l32 -8l32 -10l15 -13v-20l-20 -31l30 -28l28 -32l18 -34l15 -41zM495 399l-4 7h-205l-66 -3l-7 -9l-6 -44l-48 20l-11 -4l57 -27l1 -45l-5 -73v-91
l18 4l2 40l41 -3l3 9l-44 6v16l48 -6l1 9l-47 7l1 22l43 -3l3 6l-45 9l3 94h74l11 10h-79l2 9h74l8 7h-82l2 22l117 4l140 -4v11zM176 569l29 12l13 -15l-17 -20l-10 -3l17 -3h5l36 24h32l18 -12l8 3l4 14l7 5l10 -4v-18h8l10 22l11 8l-5 6l-3 8l1 21l-30 -10l-10 -8l-8 5
l4 21l14 10l11 11l38 -2l12 13l-4 8h-49l-45 -13l-53 -26l-29 -23zM586 465l-8 37l-19 50l-20 36l-23 28l-34 21h-11l17 -19l25 -10l11 -11l3 -33l-25 13l-15 -29l12 -8v-19l15 3l-12 26l15 -5l10 -20l-5 -12l-8 -7h-23l-3 11l-12 2l1 -22h-14l14 -18l-7 -10l-21 5l-3 -27
l41 6l8 17l22 -2l6 -28l-16 -13v-15l8 -6l18 12h23l6 11l-18 6l-5 9l9 42h7l14 -20zM72 434l57 -32l7 10l-68 38v18l59 -34l43 -28l28 -14l3 10l-103 64l-13 7l-41 33l2 -78l19 -17v-5h-21l19 -14l1 -11l-20 7l18 -18l-4 -7l3 -97l11 -12v180zM481 331l-54 1l-1 -24v-6
l-2 -31l19 -3l-8 -61l-48 3l-8 -6l51 -5l-2 -9h-49l-4 -5l53 -7l-6 -35l27 -1l12 79l4 36l-15 3l-1 8l20 1l5 3l-28 16l2 5l30 -6l-30 15l5 5l21 -5l4 10zM176 331l-66 39v-7l-2 -13l1 -27v-48l64 -44l-1 60zM350 214l-64 4v-51l64 -6v53zM502 306l8 -6l8 2l20 15l13 13

<glyph glyph-name="ff" unicode="ff" horiz-adv-x="617" 
d="M34 19l70 7v409h-78v12l14 16h64v1q0 50 13 81.5t38 58.5l82 92h153l-61 -71h-117l-11 -18q-4 -8 -7 -17.5t-5.5 -22t-3.5 -31t-1 -44.5v-31h212v13q0 24 2 43t7.5 35.5t14 31t21.5 28.5l87 98h114v-71h-139l-12 -18q-4 -9 -7 -18.5t-5 -23t-3 -32t-1 -45.5v-41h124v-26
h-124v-409l115 -6l-3 -21l-144 2l-103 -2l-2 20l58 7v409h-212v-409l98 -6l-3 -21l-127 2l-116 -2z" />
    <glyph glyph-name="fi" unicode="fi" horiz-adv-x="563" 
d="M470 472v-446l73 -7l-3 -20l-109 2l-96 -2l-3 21l58 6v381l3 31l-34 -3h-175v-409l93 -6l-3 -21l-122 2l-116 -2l-2 20l70 7v409h-78v12l14 16h64v11q0 24 2.5 43t8 35.5t14 31t21.5 28.5l87 98h237v-91h-15l-71 20h-175l-12 -18q-5 -9 -8 -18.5t-5 -23t-3 -32t-1 -45.5
v-41h194l65 9z" />
    <glyph glyph-name="fl" unicode="fl" horiz-adv-x="569" 
d="M34 19l70 7v409h-78v12l14 16h64v11q0 24 2.5 43t8 35.5t14 31t21.5 28.5l87 98h141l67 2h30v-686l73 -7l-2 -20l-108 2l-104 -2l-2 20l64 7v409h-212v-409l98 -6l-3 -21l-127 2l-115 -2zM396 461v188l-52 -10h-131l-12 -18q-5 -9 -8 -18.5t-5 -23t-3 -32t-1 -45.5v-41
h212z" />
    <glyph glyph-name="ffi" unicode="ffi" horiz-adv-x="854" 
d="M325 19l71 7v409h-212v-409l98 -6l-3 -21l-128 2l-115 -2l-2 20l70 7v409h-78v12l14 16h64v1q0 50 13 81.5t38 58.5l82 92h153l-61 -71h-117l-11 -18q-4 -8 -7 -17.5t-5.5 -22t-3.5 -31t-1 -44.5v-31h212v13q0 24 2 43t7.5 35.5t14 31t21.5 28.5l87 98h237v-91h-15
l-71 20h-175l-13 -18q-4 -9 -7 -18.5t-5 -23t-3 -32t-1 -45.5v-41h193l66 9l27 2v-446l73 -7l-3 -20l-107 2l-99 -2l-2 21l58 6v368l2 44l-40 -3h-168v-409l93 -6l-3 -21l-122 2l-116 -2z" />
    <glyph glyph-name="ffl" unicode="ffl" horiz-adv-x="860" 
d="M34 19l70 7v409h-78v12l14 16h64v1q0 50 13 81.5t38 58.5l82 92h153l-60 -71h-118l-11 -18q-4 -8 -7 -17.5t-5.5 -22t-3.5 -31t-1 -44.5v-31h212v13q0 24 2 43t7.5 35.5t14 31t21.5 28.5l87 98h127l79 2h32v-686l73 -7l-3 -20l-107 2l-104 -2l-3 20l64 7v409h-211v-409
l98 -6l-3 -21l-126 2l-104 -2l-2 20l58 7v409h-212v-409l98 -6l-3 -21l-128 2l-115 -2zM686 461v188l-58 -10h-124l-13 -18q-4 -9 -7 -18.5t-5 -23t-3 -32t-1 -45.5v-41h211z" />
    <glyph glyph-name="Th" unicode="Th" horiz-adv-x="1042" 
d="M907 1l-88 -2l-3 20l51 8v306q0 47 -17 65.5t-49 18.5q-26 0 -52 -13t-58 -33l-36 -21v-323l55 -8l-3 -20l-91 2l-102 -2l-3 20l64 8v646l-16 -2l-220 1v-643l104 -10l-3 -20l-146 2l-150 -2l-2 20l107 10v643l-157 -1l-56 -152h-21v182l279 -1l258 1l86 14l17 -1v-337
l163 104q73 0 101 -34q15 -18 21.5 -47t6.5 -71v-302l78 -8l-2 -20z" />
    <glyph glyph-name="fb" unicode="fb" horiz-adv-x="841" 
d="M558 -15q-33 0 -57.5 3.5t-43.5 9.5t-34 13.5t-30 15.5v622l-28 -10h-153l-12 -20q-4 -8 -7 -18t-5 -23.5t-3 -32.5t-1 -46v-38h123v-26h-123v-408l114 -6l-2 -22l-146 2l-114 -2l-2 20l70 8v408h-78v12l14 16h64v11q0 24 2.5 43t8 35.5t14 31t21.5 28.5l87 98h123l99 2
h14v-327l138 96q39 0 73.5 -15t60.5 -43.5t41 -69.5t15 -93q0 -68 -18.5 -116t-51 -80.5t-77 -51t-96.5 -27.5zM577 17q30 0 55 15t43.5 42.5t29 67t10.5 88.5q0 41 -7.5 75.5t-22.5 59t-36.5 38.5t-49.5 14q-23 0 -46 -10t-50 -30l-30 -21v-294q34 -45 104 -45z" />
    <glyph glyph-name="ffb" unicode="ffb" horiz-adv-x="1132" 
d="M396 474q0 24 2 43t7.5 35.5t14 31t21.5 28.5l87 98h123l99 2h14v-327l138 96q39 0 73 -15t60 -43.5t41 -69.5t15 -93q0 -68 -18.5 -116t-51 -80.5t-77 -51t-96.5 -27.5q-33 0 -57 3.5t-42.5 9.5t-34 13.5t-30.5 15.5v622l-28 -10h-153l-12 -20q-5 -8 -8 -18t-4.5 -23.5
t-2.5 -32.5t-1 -46v-38h122v-26h-122v-408l115 -6l-3 -22l-147 2l-101 -2l-2 20l59 7v409h-212v-409l98 -6l-3 -21l-129 2l-114 -2l-2 20l70 7v409h-78v12l14 16h64v1q0 50 13 81.5t38 58.5l82 92h153l-61 -71h-117l-11 -18q-4 -8 -7 -17.5t-5.5 -22t-3.5 -31t-1 -44.5v-31
h212v13zM764 62q33 -45 104 -45q30 0 55 15t43.5 42.5t29 67t10.5 88.5q0 41 -7.5 75.5t-22.5 59t-36.5 38.5t-49.5 14q-23 0 -46 -10t-51 -30l-29 -21v-294z" />
    <glyph glyph-name="ffh" unicode="ffh" horiz-adv-x="1153" 
d="M396 474q0 24 2 43t7.5 35.5t14 31t21.5 28.5l87 98h127l97 2h14v-335l163 104q72 0 100 -34q16 -18 22.5 -47t6.5 -72v-301l78 -8l-2 -20l-114 2l-90 -2l-3 20l51 8v306q0 47 -17 65.5t-49 18.5q-26 0 -52 -13t-58 -33l-36 -21v-323l55 -8l-2 -20l-92 2l-102 -2l-3 20
l64 8v622l-28 -10h-155l-12 -20q-5 -8 -8 -18t-4.5 -23.5t-2.5 -32.5t-1 -46v-38h122v-26h-122v-408l99 -6l-3 -22l-130 2l-102 -2l-2 20l59 7v409h-212v-409l98 -6l-3 -21l-130 2l-113 -2l-2 20l70 7v409h-78v12l14 16h64v1q0 50 13 81.5t38 58.5l82 92h153l-61 -71h-117
l-11 -18q-4 -8 -7 -17.5t-5.5 -22t-3.5 -31t-1 -44.5v-31h212v13v0z" />
    <glyph glyph-name="ffj" unicode="ffj" horiz-adv-x="801" 
d="M555 -236v78h102l7 18q5 13 9.5 37t4.5 67v455l3 19l-17 -3h-189v-409l99 -6l-2 -21l-134 2l-99 -2l-3 20l59 7v409h-211v-409l98 -6l-3 -21l-129 2l-114 -2l-2 20l70 7v409h-78v12l14 16h64v1q0 50 13 81.5t38 58.5l82 92h153l-61 -71h-117l-11 -18q-4 -8 -7 -17.5
t-5.5 -22t-3.5 -31t-1 -44.5v-31h211v13q0 24 2.5 43t8 35.5t14 31t21.5 28.5l87 98h235v-91h-16l-70 20h-173l-13 -18q-4 -9 -7 -18.5t-5 -23t-3 -32t-1 -45.5v-41h191l65 9l27 2v-491q0 -35 -8.5 -59t-31.5 -52l-89 -106h-74z" />
    <glyph glyph-name="ffk" unicode="ffk" horiz-adv-x="1110" 
d="M34 19l70 7v409h-78v12l14 16h64v1q0 50 13 81.5t38 58.5l82 92h153l-61 -71h-117l-11 -18q-4 -8 -7 -17.5t-5.5 -22t-3.5 -31t-1 -44.5v-31h211v13q0 24 2.5 43t8 35.5t14 31t21.5 28.5l87 98h126l112 2v-446l13 5l196 168l-46 8v19l82 -1l70 1l2 -19l-59 -8l-211 -173
h41l205 -240l46 -7l-2 -20l-79 2l-57 -2l-197 243l-4 10v-225l63 -8l-3 -20l-97 2l-111 -2l-2 20l70 8v622l-29 -10h-154l-13 -20q-4 -8 -7 -18t-4.5 -23.5t-2.5 -32.5t-1 -46v-38h122v-26h-122v-408l98 -6l-3 -22l-129 2l-113 -2l-3 20l70 8v408h-211v-409l98 -6l-3 -21
l-129 2l-114 -2z" />
    <glyph glyph-name="fh" unicode="fh" horiz-adv-x="862" 
d="M150 1l-114 -2l-2 20l70 8v408h-78v12l14 16h64v11q0 24 2.5 43t8 35.5t14 31t21.5 28.5l87 98h127l97 2h14v-335l164 104q70 0 100 -34q15 -17 21.5 -45.5t6.5 -70.5v-304l79 -8l-3 -20l-114 2l-90 -2l-3 20l51 8v306q0 47 -17 65.5t-49 18.5q-26 0 -52 -13t-58 -33
l-36 -21v-323l55 -8l-2 -20l-90 2l-104 -2l-2 20l64 8v622l-29 -10h-155l-12 -20q-4 -8 -7 -18t-5 -23.5t-3 -32.5t-1 -46v-38h123v-26h-123v-408l98 -6l-2 -22z" />
    <glyph glyph-name="fj" unicode="fj" horiz-adv-x="532" 
d="M373 -140q5 13 10 37t5 67v455l2 19l-17 -3h-189v-408l99 -6l-2 -22l-134 2l-111 -2l-2 20l70 8v408h-78v12l14 16h64v11q0 24 2.5 43t8 35.5t14 31t21.5 28.5l87 98h235v-91h-16l-70 20h-173l-12 -18q-5 -9 -8 -18.5t-5 -23t-3 -32t-1 -45.5v-41h191l66 9l26 2v-491
q0 -35 -8.5 -59t-31.5 -52l-88 -106h-74v78h101l7 18v0z" />
    <glyph glyph-name="fk" unicode="fk" horiz-adv-x="820" 
d="M734 1l-58 -2l-196 243l-5 10v-225l63 -8l-2 -20l-98 2l-110 -2l-2 20l70 8v622l-29 -10h-155l-12 -20q-4 -8 -7 -18t-5 -23.5t-3 -32.5t-1 -46v-38h123v-26h-123v-408l98 -6l-3 -22l-129 2l-114 -2l-2 20l70 8v408h-78v12l14 16h64v11q0 24 2.5 43t8 35.5t14 31
t21.5 28.5l87 98h127l111 3v-447l13 5l197 168l-46 8v19l80 -1l72 1l2 -19l-59 -8l-212 -173h42l205 -240l46 -7l-2 -20z" />
    <glyph glyph-name="ft" unicode="ft" horiz-adv-x="644" 
d="M502 -15q-39 0 -61 8.5t-33 25t-13.5 39.5t-2.5 52v325h-208v-408l108 -6l-3 -22l-136 2l-117 -2l-2 20l70 8v408h-78v12l14 16h64v13q0 24 2.5 43t8 35t14.5 30t21 28l87 98h167l-68 -71h-124l-12 -20q-4 -8 -7 -18t-5 -23.5t-3 -32.5t-1 -46v-38h210v74l68 54h9v-130
h151v-25h-150v-323q0 -28 12.5 -46t44.5 -18q25 0 46.5 8t43.5 19l10 -18l-127 -71v0z" />
    <glyph glyph-name="fu" unicode="fu" horiz-adv-x="846" 
d="M674 84l-159 -99q-38 0 -63.5 7.5t-40.5 24.5q-16 17 -22 44.5t-6 67.5v288l1 20l-16 -2h-184v-408l114 -6l-2 -22l-144 2l-116 -2l-2 20l70 8v408h-78v12l14 16h64v11q0 24 2.5 43t8 35.5t14 31t21.5 28.5l87 98h114v-71h-139l-12 -20q-4 -8 -7 -18t-5 -23.5t-3 -32.5
t-1 -46v-38h186l68 7l25 2v-339q0 -45 17.5 -64.5t50.5 -19.5q26 0 51.5 13t54.5 33l35 21v314l-66 -7l-3 22l124 25l25 2v-342q0 -32 3.5 -52t9.5 -39l54 3l2 -19l-125 -25z" />
    <glyph glyph-name="fy" unicode="fy" horiz-adv-x="805" 
d="M360 -235v86h89l102 174l-48 -21l-168 437h-151v-414l114 -6l-2 -22l-142 2l-118 -2l-2 20l70 8v409h-78v12l14 17h64v10q0 24 2.5 43t8 35t14.5 30.5t21 28.5l87 98h114v-71h-139l-12 -20q-4 -8 -7 -18t-5 -23.5t-3 -32.5t-1 -45v-34h302l3 -19l-64 -8l131 -351l3 -32
l135 383l-58 8l3 19l82 -1l76 1l3 -19l-64 -8l-155 -414l-117 -260h-104z" />
    <glyph glyph-name="gg" unicode="gg" horiz-adv-x="954" 
d="M691 480q51 0 91.5 -19.5t61.5 -53.5l56 73h49v-83h-73l-21 -12q10 -21 10 -47q0 -62 -43.5 -106.5t-142.5 -70.5q-14 0 -26 1.5t-23 3.5l-52 -56q0 -26 14.5 -38t37.5 -12h181q58 0 86 -28t28 -70q0 -31 -17 -61t-47.5 -56.5t-73 -49t-93.5 -38.5q-103 0 -150.5 32
t-47.5 101v18l103 86q-32 8 -50 19t-27 23.5t-11 27t-2 30.5v7l98 72q-47 15 -75 49t-28 81q0 63 44 107t143 70zM233 480q51 0 92 -19.5t62 -53.5l53 73h36l4 -83h-64l-18 -12q5 -11 7.5 -22.5t2.5 -24.5q0 -62 -44 -107t-143 -70q-28 0 -49 6l-53 -57q0 -26 15 -38t38 -12
h162q57 0 85 -28t28 -70q0 -31 -17.5 -61t-48.5 -56.5t-74 -49t-94 -38.5q-100 0 -146.5 32t-46.5 101v18l111 86q-27 8 -43 19t-24.5 23.5t-11 27t-2.5 30.5v7l99 72q-46 16 -74 50t-28 80q0 63 43.5 107t142.5 70zM619 -10q-17 -18 -26.5 -32.5t-14 -26t-5.5 -20.5t-1 -17
q0 -42 34.5 -68t94.5 -26q30 0 57.5 10.5t48.5 28t33.5 41t12.5 49.5q0 29 -21.5 45t-72.5 16h-140zM152 -10q-19 -18 -30 -32.5t-16.5 -26t-7 -20.5t-1.5 -17q0 -42 32.5 -68t89.5 -26q31 0 59 10.5t49.5 28t34 41t12.5 49.5q0 29 -21 45t-71 16h-130zM325 305
q0 21 -4.5 46t-16.5 47t-33 36.5t-53 14.5q-42 0 -65 -31.5t-23 -86.5q0 -20 4.5 -44t16.5 -45t32.5 -35t52.5 -14q42 0 65.5 29.5t23.5 82.5zM782 305q0 21 -4.5 46t-16.5 47t-32.5 36.5t-52.5 14.5q-42 0 -65.5 -31.5t-23.5 -86.5q0 -20 4.5 -44t16.5 -45t33 -35t53 -14
q42 0 65 29.5t23 82.5z" />
    <glyph glyph-name="ky" unicode="ky" horiz-adv-x="970" 
d="M526 -235v86h88l102 174l-48 -21l-166 435l-60 -2l-212 -171h42l205 -239l46 -8l-2 -20l-76 1l-60 -1l-197 243l-5 11v-226l63 -8l-3 -20l-97 2l-110 -2l-3 20l70 8v641l-69 -8l-4 20l126 32l27 2v-449l13 6l197 167l-46 9v19h305l2 -19l-64 -8l131 -351l4 -32l135 383
l-58 8l2 19l84 -1l74 1l3 -19l-64 -8l-157 -414l-115 -260h-103z" />
    <glyph glyph-name="tt" unicode="tt" horiz-adv-x="644" 
d="M503 -15q-39 0 -61 8.5t-33 25t-13.5 39.5t-2.5 52v324h-220v-325q0 -27 12 -44.5t41 -17.5q24 0 45 8t43 19l10 -18l-120 -71q-39 0 -61.5 8.5t-33.5 25t-13.5 39.5t-2.5 52v324h-88v13l17 17h73v71l68 54h9v-130h222v76l68 54h10v-130h163v-25h-162v-323
q0 -28 12.5 -46t44.5 -18q24 0 46 8t44 19l10 -18l-127 -71v0z" />
    <glyph glyph-name="ty" unicode="ty" horiz-adv-x="780" 
d="M335 -235v86h89l101 174l-47 -21l-168 437h-137v-330q0 -28 13 -46t44 -18q24 0 45 7t43 19l9 -19l-123 -69q-39 0 -61.5 8.5t-33.5 25t-13.5 39.5t-2.5 52v324h-88v12l17 17h73v72l68 54h9v-123h289l3 -19l-64 -8l131 -351l3 -32l135 383l-58 8l3 19l82 -1l76 1l3 -19
l-64 -8l-157 -414l-115 -260h-104z" />
    <glyph glyph-name="www" unicode="www" horiz-adv-x="2033" 
d="M1625 310l-3 33l-114 -326l-71 -32l-119 334l1 29l-114 -331l-71 -32l-115 325l-2 33l-115 -326l-70 -32l-119 334l1 29l-114 -331l-71 -32l-115 325l-2 33l-115 -326l-70 -32l-161 454l-61 8l3 19l103 -1l96 1l3 -19l-58 -8l122 -360l4 -26l113 326l-22 60l-49 8l3 19
l91 -1l96 1l2 -19l-58 -8l122 -360l4 -26l113 326l-21 60l-62 8l3 19l103 -1l97 1l2 -19l-58 -8l122 -360l4 -26l113 326l-22 60l-49 8l3 19l91 -1l96 1l3 -19l-59 -8l123 -360l4 -26l112 326l-21 60l-61 8l3 19l103 -1l96 1l2 -19l-58 -8l123 -360l4 -26l112 326l-22 60
l-49 8l3 19l91 -1l96 1l3 -19l-58 -8l122 -360l4 -26l132 386l-59 8l2 19l73 -1l86 1l3 -19l-63 -8l-155 -422l-70 -32z" />
    <glyph glyph-name=".notdef" horiz-adv-x="625" 
d="M605 460l-3 -41l-8 -35l-12 -31l-3 -156l-21 -7l-50 70l-27 -7l-19 -140l-32 4l-7 -4l-4 -94l30 -19l16 -14l-3 -15l-30 1l-24 18h-14l-8 8l7 76l-4 47l-61 1l-3 -52l-2 -56v-20l-15 -6l-8 6l-30 -10h-32l-1 11l11 11l50 21l-6 96l-98 -6l-147 140l-4 115l-13 10l-10 36
v26l15 8l-3 78l92 -62l9 47l10 36l22 35l28 35l39 29l40 15l38 14h22l-68 22l4 17h7l79 -20l-4 51l16 12h32l19 -5l29 -25l32 -8l32 -10l15 -13v-20l-20 -31l30 -28l28 -32l18 -34l15 -41zM495 399l-4 7h-205l-66 -3l-7 -9l-6 -44l-48 20l-11 -4l57 -27l1 -45l-5 -73v-91
l18 4l2 40l41 -3l3 9l-44 6v16l48 -6l1 9l-47 7l1 22l43 -3l3 6l-45 9l3 94h74l11 10h-79l2 9h74l8 7h-82l2 22l117 4l140 -4v11zM176 569l29 12l13 -15l-17 -20l-10 -3l17 -3h5l36 24h32l18 -12l8 3l4 14l7 5l10 -4v-18h8l10 22l11 8l-5 6l-3 8l1 21l-30 -10l-10 -8l-8 5
l4 21l14 10l11 11l38 -2l12 13l-4 8h-49l-45 -13l-53 -26l-29 -23zM586 465l-8 37l-19 50l-20 36l-23 28l-34 21h-11l17 -19l25 -10l11 -11l3 -33l-25 13l-15 -29l12 -8v-19l15 3l-12 26l15 -5l10 -20l-5 -12l-8 -7h-23l-3 11l-12 2l1 -22h-14l14 -18l-7 -10l-21 5l-3 -27
l41 6l8 17l22 -2l6 -28l-16 -13v-15l8 -6l18 12h23l6 11l-18 6l-5 9l9 42h7l14 -20zM72 434l57 -32l7 10l-68 38v18l59 -34l43 -28l28 -14l3 10l-103 64l-13 7l-41 33l2 -78l19 -17v-5h-21l19 -14l1 -11l-20 7l18 -18l-4 -7l3 -97l11 -12v180zM481 331l-54 1l-1 -24v-6
l-2 -31l19 -3l-8 -61l-48 3l-8 -6l51 -5l-2 -9h-49l-4 -5l53 -7l-6 -35l27 -1l12 79l4 36l-15 3l-1 8l20 1l5 3l-28 16l2 5l30 -6l-30 15l5 5l21 -5l4 10zM176 331l-66 39v-7l-2 -13l1 -27v-48l64 -44l-1 60zM350 214l-64 4v-51l64 -6v53zM502 306l8 -6l8 2l20 15l13 13
l11 18l-7 5h-14l-10 3l-14 7l-17 -3q-2 -13 -3 -24q-2 -9 -2.5 -17t-0.5 -7zM398 585l5 -6l19 11l8 -2l6 -24h13l6 6l-9 18l17 28l-15 9v5l-25 7v-20l-13 -5v-9l-9 -6zM403 336l4 30l-54 5l-3 -35h53zM336 455l-7 -11h-12l-5 7l11 8l-15 2v6l-23 4l3 -17l8 -14l20 -9l13 -1
l18 10l6 9l5 20l-30 2l7 -5zM559 312l-6 -3l-33 -27l39 -48v78zM214 454l1 4l14 2l-13 6l2 7l-20 -1l3 -19l14 -15l12 -6l11 5l16 12l6 12l2 13l-22 -4l6 -10l-12 -13l-14 -1zM364 281l-72 7l-6 -13l78 -4v10zM176 203l-74 50l20 -23l50 -41zM364 312h-73v-10h73v10z
M354 256l-68 4v-10h68v6zM485 359h-48v-13l44 4zM321 520l-4 -12l49 -17l3 4zM184 498l59 12l-4 12zM384 642l-8 -9v-19l12 -6l3 17zM461 530l-8 -4v-9l8 -3l2 7zM534 386l5 7v7l-10 -4v-10h5z" />
    <glyph glyph-name=".null" horiz-adv-x="0" 
 />
    <glyph glyph-name=".null" horiz-adv-x="0" 
 />
    <glyph glyph-name="nonmarkingreturn" unicode="&#xd;" horiz-adv-x="320" 
 />
    <glyph glyph-name="space" unicode=" " horiz-adv-x="240" 
 />
    <glyph glyph-name="exclam" unicode="!" horiz-adv-x="260" 
d="M168 412l-29 -196h-19l-29 195l-5 299h87zM150 93l25 -4l4 -48l-6 -41l-62 -5l-25 5l-5 49l6 40z" />
    <glyph glyph-name="quotedbl" unicode="&#x22;" horiz-adv-x="352" 
d="M202 664l7 43l67 4l27 -4l4 -50l-6 -45l-73 -149l-20 7q3 7 11 27.5t16.5 44t15 43t6.5 24.5l-50 3zM50 664l7 43l66 4l28 -4l5 -50l-7 -45l-73 -149l-19 7q3 7 10.5 27.5t16 44t15 43t6.5 24.5l-50 3z" />
    <glyph glyph-name="numbersign" unicode="#" horiz-adv-x="618" 
d="M216 235h164l22 185h-164zM466 655l-25 -202h137l-5 -33h-136l-22 -185h136l-4 -34h-137l-24 -201h-35l24 201h-164l-24 -201h-35l24 201h-136l4 34h137l22 185h-136l5 33h135l25 202h35l-25 -202h164l25 202h35z" />
    <glyph glyph-name="dollar" unicode="$" horiz-adv-x="543" 
d="M258 -17q-68 0 -115 17t-87 46l-11 143h37l39 -96q26 -30 65.5 -50t86.5 -21v298l-87 44q-25 12 -47.5 26t-39 33t-26 43t-9.5 56q0 38 15.5 69t43 54.5t66 40.5t84.5 27v68h30v-64q45 -2 88.5 -15t78.5 -35v-142h-26l-39 106q-20 20 -44.5 33t-57.5 17v-271l58 -28
q28 -15 53 -32t43.5 -38.5t29 -48.5t10.5 -62q0 -29 -9.5 -58.5t-32 -56.5t-60 -50.5t-92.5 -40.5v-75h-30v67zM144 564q0 -45 28 -74t75 -52l26 -13v258q-60 -2 -94.5 -34t-34.5 -85zM303 305v-282q54 8 85 43.5t31 89.5q0 52 -29.5 86.5t-84.5 61.5z" />
    <glyph glyph-name="percent" unicode="%" horiz-adv-x="795" 
d="M214 381q22 0 38.5 11t26.5 30.5t15 45t5 55.5q0 34 -5.5 63t-17.5 51t-30.5 34.5t-44.5 12.5q-22 0 -38 -11.5t-26.5 -31t-15.5 -45.5t-5 -55q0 -34 5.5 -63.5t17.5 -51t30.5 -33.5t44.5 -12zM195 359q-36 0 -63.5 12.5t-47 35t-29.5 53t-10 67.5q0 75 40 119t135 60
q35 0 63 -12.5t47.5 -35t29.5 -53.5t10 -68q0 -74 -40 -119t-135 -59zM635 705h43l-494 -710h-43zM582 319q-23 0 -39 -11t-26.5 -30.5t-15.5 -45.5t-5 -55q0 -35 5.5 -64t17.5 -51t30.5 -34t44.5 -12q22 0 38.5 11t26.5 30.5t15 45.5t5 56q0 34 -5.5 63t-17 50.5t-30 34
t-44.5 12.5zM575 -6q-35 0 -63 12.5t-47.5 35t-29.5 53.5t-10 68q0 75 40 119t135 60q36 0 63.5 -13t47 -35.5t29.5 -53.5t10 -68q0 -73 -40 -118.5t-135 -59.5z" />
    <glyph glyph-name="ampersand" unicode="&#x26;" horiz-adv-x="691" 
d="M605 341l-122 -157l137 -156l55 -8l-2 -20l-81 1l-66 -1l-99 113q-12 -13 -29 -29.5t-38.5 -34t-46.5 -34.5t-52 -32q-44 0 -83.5 12.5t-68.5 35t-46 55t-17 71.5q0 44 15 77t38.5 58.5t50.5 44.5t51 35q-48 53 -75 93.5t-27 82.5q0 62 46 101.5t142 68.5q39 0 70 -11.5
t52.5 -30t33 -43t11.5 -51.5t-11.5 -51t-32 -46t-49.5 -43.5t-65 -43.5l166 -192l101 135l-56 8l3 18l77 -1l82 1l2 -18zM268 54q38 0 71.5 21.5t66.5 60.5l-187 217q-48 -32 -69.5 -69.5t-21.5 -87.5q0 -29 11 -54.5t29.5 -45t44 -31t55.5 -11.5zM183 582q0 -18 8.5 -38.5
t22 -41.5t31 -42.5t34.5 -42.5q26 20 43 39t26.5 38t13 39.5t3.5 43.5q0 48 -25 78t-67 30q-40 0 -65 -27t-25 -76z" />
    <glyph glyph-name="quotesingle" unicode="'" horiz-adv-x="196" 
d="M50 663l7 43l66 4l28 -4l5 -50l-7 -45l-73 -149l-19 8q3 6 10.5 26.5t16 44t15 43t6.5 24.5l-50 3z" />
    <glyph glyph-name="parenleft" unicode="(" horiz-adv-x="274" 
d="M114 248q0 -65 7.5 -128.5t24.5 -123.5t44.5 -115.5t67.5 -103.5l-14 -13q-55 66 -92.5 121.5t-61 110t-34 114.5t-10.5 137q0 76 10.5 136.5t34 115.5t61 108.5t92.5 115.5l14 -13q-80 -96 -112 -207.5t-32 -254.5z" />
    <glyph glyph-name="parenright" unicode=")" horiz-adv-x="274" 
d="M160 248q0 72 -7.5 135t-24 119.5t-44.5 108t-68 99.5l14 13q55 -62 92.5 -115.5t61 -108.5t34 -115.5t10.5 -136.5q0 -77 -10.5 -137t-34 -114.5t-61 -110t-92.5 -121.5l-14 13q81 97 112.5 218.5t31.5 252.5z" />
    <glyph glyph-name="asterisk" unicode="*" horiz-adv-x="399" 
d="M140 421l-57 41l100 96l-138 19l21 67l121 -64l-22 135h69l-22 -135l120 63l22 -66l-136 -19l98 -96l-56 -41l-61 121z" />
    <glyph glyph-name="plus" unicode="+" 
d="M289 0v233h-237v42h237v240h42v-240h237v-42h-237v-233h-42z" />
    <glyph glyph-name="comma" unicode="," horiz-adv-x="214" 
d="M76 53l6 43l66 5l29 -5l4 -51l-6 -45l-74 -141l-19 8q3 7 10.5 26t15.5 40.5t14.5 39.5t6.5 23l-48 4z" />
    <glyph glyph-name="hyphen" unicode="-" horiz-adv-x="385" 
d="M40 297h305v-44h-305v44z" />
    <glyph glyph-name="period" unicode="." horiz-adv-x="217" 
d="M144 101l27 -5l5 -51l-7 -45l-68 -5l-26 5l-5 53l7 43z" />
    <glyph glyph-name="slash" unicode="/" horiz-adv-x="474" 
d="M33 -230h-43l453 948h41z" />
    <glyph glyph-name="zero" unicode="0" horiz-adv-x="569" 
d="M295 481q51 0 94 -18t74 -49.5t48.5 -75.5t17.5 -95q0 -206 -255 -258q-51 0 -94 18t-74 49.5t-48.5 75.5t-17.5 95q0 105 63.5 167t191.5 91zM133 247q0 -46 9 -87.5t29 -72.5t51 -49t75 -18q35 0 61 16.5t43.5 44t26 63.5t8.5 75q0 46 -9 87t-29 72t-51 49t-75 18
q-35 0 -61.5 -16.5t-43.5 -44t-25.5 -63.5t-8.5 -74z" />
    <glyph glyph-name="one" unicode="1" horiz-adv-x="434" 
d="M187 410l-40 -17l-107 -31l-10 20l218 92h19v-443l149 -12l-2 -20l-189 2l-191 -2l-2 20l152 12v360z" />
    <glyph glyph-name="two" unicode="2" horiz-adv-x="479" 
d="M449 79v-16l-25 -63h-392l-12 25l138 105q45 34 75.5 63.5t49 55.5t26 49t7.5 44q0 51 -25 76.5t-70 25.5q-23 0 -38.5 -6.5t-26.5 -11.5l-32 -113h-69v95l184 77q42 0 73.5 -10t52.5 -27t31 -40t10 -50q0 -70 -50.5 -123.5t-143.5 -109.5l-98 -57l76 11h259z" />
    <glyph glyph-name="three" unicode="3" horiz-adv-x="462" 
d="M243 -150q47 29 66 65.5t19 74.5q0 28 -12.5 53.5t-37 44.5t-61 30t-84.5 11l-6 18l49 23q37 16 61 34t38 38t20 42.5t6 47.5q0 51 -27.5 80.5t-66.5 29.5q-21 0 -41 -6t-32 -13l-36 -113h-67v101l203 74q41 0 70.5 -11.5t48 -30t27 -41.5t8.5 -45q0 -54 -36 -100.5
t-118 -81.5q40 -2 73.5 -14t57.5 -32t37.5 -46t13.5 -56q0 -41 -14 -71.5t-38.5 -55t-58 -44.5t-73.5 -38l-102 -48h-103v80h216v0z" />
    <glyph glyph-name="four" unicode="4" horiz-adv-x="543" 
d="M390 39h141v-34h-141v-236h-82v236h-277l-21 21l315 442h99v-19l-363 -416l37 6h210v147l58 41l24 7v-195z" />
    <glyph glyph-name="five" unicode="5" horiz-adv-x="470" 
d="M91 150l151 80q58 0 96 -17t60 -42.5t30.5 -54t8.5 -52.5q0 -51 -17 -88.5t-46 -66t-66.5 -50t-79.5 -40.5l-102 -49h-82v81h191q59 32 86 77.5t27 98.5q0 26 -7.5 50t-23.5 42t-40.5 28.5t-57.5 10.5q-14 0 -26.5 -1t-25 -4t-26 -8.5t-31.5 -14.5l-38 -18l-16 9l38 349
h336l-2 -29l-13 -49h-297z" />
    <glyph glyph-name="six" unicode="6" horiz-adv-x="536" 
d="M489 240q0 -94 -57 -160.5t-177 -94.5q-51 0 -89.5 22.5t-64.5 61t-39.5 89.5t-13.5 108q0 70 19.5 138t62 127t110 108t163.5 82l9 -23q-83 -35 -135.5 -75.5t-82 -87.5t-41 -100.5t-13.5 -112.5l164 126q49 0 84 -18t57.5 -47.5t33 -67t10.5 -75.5zM403 211q0 43 -9 75
t-24 53.5t-35 32.5t-42 11q-28 0 -54.5 -16.5t-61.5 -44.5l-37 -30q1 -53 9 -101.5t24 -86.5t41.5 -60.5t61.5 -22.5q60 0 93.5 49.5t33.5 140.5z" />
    <glyph glyph-name="seven" unicode="7" horiz-adv-x="479" 
d="M20 470h428l11 -12l-282 -687h-75v15l284 587l19 18h-385v79z" />
    <glyph glyph-name="eight" unicode="8" horiz-adv-x="535" 
d="M485 182q0 -79 -57.5 -126t-172.5 -71q-43 0 -80.5 12.5t-65 35.5t-43.5 55.5t-16 73.5q0 62 43 111.5t112 82.5q-69 49 -102 92t-33 92q0 65 51.5 107t154.5 68q94 0 145 -38t51 -104q0 -60 -41 -106t-108 -84q40 -29 70.5 -53t51 -47.5t30.5 -48t10 -52.5zM136 186
q0 -36 11 -66.5t30 -53t44 -35t52 -12.5q22 0 44.5 7t40.5 22t29.5 38.5t11.5 55.5q0 30 -13 55t-36 48t-55 46.5t-70 51.5q-46 -32 -67.5 -67.5t-21.5 -89.5zM385 551q0 27 -8 51t-23.5 41.5t-38.5 28t-53 10.5q-47 0 -76 -27.5t-29 -75.5q0 -25 10.5 -47.5t29.5 -44.5
t46.5 -44t60.5 -46q47 36 64 73t17 81z" />
    <glyph glyph-name="nine" unicode="9" horiz-adv-x="532" 
d="M35 231q0 94 56.5 159t177.5 95q51 0 89.5 -22.5t64.5 -61t39.5 -90t13.5 -109.5q0 -69 -20 -135t-62.5 -124.5t-109 -106t-160.5 -80.5l-9 23q81 35 132.5 77.5t81.5 89.5t41.5 98t13.5 102l-162 -123q-49 0 -84 18.5t-58 48t-34 66.5t-11 75zM121 258q0 -40 9 -71.5
t24.5 -53t35.5 -32.5t42 -11q14 0 25 2.5t23 8.5t27 16.5t36 27.5l41 33q-1 54 -8.5 103.5t-24 86.5t-42 59t-61.5 22q-59 0 -93 -48.5t-34 -142.5z" />
    <glyph glyph-name="colon" unicode=":" horiz-adv-x="231" 
d="M149 101l27 -5l5 -51l-7 -45l-68 -5l-26 5l-5 53l7 43zM149 481l27 -4l5 -51l-7 -45l-68 -5l-26 5l-5 52l7 44z" />
    <glyph glyph-name="semicolon" unicode=";" horiz-adv-x="251" 
d="M81 -133q3 7 10.5 26t16 40.5t15 39.5t6.5 23l-49 4l-5 53l6 43l67 5l28 -5l5 -51l-7 -45l-73 -141zM82 477l67 4l27 -4l5 -51l-7 -45l-68 -5l-26 5l-5 52z" />
    <glyph glyph-name="less" unicode="&#x3c;" 
d="M570 540v-50l-460 -203l460 -203v-50l-520 234v37z" />
    <glyph glyph-name="equal" unicode="=" 
d="M568 321h-516v41h516v-41zM568 128h-516v42h516v-42z" />
    <glyph glyph-name="greater" unicode="&#x3e;" 
d="M570 305v-37l-520 -234v50l460 203l-460 203v50z" />
    <glyph glyph-name="question" unicode="?" horiz-adv-x="400" 
d="M176 341l-5 -128h-35l-13 136l39 26q52 35 76.5 75t24.5 94q0 27 -6 51t-19 42.5t-35 29.5t-53 12l-29 -101h-59v117l87 12q54 -3 92 -18.5t62 -38.5t35 -51.5t11 -56.5q0 -65 -30.5 -105t-86.5 -69zM113 -3l-5 49l6 40l63 4l25 -4l4 -48l-6 -41l-62 -5z" />
    <glyph glyph-name="at" unicode="@" horiz-adv-x="908" 
d="M572 437l-85 56q-45 -21 -74 -49.5t-45.5 -59t-23 -60.5t-6.5 -55q0 -46 22 -75t63 -34l113 125zM569 111q36 0 75 19.5t71.5 55.5t54 87.5t21.5 115.5t-20 115t-56.5 87t-89 55t-117.5 19q-70 0 -138 -25.5t-122 -74.5t-87.5 -120.5t-33.5 -163.5q0 -87 29.5 -152
t79.5 -108.5t115 -65.5t137 -22q30 0 57 5.5t51 13.5t43.5 18t34.5 18l9 -16q-28 -16 -60 -30t-64 -25.5t-61.5 -19.5t-53.5 -11q-89 0 -161.5 27.5t-124 77t-80 118t-28.5 149.5q0 72 24.5 136.5t69.5 118t107.5 94.5t137.5 65l93 28q93 0 164 -22.5t119 -62.5t73 -94.5
t25 -117.5q0 -64 -25.5 -121t-67.5 -99.5t-96 -67.5t-111 -26l-56 64l34 114l-52 -64q-23 -27 -48.5 -58.5t-47.5 -57.5q-26 1 -50 12t-42 30.5t-29 47t-11 61.5q0 84 47.5 149t125.5 101l108 49l107 -65z" />
    <glyph glyph-name="A" unicode="A" horiz-adv-x="721" 
d="M8 19l80 9l246 660l48 22l253 -682l78 -9l-2 -20l-128 2l-133 -2l-2 20l87 10l-76 217h-252l-76 -217l88 -10l-2 -20l-107 2l-99 -2zM448 275l-79 221l-33 117l-119 -338h231z" />
    <glyph glyph-name="B" unicode="B" horiz-adv-x="630" 
d="M30 19l89 10v643l-89 9l2 20l151 -2l169 2q49 0 85.5 -12.5t61 -33.5t36.5 -48.5t12 -57.5q0 -34 -15 -64t-39.5 -53t-57 -38t-68.5 -20q55 -1 96.5 -15t69.5 -37t41.5 -54t13.5 -65q0 -50 -19.5 -86t-54.5 -60.5t-84 -38.5t-108 -19l-146 2l-144 -2zM306 383
q34 0 61.5 12.5t46.5 34.5t29 51.5t10 62.5q0 60 -34 95.5t-97 36.5l-113 -5v-288h97zM306 24q53 0 89 15t57.5 39t31 55.5t9.5 64.5q0 74 -46 115t-121 41h-117v-325z" />
    <glyph glyph-name="C" unicode="C" horiz-adv-x="687" 
d="M644 201l-14 -145q-48 -23 -110.5 -44t-128.5 -29q-68 0 -131.5 23.5t-112 68.5t-77.5 112t-29 154q0 85 26.5 151t74.5 113.5t114.5 75t146.5 36.5q37 0 71.5 -6t64.5 -16t55 -21.5t44 -23.5v-141h-29l-45 112q-24 24 -65 45t-103 21q-54 0 -100.5 -20.5t-80.5 -62
t-53.5 -103t-19.5 -142.5q0 -64 17 -125.5t51 -109.5t85.5 -77.5t121.5 -29.5q45 0 82 19t58 39l57 126h30z" />
    <glyph glyph-name="D" unicode="D" horiz-adv-x="726" 
d="M30 19l93 10v643l-93 9l2 20l148 -2l174 2q76 0 137.5 -22t104.5 -65t66.5 -105t23.5 -143q0 -80 -21.5 -145t-64 -112.5t-105.5 -75.5t-147 -34l-168 2l-148 -2zM344 25q54 0 98.5 23.5t76.5 67t49.5 105t17.5 137.5q0 68 -15.5 126t-48 101t-82 67.5t-117.5 24.5
l-110 -6v-638z" />
    <glyph glyph-name="E" unicode="E" horiz-adv-x="613" 
d="M30 19l89 10v643l-89 9l2 20l138 -2l393 2l4 -178h-18l-60 149l-280 1v-294l159 2l41 111h19l-5 -122l5 -128h-19l-41 110l-159 2v-327l289 2l66 153h20l-18 -183l-396 2l-138 -2z" />
    <glyph glyph-name="F" unicode="F" horiz-adv-x="582" 
d="M30 19l89 10v643l-89 9l2 20l139 -2l391 2l5 -180h-18l-61 151l-279 1v-307l159 2l41 117h19l-5 -129l5 -135h-19l-41 118l-159 2v-312l104 -10l-2 -20l-142 2l-137 -2z" />
    <glyph glyph-name="G" unicode="G" horiz-adv-x="731" 
d="M385 -17q-69 0 -131.5 23.5t-110 69t-75 112.5t-27.5 154q0 84 25.5 149.5t72.5 112.5t113.5 75.5t148.5 37.5q39 0 74.5 -6.5t66.5 -16.5t55 -22t39 -22v-141h-26l-45 110q-12 12 -28 24t-37.5 21.5t-48 16t-58.5 6.5q-58 0 -104.5 -23.5t-79 -67t-50 -105t-17.5 -136.5
q0 -65 17.5 -126.5t51 -109t82.5 -76t112 -28.5q51 0 89 20.5t57 41.5v213l-86 11l2 19l124 -2l112 2l2 -19l-64 -11v-236q-21 -9 -51 -20t-64.5 -21.5t-70.5 -18.5t-70 -11z" />
    <glyph glyph-name="H" unicode="H" horiz-adv-x="749" 
d="M30 19l89 10v643l-89 9l2 20l132 -2l129 2l3 -20l-87 -9v-294h334v294l-90 9l3 20l133 -2l128 2l3 -20l-87 -9v-643l87 -10l-3 -20l-128 2l-133 -2l-3 20l90 10v320h-334v-320l87 -10l-3 -20l-129 2l-132 -2z" />
    <glyph glyph-name="I" unicode="I" horiz-adv-x="328" 
d="M164 1l-132 -2l-2 21l89 9v643l-89 9l2 20l132 -2l132 2l2 -20l-89 -9v-643l89 -9l-2 -21z" />
    <glyph glyph-name="J" unicode="J" horiz-adv-x="328" 
d="M217 93q0 -60 -11 -96t-37 -66l-93 -106h-76v81h109l6 21q3 10 5.5 22t3.5 31t1.5 46t0.5 66v580l-106 9l3 20l148 -2l130 2l2 -20l-86 -9v-579z" />
    <glyph glyph-name="K" unicode="K" horiz-adv-x="689" 
d="M233 386l302 286l-82 9l3 20l102 -2l91 2l3 -20l-80 -11l-311 -298l44 3l314 -348l59 -8l-2 -20l-101 2l-59 -2l-292 333l-15 23v-326l80 -10l-2 -20l-123 2l-132 -2l-2 20l89 10v643l-89 9l2 20l132 -2l123 2l2 -20l-80 -9v-304z" />
    <glyph glyph-name="L" unicode="L" horiz-adv-x="570" 
d="M168 1l-136 -2l-2 20l89 10v643l-89 9l2 20l134 -2l130 2l2 -20l-89 -9v-644l262 2l65 154h22l-17 -185z" />
    <glyph glyph-name="M" unicode="M" horiz-adv-x="913" 
d="M33 19l83 10v641l-86 11l2 20l98 -2l93 2l223 -554l14 -46l236 600l93 -2l92 2l3 -20l-87 -9v-643l84 -10l-3 -20l-123 2l-130 -2l-3 20l84 10v517l6 99l-255 -648h-49l-220 553l-35 98v-619l85 -10l-5 -20l-95 2l-103 -2z" />
    <glyph glyph-name="N" unicode="N" horiz-adv-x="718" 
d="M179 593l-23 55v-619l88 -10l-3 -20l-99 2l-110 -2l-2 20l89 10v638l-87 14l3 20l95 -2l80 2l350 -531l22 -43v545l-87 9l2 20l99 -2l109 2l3 -20l-90 -9v-676h-50z" />
    <glyph glyph-name="O" unicode="O" horiz-adv-x="764" 
d="M392 717q73 0 134 -27t105 -74.5t68.5 -112t24.5 -139.5q0 -163 -86.5 -258.5t-265.5 -122.5q-73 0 -134 27t-104.5 74.5t-68 112t-24.5 139.5q0 163 86 258.5t265 122.5zM142 367q0 -67 16.5 -129.5t49 -111t80.5 -78t112 -29.5q55 0 97 24.5t70 67t42 100t14 123.5
t-16.5 128.5t-49 111t-80.5 78t-112 29.5q-56 0 -97.5 -24.5t-69.5 -66.5t-42 -99.5t-14 -123.5z" />
    <glyph glyph-name="P" unicode="P" horiz-adv-x="578" 
d="M30 681l2 20l132 -2l184 2q46 0 85.5 -11.5t68.5 -34t46 -55.5t17 -77q0 -50 -20.5 -85.5t-54.5 -60.5t-77 -41t-89 -26h-115v-281l106 -10l-2 -20l-148 2l-133 -2l-2 20l89 10v643zM209 339h90q37 0 68 13t53 36t34 54.5t12 69.5q0 34 -8.5 64t-26.5 52.5t-47 35.5
t-71 13l-104 -6v-332z" />
    <glyph glyph-name="Q" unicode="Q" horiz-adv-x="764" 
d="M392 717q73 0 134 -27t105 -74.5t68.5 -112t24.5 -139.5q0 -155 -79 -249t-241 -126l112 -34l120 -94l50 -11l-2 -19h-143l-168 152h-1q-73 0 -134 27t-104.5 74.5t-68 112t-24.5 139.5q0 163 86 258.5t265 122.5zM142 367q0 -67 16.5 -129.5t49 -111t80.5 -78t112 -29.5
q55 0 97 24.5t70 67t42 100t14 123.5t-16.5 128.5t-49 111t-80.5 78t-112 29.5q-56 0 -97.5 -24.5t-69.5 -66.5t-42 -99.5t-14 -123.5z" />
    <glyph glyph-name="R" unicode="R" horiz-adv-x="659" 
d="M30 19l89 10v643l-89 9l2 20l132 -2l176 2q44 0 84.5 -9.5t71 -30.5t48.5 -54t18 -80q0 -45 -19.5 -78t-52 -56.5t-74 -38t-86.5 -23.5l87 -32l183 -271l54 -10l-2 -19l-81 2l-63 -2l-207 313l-12 16h-80v-299l83 -10l-2 -20l-126 2l-132 -2zM209 354h67q90 0 138 46.5
t48 119.5q0 39 -11.5 68t-32 48.5t-48 29.5t-59.5 11l-102 -6v-317z" />
    <glyph glyph-name="S" unicode="S" horiz-adv-x="541" 
d="M256 -17q-68 0 -115 17t-87 46l-11 143h37l39 -96q26 -30 66.5 -50.5t88.5 -20.5q67 0 105 37t38 97q0 52 -29.5 86.5t-84.5 61.5l-119 60q-25 12 -47.5 26t-39 33t-26 43t-9.5 56q0 40 17 72t47 56t71 41t90 26q48 0 95.5 -13t85.5 -37v-142h-26l-39 106
q-23 23 -53 37.5t-74 14.5q-62 0 -98 -32.5t-36 -86.5q0 -45 28 -74t75 -52l114 -56q28 -15 53 -32t43.5 -38.5t29 -48.5t10.5 -62q0 -32 -11.5 -64t-39 -61t-73.5 -53t-115 -40z" />
    <glyph glyph-name="T" unicode="T" horiz-adv-x="584" 
d="M439 -1l-147 2l-150 -2l-2 20l107 10v643h-157l-56 -153h-21v182l278 -2l280 2v-182h-21l-56 153h-157v-643l104 -10z" />
    <glyph glyph-name="U" unicode="U" horiz-adv-x="690" 
d="M456 681l2 20l111 -2l106 2l3 -20l-86 -9v-430q0 -48 -10.5 -89t-37.5 -74t-73.5 -57.5t-117.5 -38.5q-69 0 -117 19t-77.5 54t-43 83.5t-13.5 107.5v425l-89 9l2 20l135 -2l129 2l3 -20l-87 -9v-440q0 -46 11 -84t33.5 -65.5t56.5 -42.5t79 -15q80 0 124.5 57t44.5 152
v438z" />
    <glyph glyph-name="V" unicode="V" horiz-adv-x="719" 
d="M344 -13l-261 686l-78 8l3 20l126 -2l137 2l2 -19l-86 -10l189 -531l12 -47l205 578l-89 10l2 19l110 -2l95 2l3 -20l-81 -8l-244 -665z" />
    <glyph glyph-name="W" unicode="W" horiz-adv-x="980" 
d="M71 673l-60 8l2 20l110 -2l129 2l2 -20l-86 -9l160 -514l10 -53l132 431l-46 137l-65 8l2 20l115 -2l129 2l2 -20l-86 -9l160 -516l10 -50l176 567l-89 8l3 20l109 -2l77 2l3 -20l-62 -8l-213 -665l-48 -17l-148 450l-7 47l-150 -480l-48 -17z" />
    <glyph glyph-name="X" unicode="X" horiz-adv-x="700" 
d="M685 20l-3 -21l-133 2l-133 -2l-2 21l85 9l-148 239l-20 38l-186 -277l99 -9l-3 -21l-114 2l-114 -2l-3 21l91 8l210 303l-219 342l-76 9l3 19l138 -2l129 2l2 -19l-83 -10l145 -238l17 -35l181 273l-101 9l2 20l120 -2l112 2l2 -20l-90 -8l-206 -298l225 -347z" />
    <glyph glyph-name="Y" unicode="Y" horiz-adv-x="696" 
d="M398 280l1 -251l113 -10l-2 -20l-156 2l-160 -2l-2 20l117 10v245l-226 399l-78 9l3 19l134 -2l131 2l3 -19l-90 -10l182 -323l13 -33l188 356l-95 10l2 19l116 -2l96 2l3 -19l-78 -8z" />
    <glyph glyph-name="Z" unicode="Z" horiz-adv-x="564" 
d="M511 187h25l-17 -187h-494l-5 28l386 609l30 37l-300 -3l-62 -151h-24v180h477l5 -25l-388 -612l-28 -36l322 2z" />
    <glyph glyph-name="bracketleft" unicode="[" horiz-adv-x="320" 
d="M285 -211v-20l-117 2l-81 -2v946l79 -1l119 1v-19l-134 -8l-2 -386l2 -505z" />
    <glyph glyph-name="backslash" unicode="\" horiz-adv-x="431" 
d="M-32 718h42l453 -948h-43z" />
    <glyph glyph-name="bracketright" unicode="]" horiz-adv-x="320" 
d="M170 -203q0 138 1 246q0 46 0.5 90.5t1 79t0.5 56v21.5q-1 29 -1 62q0 28 -0.5 63.5t-0.5 73.5q-1 87 -1 199l-134 8v19l122 -1l75 1v-946l-73 2l-124 -2v20z" />
    <glyph glyph-name="asciicircum" unicode="^" horiz-adv-x="374" 
d="M97 460h-47l124 245h27l123 -245h-46l-90 197z" />
    <glyph glyph-name="underscore" unicode="_" horiz-adv-x="565" 
d="M5 -76h555v-36h-555v36z" />
    <glyph glyph-name="grave" unicode="`" horiz-adv-x="500" 
d="M270 542l-128 172h93l55 -172h-20z" />
    <glyph glyph-name="a" unicode="a" horiz-adv-x="451" 
d="M293 252l-147 -59q-33 -28 -33 -72q0 -38 19.5 -57.5t46.5 -19.5q23 0 43 11t32 19l39 27v151zM221 481q47 0 76.5 -8t46.5 -26t23 -48t6 -74v-207q0 -29 5 -47.5t13 -35.5l53 4l2 -19l-125 -25l-24 82l-130 -92q-62 0 -99.5 32t-37.5 90q0 25 9 47.5t34 47.5l220 73v54
q0 22 -1.5 41.5t-9 33.5t-23.5 22t-44 8q-19 0 -37.5 -4t-38.5 -11l-21 -90h-73v71z" />
    <glyph glyph-name="b" unicode="b" horiz-adv-x="531" 
d="M490 260q0 -68 -18.5 -116t-51 -80.5t-76.5 -51t-96 -27.5q-33 0 -57.5 3.5t-43 9.5t-34 13.5t-30.5 15.5v640l-69 -7l-4 20l126 32l27 2v-329l138 96q39 0 73.5 -15t60 -43.5t40.5 -69.5t15 -93zM405 230q0 41 -7.5 75.5t-22 59t-36 38.5t-49.5 14q-24 0 -47 -10
t-51 -30l-29 -21v-294q33 -45 104 -45q30 0 55 15t43.5 42.5t29 67t10.5 88.5z" />
    <glyph glyph-name="c" unicode="c" horiz-adv-x="437" 
d="M308 434q-12 7 -24 10t-29 3q-29 0 -53.5 -12.5t-43.5 -37t-29.5 -60.5t-10.5 -82q0 -44 11.5 -81t33 -65t51.5 -43.5t68 -15.5q32 0 62.5 12.5t59.5 33.5l8 -20q-67 -55 -156 -91q-47 0 -86.5 15.5t-68.5 45t-45.5 73t-16.5 100.5q0 60 19.5 105t52 77t74.5 51.5
t86 28.5q15 0 33.5 -4.5t36.5 -11.5t34.5 -16.5t27.5 -18.5v-88h-62z" />
    <glyph glyph-name="d" unicode="d" horiz-adv-x="547" 
d="M442 121q0 -27 4.5 -45t13.5 -37l64 4l3 -20l-134 -28l-26 85l-137 -95q-44 0 -80 17.5t-61.5 48.5t-39.5 72.5t-14 89.5q0 112 60.5 181t174.5 87q21 0 46 -8t46 -19v214l-69 -7l-4 19l128 32l25 2v-593zM237 49q23 0 44 9.5t53 32.5l28 22v293q-15 20 -40 32t-58 12
q-69 -1 -106 -56t-37 -149q0 -43 8.5 -79t23.5 -62t36.5 -40.5t47.5 -14.5z" />
    <glyph glyph-name="e" unicode="e" horiz-adv-x="463" 
d="M114 265q0 -100 48 -157t131 -57q31 0 64 12.5t62 31.5l9 -21q-39 -29 -79.5 -50.5t-87.5 -38.5q-44 0 -84.5 15t-71.5 45t-50 74t-19 102q0 59 17.5 103.5t47 76t69 51t84.5 29.5q46 0 78.5 -14t53 -38.5t29.5 -58t9 -73.5v-32h-310zM334 293q0 34 -4 62t-15 48
t-31 31.5t-52 11.5q-54 0 -83 -44t-34 -114z" />
    <glyph glyph-name="f" unicode="f" horiz-adv-x="325" 
d="M184 461h124v-26h-124v-408l114 -6l-2 -22l-146 2l-114 -2l-2 20l70 8v408h-78v12l14 16h64v11q0 24 2.5 43t8 35.5t14 31t21.5 28.5l87 98h114v-71h-139l-12 -20q-4 -8 -7 -18t-5 -23.5t-3 -32.5t-1 -46v-38z" />
    <glyph glyph-name="g" unicode="g" horiz-adv-x="494" 
d="M234 480q48 0 88.5 -18.5t61.5 -50.5l56 69h49v-79h-69l-23 -13q11 -24 11 -50q0 -62 -44 -107t-143 -70q-27 0 -48 6l-52 -56q0 -26 13.5 -38.5t36.5 -12.5h179q62 0 90 -27.5t28 -68.5q0 -32 -18 -62t-50 -57t-77.5 -50t-99.5 -39q-104 0 -153.5 33t-49.5 103v16
l110 87q-26 8 -41.5 18.5t-24 23t-11.5 26.5t-3 31v8l98 71q-45 16 -73 50t-28 80q0 62 44 106.5t143 70.5zM151 -11q-18 -18 -29 -32.5t-16.5 -26t-7 -21t-1.5 -17.5q0 -41 35 -66.5t90 -24.5q36 0 67.5 10.5t55.5 28t37.5 41t13.5 49.5q0 29 -21 44t-72 15h-152zM325 304
q0 21 -4.5 46.5t-16.5 47.5t-33 36.5t-53 14.5q-42 0 -65 -31t-23 -87q0 -20 4.5 -44t16.5 -45t33 -35t53 -14q42 0 65 29.5t23 81.5z" />
    <glyph glyph-name="h" unicode="h" horiz-adv-x="571" 
d="M183 27l55 -8l-3 -20l-89 2l-110 -2l-3 20l70 8v641l-69 -7l-3 19l125 32l27 2v-337l164 104q41 0 66 -9.5t39 -29.5t19 -49.5t5 -69.5v-296l78 -8l-3 -20l-114 2l-90 -2l-2 20l51 8v306q0 47 -17.5 65.5t-49.5 18.5q-26 0 -52 -13t-57 -33l-37 -21v-323z" />
    <glyph glyph-name="i" unicode="i" horiz-adv-x="277" 
d="M146 1l-109 -2l-2 20l69 8v400l-71 -12l-3 20l127 35l27 2v-445l73 -8l-2 -20zM103 690l63 5l25 -5l5 -49l-9 -44l-63 -5l-24 5l-6 51z" />
    <glyph glyph-name="j" unicode="j" horiz-adv-x="256" 
d="M103 690l63 5l25 -5l5 -49l-9 -44l-63 -5l-24 5l-6 51zM90 -140q5 13 10 37t5 67v463l-71 -12l-4 20l128 35l27 2v-491q0 -35 -9 -59t-32 -52l-88 -106h-75v78h102z" />
    <glyph glyph-name="k" unicode="k" horiz-adv-x="527" 
d="M441 1l-57 -2l-188 232l-13 21v-225l62 -8l-2 -20l-97 2l-111 -2l-2 20l70 8v640l-69 -7l-4 20l126 32l27 2v-449l27 17l183 157l-46 8v19l77 -1l74 1l3 -19l-60 -8l-211 -173h41l206 -240l45 -7l-2 -20z" />
    <glyph glyph-name="l" unicode="l" horiz-adv-x="271" 
d="M144 1l-108 -2l-3 20l70 8v640l-69 -7l-3 20l125 32l27 2v-687l73 -8l-3 -20z" />
    <glyph glyph-name="m" unicode="m" horiz-adv-x="844" 
d="M710 1l-90 -2l-3 20l52 8v306q0 47 -16.5 65.5t-46.5 18.5q-26 0 -52.5 -14t-51.5 -31l-35 -24v-321l49 -8l-3 -20l-84 2l-89 -2l-2 20l49 8v306q0 47 -16.5 65.5t-47.5 18.5q-25 0 -51.5 -14t-51.5 -31l-36 -24v-321l52 -8l-2 -20l-88 2l-109 -2l-3 20l70 8v400l-71 -11
l-3 19l128 35l23 2l2 -96l156 105q59 0 90 -25q32 -26 35 -81l157 106q40 -2 65 -10.5t39 -27.5t19 -48t5 -71v-297l78 -8l-2 -20z" />
    <glyph glyph-name="n" unicode="n" horiz-adv-x="572" 
d="M146 1l-109 -2l-3 20l70 8v400l-71 -12l-3 20l127 35l23 2l3 -97l164 106q38 -1 63 -8.5t39 -24.5q15 -17 21 -44.5t6 -69.5v-307l79 -8l-3 -20l-114 2l-91 -2l-2 20l51 8v306q0 47 -17 65.5t-51 18.5q-28 0 -53 -13t-55 -33l-36 -22v-322l55 -8l-3 -20z" />
    <glyph glyph-name="o" unicode="o" horiz-adv-x="526" 
d="M274 481q49 0 89 -18t68.5 -50t44 -75.5t15.5 -94.5q0 -111 -62 -174.5t-176 -83.5q-49 0 -89 18t-68.5 50t-44 75.5t-15.5 93.5q0 112 62 174.5t176 84.5zM121 242q0 -45 11 -85.5t31.5 -71.5t49.5 -49t64 -18q32 0 56 15.5t40.5 43.5t24.5 65t8 81q0 50 -11.5 91.5
t-32.5 71t-49.5 45.5t-62.5 16q-32 0 -56.5 -15.5t-40.5 -43t-24 -65t-8 -81.5z" />
    <glyph glyph-name="p" unicode="p" horiz-adv-x="532" 
d="M262 -15q-25 0 -49 6.5t-44 20.5v-215l105 -8l-2 -20l-141 2l-110 -2l-2 20l70 8v631l-71 -12l-3 19l127 35l23 2l3 -89l136 98q46 0 81.5 -16.5t60.5 -46.5t38 -71.5t13 -91.5q0 -116 -61.5 -182.5t-173.5 -87.5zM411 222q0 42 -8 78t-23 62.5t-36.5 41.5t-48.5 15
q-25 0 -47 -12t-52 -33l-27 -19v-283q16 -25 44 -40t63 -15q61 1 98 56t37 149z" />
    <glyph glyph-name="q" unicode="q" horiz-adv-x="519" 
d="M121 244q0 -42 8.5 -78t24 -62t38.5 -41t52 -15q25 0 41.5 7.5t32.5 17.5l45 31v282q-12 29 -35.5 46.5t-61.5 17.5q-31 0 -57.5 -13t-46 -39t-30.5 -64.5t-11 -89.5zM400 -229l-139 -2l-3 20l105 8v277l-131 -89q-42 0 -78.5 16t-62.5 45t-41 71t-15 95q0 57 18 103.5
t50.5 80.5t78 55.5t100.5 29.5q35 0 65.5 -11t57.5 -28l28 34h10v-679l71 -8l-3 -20z" />
    <glyph glyph-name="r" unicode="r" horiz-adv-x="374" 
d="M180 333l109 143h69v-89h-87q-5 -1 -14 -7.5t-19 -15.5t-19.5 -19t-14.5 -16l-22 -29v-271l99 -8l-3 -22l-135 2l-106 -2l-2 20l69 8v400l-71 -11l-3 19l128 35l22 2v-139z" />
    <glyph glyph-name="s" unicode="s" horiz-adv-x="395" 
d="M282 421q-15 13 -36.5 20.5t-48.5 7.5q-32 0 -55 -17t-23 -49q0 -29 20.5 -47t53.5 -38l79 -44q50 -28 69.5 -56t18.5 -69q0 -59 -45.5 -92t-126.5 -52q-22 0 -44 4.5t-41.5 11.5t-36 15t-26.5 15l-10 114h35l44 -94q17 -14 39 -23.5t50 -9.5q45 0 65.5 23.5t20.5 54.5
q0 36 -19.5 55t-60.5 43l-79 45q-14 8 -28.5 18.5t-26 24t-18.5 30.5t-7 39q0 51 43 80.5t120 49.5q41 0 78 -13t62 -29v-108h-30z" />
    <glyph glyph-name="t" unicode="t" horiz-adv-x="333" 
d="M5 434v13l17 16h73v72l68 54h9v-130h151v-25h-150v-323q0 -28 13 -46t44 -18q25 0 44 7t41 18l10 -19l-121 -68q-39 0 -61.5 8.5t-33.5 25t-13.5 39.5t-2.5 52v324h-88z" />
    <glyph glyph-name="u" unicode="u" horiz-adv-x="548" 
d="M454 128q0 -32 3.5 -52t9.5 -39l54 3l2 -19l-125 -25l-22 88l-159 -99q-43 1 -69 9.5t-40 27.5t-18.5 47.5t-4.5 68.5v290l-72 -7l-3 22l129 25l26 2v-339q0 -45 17 -64.5t51 -19.5q26 0 51.5 13t54.5 33l35 21v314l-66 -7l-2 22l123 25l25 2v-342z" />
    <glyph glyph-name="v" unicode="v" horiz-adv-x="532" 
d="M289 51l133 388l-60 8l3 19l85 -1l75 1l2 -19l-63 -8l-159 -422l-65 -33l-174 455l-61 8l3 19l106 -1l102 1l3 -19l-64 -8l120 -330z" />
    <glyph glyph-name="w" unicode="w" horiz-adv-x="822" 
d="M421 289l-10 54l-114 -326l-70 -32l-161 454l-61 8l3 19l103 -1l96 1l3 -19l-58 -8l112 -333l14 -53l112 326l-21 60l-49 8l3 19l91 -1l96 1l2 -19l-58 -8l114 -336l12 -50l133 386l-60 8l3 19l74 -1l84 1l3 -19l-63 -8l-154 -422l-71 -32z" />
    <glyph glyph-name="x" unicode="x" horiz-adv-x="526" 
d="M195 19l-3 -20l-85 2l-94 -2l-2 20l75 8l148 192l-149 219l-59 8l3 20l111 -1l82 1l2 -20l-36 -8l86 -134l13 -25l109 159l-70 8l2 20l86 -1l95 1l2 -20l-76 -8l-131 -175l156 -236l61 -8l-3 -20l-107 2l-88 -2l-3 20l39 8l-96 147l-12 24l-123 -171z" />
    <glyph glyph-name="y" unicode="y" horiz-adv-x="529" 
d="M87 -235v86h89l101 174l-47 -21l-164 435l-61 8l3 19l106 -1l102 1l3 -19l-64 -8l119 -330l12 -54l133 384l-59 8l3 19l83 -1l76 1l2 -19l-64 -8l-154 -414l-115 -260h-104z" />
    <glyph glyph-name="z" unicode="z" horiz-adv-x="454" 
d="M42 0l-6 18l265 387l34 38l-199 -2l-50 -114h-22v139h354l7 -19l-267 -391l-29 -33l213 2l60 116h23l-14 -141h-369z" />
    <glyph glyph-name="braceleft" unicode="{" horiz-adv-x="341" 
d="M51 256q24 9 37.5 22t20 30t7.5 36t1 40v191q0 64 36.5 102t95.5 38h48v-19h-51q-13 0 -25.5 -5.5t-22.5 -18t-15.5 -33t-5.5 -50.5l3 -203q0 -17 -3 -34.5t-12 -33.5t-24.5 -30.5t-39.5 -26.5l79 -50l-3 -315q0 -30 6 -50.5t16.5 -33t23.5 -18t27 -5.5h50v-19h-47
q-61 0 -98.5 38t-37.5 102v286l-66 53v7v0z" />
    <glyph glyph-name="bar" unicode="|" horiz-adv-x="259" 
d="M110 718h39v-963h-39v963z" />
    <glyph glyph-name="braceright" unicode="}" horiz-adv-x="341" 
d="M161 121q0 18 3 35t12 33.5t24.5 30.5t39.5 26l-79 50l3 293q0 30 -6 50.5t-16 33t-23.5 18t-26.5 5.5h-51v19h49q60 0 97.5 -38t37.5 -102l-1 -264l66 -53v-7q-24 -9 -37.5 -22t-20 -30t-7.5 -36t-1 -40l1 -213q0 -64 -37.5 -102t-95.5 -38h-47v19h50q13 0 26 5.5
t22.5 18t15.5 33t5 50.5q0 -2 0 14t-0.5 41.5t-1 55.5t-1 56t-0.5 42.5t0 15.5z" />
    <glyph glyph-name="asciitilde" unicode="~" horiz-adv-x="669" 
d="M599 318h20l-39 -89l-93 -19l-373 58l-44 -70h-20l38 89l96 19l371 -56z" />
    <glyph glyph-name="exclamdown" unicode="&#xa1;" horiz-adv-x="249" 
d="M86 57l30 197h18l30 -196l4 -299h-87zM105 376l-25 4l-4 48l5 41l63 5l25 -5l4 -49l-6 -40z" />
    <glyph glyph-name="cent" unicode="&#xa2;" horiz-adv-x="447" 
d="M422 76q-17 -14 -41 -29t-47 -28q-26 -15 -55 -30v-69h-27v65q-45 2 -84 18.5t-67.5 46.5t-44.5 72.5t-16 96.5q0 56 18 99t48 74.5t69.5 52t82.5 31.5v70h27v-67q38 -2 72.5 -16.5t55.5 -32.5v-88h-62l-32 92q-13 7 -26 10t-30 3q-30 0 -56 -12.5t-45.5 -37t-30.5 -60.5
t-11 -82q0 -44 12 -81t34.5 -65t54.5 -43.5t71 -15.5q32 0 62.5 12.5t60.5 33.5l7 -20v0z" />
    <glyph glyph-name="sterling" unicode="&#xa3;" horiz-adv-x="559" 
d="M330 684q-55 0 -86 -38.5t-31 -97.5v-179h187v-28h-187v-177q0 -35 -3.5 -59t-9 -39t-11.5 -24t-12 -14l262 2l54 128h26l-12 -158l-332 2l-133 -2l-3 22l95 27v292h-87v13l29 15h58v115q0 49 8.5 85t31.5 63t64 46.5t107 36.5q52 0 85.5 -12.5t51.5 -34.5v-118h-34
l-30 93q-20 21 -39 31t-49 10z" />
    <glyph glyph-name="currency" unicode="&#xa4;" 
d="M103 350q0 38 13 72.5t36 61.5l-67 68l31 31l68 -69q26 21 58.5 33.5t69.5 12.5q36 0 68 -12t59 -32l66 66l31 -32l-65 -65q23 -27 37 -61.5t14 -73.5q0 -36 -12 -68.5t-33 -59.5l60 -59l-31 -31l-59 59q-28 -24 -62 -37t-73 -13t-73.5 13.5t-62.5 36.5l-61 -61l-32 31
l63 63q-20 26 -31.5 58t-11.5 68zM139 350q0 -36 13.5 -67.5t37 -55t55 -37.5t67.5 -14q35 0 66.5 13.5t55 37.5t37.5 55.5t14 67.5t-13.5 68t-37 55.5t-55 37.5t-67.5 14t-67.5 -14t-55 -37.5t-37 -55.5t-13.5 -68z" />
    <glyph glyph-name="yen" unicode="&#xa5;" horiz-adv-x="669" 
d="M297 270v1l-199 402l-78 8l3 20l134 -2l131 2l2 -20l-89 -9l156 -334l12 -31l158 364l-96 10l3 20l116 -2l96 2l3 -19l-78 -9l-184 -394v-9h132v-25h-131v-69h131v-26h-131v-121l113 -10l-2 -20l-157 2l-160 -2l-2 20l117 10v121h-129v26h129v69h-129v25h129z" />
    <glyph glyph-name="brokenbar" unicode="&#xa6;" horiz-adv-x="259" 
d="M110 718h39v-430h-39v430zM110 185h39v-430h-39v430z" />
    <glyph glyph-name="section" unicode="&#xa7;" horiz-adv-x="523" 
d="M40 258q0 30 9.5 54t25.5 43t37 33t45 25q-14 14 -26 27.5t-21 28.5t-14 32.5t-5 39.5q0 66 51 111.5t143 62.5q52 0 89.5 -13t56.5 -36v-110h-30l-29 85q-15 20 -38.5 32t-58.5 12q-22 0 -43.5 -5t-38 -16.5t-27 -31t-10.5 -47.5q0 -25 9.5 -46.5t29 -43t49.5 -45.5
t71 -54l168 -119v-38q0 -42 -11.5 -73.5t-30.5 -54.5t-42.5 -39t-48.5 -27q5 -4 16 -13t23 -18.5t21.5 -19t11.5 -15.5q1 -3 2 -9t1.5 -13.5t1 -14.5t0.5 -11q0 -38 -14 -67t-39.5 -50.5t-60 -36t-75.5 -22.5q-24 0 -47.5 5t-45 13t-39 18t-29.5 20v118h30l30 -88
q8 -9 19.5 -18.5t25.5 -17.5t32 -13.5t39 -5.5q49 0 79.5 27.5t28.5 86.5q0 14 -20.5 36t-47.5 44t-52 40.5t-34 25.5q-36 27 -67 53t-53 51.5t-34.5 52t-12.5 55.5zM272 319q-26 20 -52 39t-50 41q-27 -11 -45 -32t-18 -61q0 -28 12 -51.5t32.5 -45.5t47 -43t56.5 -44
l82 -64q15 9 30 21t26 28.5t18 38.5t7 51v15z" />
    <glyph glyph-name="dieresis" unicode="&#xa8;" horiz-adv-x="500" 
d="M179 681l22 -4l5 -43l-9 -37l-54 -5l-22 5l-4 44l8 36zM350 681l22 -4l5 -43l-9 -37l-54 -5l-22 5l-4 44l8 36z" />
    <glyph glyph-name="copyright" unicode="&#xa9;" horiz-adv-x="834" 
d="M416 12q62 0 119 22.5t100.5 65t69 104.5t25.5 140q0 89 -31 154t-77.5 107.5t-101.5 63t-102 20.5q-62 0 -118.5 -22.5t-100 -65.5t-69.5 -105t-26 -140q0 -89 31 -153.5t77.5 -107t101.5 -63t102 -20.5zM418 -15q-74 1 -140.5 26t-117 72.5t-80.5 116t-30 156.5
q0 79 26.5 140.5t74.5 106t115.5 72.5t149.5 40q74 -1 140.5 -26t117 -72.5t80.5 -116t30 -156.5q0 -79 -26.5 -140.5t-74.5 -106t-115.5 -72.5t-149.5 -40zM583 271l-8 -89q-31 -12 -68 -24t-78 -17q-42 0 -80.5 13t-68.5 38.5t-47.5 63.5t-17.5 87t16 87t45 65t69.5 42.5
t90.5 21.5q48 0 84 -12t59 -26v-86h-20l-31 67q-14 14 -37 25.5t-57 11.5q-62 0 -102.5 -46t-40.5 -138q0 -37 9.5 -71.5t28.5 -61.5t48 -43t67 -16q26 0 47 10t33 21l38 77h21z" />
    <glyph glyph-name="ordfeminine" unicode="&#xaa;" horiz-adv-x="417" 
d="M198 716q38 0 61.5 -6t37.5 -21t19 -39t5 -61v-170q0 -23 4.5 -38.5t10.5 -29.5l44 3l2 -16l-103 -20l-20 68l-107 -76q-50 0 -81 26t-31 74q0 20 7.5 39t27.5 39l181 60v45q0 18 -1 33.5t-7 27.5t-19 18.5t-37 6.5q-15 0 -30 -3.5t-32 -8.5l-17 -76h-60v59zM256 529
l-120 -49q-28 -22 -28 -58q0 -32 16 -48t39 -16q19 0 35.5 8.5t26.5 15.5l31 23v124z" />
    <glyph glyph-name="guillemotleft" unicode="&#xab;" horiz-adv-x="422" 
d="M369 15l-181 220l182 220h22l-129 -220l129 -220h-23zM196 15l-181 220l182 220h23l-129 -220l129 -220h-24z" />
    <glyph glyph-name="logicalnot" unicode="&#xac;" 
d="M567 180h-41v143h-473v42h514v-185z" />
    <glyph glyph-name="softhyphen" unicode="&#xad;" horiz-adv-x="365" 
d="M36 297h293v-45h-293v45z" />
    <glyph glyph-name="registered" unicode="&#xae;" horiz-adv-x="591" 
d="M297 185q-51 0 -96.5 17.5t-80 50t-55 79.5t-20.5 107q0 54 18 96t51 72.5t79 50t102 27.5q50 0 95.5 -17.5t80 -49.5t55 -79.5t20.5 -107.5q0 -54 -18 -96t-50.5 -72.5t-78.5 -50t-102 -27.5zM295 205q42 0 80 15t67 44t46 71t17 96q0 61 -20.5 105t-52 73t-68 43
t-67.5 14q-42 0 -80 -15t-67 -44.5t-46.5 -71.5t-17.5 -96q0 -60 21 -104.5t52 -73t67.5 -42.5t68.5 -14zM165 314l33 4v239l-33 3l1 12h147q37 0 64 -16t27 -50q0 -33 -29.5 -50.5t-73.5 -23.5l52 -15l67 -99l20 -4v-12h-77l-78 119l-6 7h-25v-110l32 -4l-1 -12h-119z
M254 442h25q29 0 46.5 16t17.5 45q0 27 -16 42t-39 15l-34 -3v-115z" />
    <glyph glyph-name="macron" unicode="&#xaf;" horiz-adv-x="500" 
d="M111 670h279v-39h-279v39z" />
    <glyph glyph-name="degree" unicode="&#xb0;" horiz-adv-x="417" 
d="M96 601q0 -22 9 -42.5t24.5 -36t36 -24.5t43.5 -9q24 0 44.5 9t35.5 24.5t23.5 36t8.5 42.5t-9 42t-24 35t-35.5 24t-43.5 9q-24 0 -45 -9t-36 -24t-23.5 -35t-8.5 -42zM209 447q-31 0 -59 12t-49 33t-33.5 49t-12.5 59t10.5 55t30.5 42t48.5 31.5t64.5 24.5
q31 0 58.5 -12t48.5 -33t33.5 -49t12.5 -59q0 -63 -36 -99t-117 -54z" />
    <glyph glyph-name="plusminus" unicode="&#xb1;" 
d="M284 141v232h-237v42h237v241h42v-241h237v-42h-237v-232h-42zM47 42h527v-42h-527v42z" />
    <glyph glyph-name="twosuperior" unicode="&#xb2;" horiz-adv-x="349" 
d="M120 460h194v-15l-20 -45h-269l-10 16l88 88q61 60 88 104t27 85q0 34 -16.5 53.5t-42.5 19.5q-22 0 -40 -8l-22 -78h-60v68l135 46q63 0 95 -28t32 -69q0 -27 -9.5 -51t-27.5 -46.5t-45 -45.5t-63 -48l-81 -56z" />
    <glyph glyph-name="threesuperior" unicode="&#xb3;" horiz-adv-x="310" 
d="M167 461q19 14 27 30t8 33q0 30 -26 51t-78 21l-4 13l29 15q38 17 51.5 36t13.5 47q0 27 -14 42.5t-35 15.5q-10 0 -19 -2.5t-16 -5.5l-20 -70h-59v63l137 44q28 0 47 -6t31 -16t17 -22.5t5 -25.5q0 -29 -22.5 -52.5t-76.5 -40.5q28 -1 50 -8.5t37 -19.5t22.5 -27
t7.5 -30q0 -22 -9.5 -38t-26 -29.5t-38.5 -24.5t-47 -22l-73 -33h-61v62h142v0z" />
    <glyph glyph-name="acute" unicode="&#xb4;" horiz-adv-x="500" 
d="M143 542l55 172h92l-127 -172h-20z" />
    <glyph glyph-name="uni00B5" unicode="&#xb5;" 
d="M461 466v-408q0 -6 7.5 -12.5t18.5 -12t24 -9.5t24 -7l-2 -17h-110l-41 83l-146 -98q-40 0 -74.5 11.5t-44.5 44.5v-70l63 -201h-95v696h80v-317q0 -55 21.5 -78.5t55.5 -23.5q25 0 49.5 14t54.5 32l35 21v352h80z" />
    <glyph glyph-name="paragraph" unicode="&#xb6;" horiz-adv-x="474" 
d="M178 412q-30 0 -57 9t-47 25.5t-32 40.5t-12 54q0 25 11.5 46.5t31.5 41t46.5 37t56.5 34.5h258v-28l-50 -8v-823h-37v824h-131v-824h-38v571z" />
    <glyph glyph-name="periodcentered" unicode="&#xb7;" horiz-adv-x="215" 
d="M128 455l27 -4l5 -51l-6 -44l-68 -5l-26 5l-5 52l6 43z" />
    <glyph glyph-name="cedilla" unicode="&#xb8;" horiz-adv-x="500" 
d="M289 6l14 -9l-29 -46q31 -2 56.5 -20t25.5 -51q0 -21 -8 -37t-21 -28t-28 -20t-28 -13l-61 -22h-41l27 37h76q16 10 23.5 27.5t7.5 34.5q0 16 -6.5 27t-17.5 18t-24.5 10.5t-26.5 4.5z" />
    <glyph glyph-name="onesuperior" unicode="&#xb9;" horiz-adv-x="283" 
d="M33 719l-8 15l140 55h23v-366l85 -6l-2 -17l-119 1l-120 -1l-2 17l85 6v306l2 16l-24 -12z" />
    <glyph glyph-name="ordmasculine" unicode="&#xba;" horiz-adv-x="436" 
d="M227 716q39 0 71 -14.5t55 -40.5t35.5 -61t12.5 -75q0 -90 -50 -141t-141 -67q-39 0 -71 14.5t-55.5 40t-36 60t-12.5 75.5q0 91 50 141.5t142 67.5zM208 688q-26 0 -45.5 -12.5t-32.5 -34.5t-19.5 -52t-6.5 -65q0 -36 9 -69t25 -58t39 -39.5t52 -14.5q26 0 45.5 12.5
t32.5 35t19.5 52.5t6.5 65q0 82 -35 131t-90 49z" />
    <glyph glyph-name="guillemotright" unicode="&#xbb;" horiz-adv-x="422" 
d="M30 15l129 220l-129 220h23l182 -220l-181 -220h-24zM203 15l129 220l-129 220h22l182 -220l-181 -220h-23z" />
    <glyph glyph-name="onequarter" unicode="&#xbc;" horiz-adv-x="792" 
d="M220 -50h-41l387 760h39zM127 660l-23 -12l-61 -14l-8 15l140 55h23v-366l85 -6l-2 -17l-119 1l-120 -1l-2 17l85 6v307zM678 142h79v-31h-79v-111h-68v111h-160l-14 22l188 252h76v-18l-231 -230l35 5h106v76l52 38l16 4v-118z" />
    <glyph glyph-name="onehalf" unicode="&#xbd;" horiz-adv-x="820" 
d="M101 648l-58 -14l-8 15l140 55h23v-366l85 -6l-2 -17l-119 1l-120 -1l-2 17l85 6v306l2 16zM220 -50h-41l387 760h39zM597 60h188v-15l-19 -45h-270l-9 16l87 88q61 60 88.5 104t27.5 85q0 35 -16.5 54t-42.5 19q-23 0 -41 -8l-21 -78h-61v68l135 46q63 0 95.5 -28
t32.5 -69q0 -27 -9.5 -51t-28 -46.5t-45.5 -45.5t-63 -48l-80 -56z" />
    <glyph glyph-name="threequarters" unicode="&#xbe;" horiz-adv-x="778" 
d="M206 -50h-41l387 760h39zM664 142h79v-31h-79v-111h-68v111h-160l-14 22l188 252h76v-18l-231 -230l32 5h109v76l52 37l16 5v-118zM35 376h142q19 14 27 30t8 33q0 30 -26 51t-78 21l-4 13l29 15q38 17 51.5 36t13.5 47q0 27 -14 42.5t-35 15.5q-10 0 -19 -2.5t-16 -5.5
l-20 -70h-59v63l137 44q28 0 47 -6t31 -16t17 -22.5t5 -25.5q0 -29 -22.5 -52.5t-76.5 -40.5q28 -1 50 -8.5t36.5 -19.5t22 -27t7.5 -30q0 -22 -9.5 -38t-25.5 -29.5t-38 -24.5t-47 -22l-73 -33h-61v62z" />
    <glyph glyph-name="questiondown" unicode="&#xbf;" horiz-adv-x="368" 
d="M192 123l5 121h39l9 -129l-40 -26q-51 -35 -74.5 -75.5t-23.5 -94.5q0 -27 5.5 -50.5t19 -42t35 -29.5t53.5 -12l29 100h59v-116l-88 -13q-54 3 -92 18.5t-62 39t-35 51.5t-11 57q0 65 30.5 105t87.5 69zM193 374l-25 4l-4 47l5 42l63 5l25 -5l4 -49l-6 -40z" />
    <glyph glyph-name="Agrave" unicode="&#xc0;" horiz-adv-x="721" 
d="M338 767l-123 133h94l60 -133h-31zM8 19l80 9l246 660l48 22l253 -682l78 -9l-2 -20l-128 2l-133 -2l-2 20l87 10l-76 217h-252l-76 -217l88 -10l-2 -20l-107 2l-99 -2zM448 275l-79 221l-33 117l-119 -338h231z" />
    <glyph glyph-name="Aacute" unicode="&#xc1;" horiz-adv-x="721" 
d="M355 767l60 133h94l-124 -133h-30zM8 19l80 9l246 660l48 22l253 -682l78 -9l-2 -20l-128 2l-133 -2l-2 20l87 10l-76 217h-252l-76 -217l88 -10l-2 -20l-107 2l-99 -2zM448 275l-79 221l-33 117l-119 -338h231z" />
    <glyph glyph-name="Acircumflex" unicode="&#xc2;" horiz-adv-x="721" 
d="M335 903h46l117 -136h-30l-104 76l-7 6l-5 -6l-103 -76h-30zM8 19l80 9l246 660l48 22l253 -682l78 -9l-2 -20l-128 2l-133 -2l-2 20l87 10l-76 217h-252l-76 -217l88 -10l-2 -20l-107 2l-99 -2zM448 275l-79 221l-33 117l-119 -338h231z" />
    <glyph glyph-name="Atilde" unicode="&#xc3;" horiz-adv-x="721" 
d="M238 866l67 21l175 -67l33 70h15l-24 -96l-68 -22l-174 68l-34 -71h-15zM8 19l80 9l246 660l48 22l253 -682l78 -9l-2 -20l-128 2l-133 -2l-2 20l87 10l-76 217h-252l-76 -217l88 -10l-2 -20l-107 2l-99 -2zM448 275l-79 221l-33 117l-119 -338h231z" />
    <glyph glyph-name="Adieresis" unicode="&#xc4;" horiz-adv-x="721" 
d="M209 791l-5 44l8 36l54 5l23 -5l4 -42l-8 -38l-54 -4zM424 791l-4 44l8 36l54 5l22 -5l5 -42l-8 -38l-54 -4zM8 19l80 9l246 660l48 22l253 -682l78 -9l-2 -20l-128 2l-133 -2l-2 20l87 10l-76 217h-252l-76 -217l88 -10l-2 -20l-107 2l-99 -2zM448 275l-79 221l-33 117
l-119 -338h231z" />
    <glyph glyph-name="Aring" unicode="&#xc5;" horiz-adv-x="721" 
d="M353 755q29 0 47.5 18t18.5 48q0 31 -18.5 49t-47.5 18t-47 -18t-18 -49q0 -30 18 -48t47 -18zM354 914q18 0 36 -5t32 -16t23 -28t9 -41q0 -23 -8.5 -38t-22.5 -25.5t-32.5 -18t-37.5 -13.5q-18 0 -36 5t-32.5 16t-23 28.5t-8.5 41.5q0 23 8.5 38t22.5 25.5t32 17.5
t38 13zM8 19l80 9l246 660l48 22l253 -682l78 -9l-2 -20l-128 2l-133 -2l-2 20l87 10l-76 217h-252l-76 -217l88 -10l-2 -20l-107 2l-99 -2zM448 275l-79 221l-33 117l-119 -338h231z" />
    <glyph glyph-name="AE" unicode="&#xc6;" horiz-adv-x="977" 
d="M511 349v317l-188 -317h188zM5 19l79 9l422 673l52 -2l372 2l5 -179h-20l-59 150l-253 1v-324l130 2l41 111h20l-5 -122l5 -127h-20l-41 110l-130 2v-298l262 2l65 155h21l-17 -185l-376 2l-133 -2l-3 20l89 10v295h-203l-180 -295l83 -10l-2 -20l-105 2l-96 -2z" />
    <glyph glyph-name="Ccedilla" unicode="&#xc7;" horiz-adv-x="687" 
d="M284 -203h77q15 10 23 27.5t8 34.5q0 16 -7 27t-17.5 18t-24 10.5t-26.5 4.5l46 66q-64 4 -122.5 29.5t-102.5 70.5t-70.5 109t-26.5 147q0 85 26.5 151t74.5 113.5t114.5 75t146.5 36.5q37 0 71.5 -6t64.5 -16t55 -21.5t44 -23.5v-141h-29l-45 112q-24 24 -65 45
t-103 21q-54 0 -100.5 -20.5t-80.5 -62t-53.5 -103t-19.5 -142.5q0 -64 17 -125.5t51 -109.5t85.5 -77.5t121.5 -29.5q45 0 82 19t58 39l57 126h30l-14 -145q-42 -20 -97.5 -40t-109.5 -28q-8 -2 -19.5 -2.5t-19.5 -2.5l-21 -32q30 -2 56 -20t26 -51q0 -21 -8.5 -37t-21 -28
t-28 -20t-28.5 -13l-60 -22h-41z" />
    <glyph glyph-name="Egrave" unicode="&#xc8;" horiz-adv-x="613" 
d="M203 900h94l59 -133h-30zM30 19l89 10v643l-89 9l2 20l138 -2l393 2l4 -178h-18l-60 149l-280 1v-294l159 2l41 111h19l-5 -122l5 -128h-19l-41 110l-159 2v-327l289 2l66 153h20l-18 -183l-396 2l-138 -2z" />
    <glyph glyph-name="Eacute" unicode="&#xc9;" horiz-adv-x="613" 
d="M368 900h94l-123 -133h-31zM30 19l89 10v643l-89 9l2 20l138 -2l393 2l4 -178h-18l-60 149l-280 1v-294l159 2l41 111h19l-5 -122l5 -128h-19l-41 110l-159 2v-327l289 2l66 153h20l-18 -183l-396 2l-138 -2z" />
    <glyph glyph-name="Ecircumflex" unicode="&#xca;" horiz-adv-x="613" 
d="M320 903h47l116 -136h-30l-104 76l-6 6l-6 -6l-103 -76h-29zM30 19l89 10v643l-89 9l2 20l138 -2l393 2l4 -178h-18l-60 149l-280 1v-294l159 2l41 111h19l-5 -122l5 -128h-19l-41 110l-159 2v-327l289 2l66 153h20l-18 -183l-396 2l-138 -2z" />
    <glyph glyph-name="Edieresis" unicode="&#xcb;" horiz-adv-x="613" 
d="M197 791l-5 44l8 36l55 5l22 -5l4 -42l-9 -38l-54 -4zM413 791l-5 44l8 36l55 5l22 -5l4 -42l-9 -38l-54 -4zM30 19l89 10v643l-89 9l2 20l138 -2l393 2l4 -178h-18l-60 149l-280 1v-294l159 2l41 111h19l-5 -122l5 -128h-19l-41 110l-159 2v-327l289 2l66 153h20
l-18 -183l-396 2l-138 -2z" />
    <glyph glyph-name="Igrave" unicode="&#xcc;" horiz-adv-x="331" 
d="M173 767l-123 133h94l60 -133h-31zM167 1l-132 -2l-2 21l89 9v643l-89 9l2 20l132 -2l132 2l2 -20l-89 -9v-643l89 -9l-2 -21z" />
    <glyph glyph-name="Iacute" unicode="&#xcd;" horiz-adv-x="331" 
d="M152 767l60 133h94l-123 -133h-31zM167 1l-132 -2l-2 21l89 9v643l-89 9l2 20l132 -2l132 2l2 -20l-89 -9v-643l89 -9l-2 -21z" />
    <glyph glyph-name="Icircumflex" unicode="&#xce;" horiz-adv-x="331" 
d="M28 767l115 136h47l116 -136h-29l-104 76l-7 6l-5 -6l-103 -76h-30zM167 1l-132 -2l-2 21l89 9v643l-89 9l2 20l132 -2l132 2l2 -20l-89 -9v-643l89 -9l-2 -21z" />
    <glyph glyph-name="Idieresis" unicode="&#xcf;" horiz-adv-x="331" 
d="M83 876l22 -5l5 -42l-9 -38l-54 -4l-22 4l-4 44l7 36zM287 876l23 -5l4 -42l-9 -38l-54 -4l-22 4l-4 44l8 36zM167 1l-132 -2l-2 21l89 9v643l-89 9l2 20l132 -2l132 2l2 -20l-89 -9v-643l89 -9l-2 -21z" />
    <glyph glyph-name="Eth" unicode="&#xd0;" horiz-adv-x="726" 
d="M30 19l93 10v325h-83v22h83v296l-93 9l2 20l148 -2l174 2q76 0 137.5 -22t104.5 -65t66.5 -105t23.5 -143q0 -80 -21.5 -145t-64 -112.5t-105.5 -75.5t-147 -34l-168 2l-148 -2zM344 25q54 0 98.5 23.5t76.5 67t49.5 105t17.5 137.5q0 68 -15.5 126t-48 101t-82 67.5
t-117.5 24.5l-110 -6v-295h136v-22h-136v-321z" />
    <glyph glyph-name="Ntilde" unicode="&#xd1;" horiz-adv-x="718" 
d="M256 866l67 21l174 -67l34 70h15l-25 -96l-66 -22l-175 68l-34 -71h-14zM179 593l-23 55v-619l88 -10l-3 -20l-99 2l-110 -2l-2 20l89 10v638l-87 14l3 20l95 -2l80 2l350 -531l22 -43v545l-87 9l2 20l99 -2l109 2l3 -20l-90 -9v-676h-50z" />
    <glyph glyph-name="Ograve" unicode="&#xd2;" horiz-adv-x="764" 
d="M387 767l-123 133h94l60 -133h-31zM392 717q73 0 134 -27t105 -74.5t68.5 -112t24.5 -139.5q0 -163 -86.5 -258.5t-265.5 -122.5q-73 0 -134 27t-104.5 74.5t-68 112t-24.5 139.5q0 163 86 258.5t265 122.5zM142 367q0 -67 16.5 -129.5t49 -111t80.5 -78t112 -29.5
q55 0 97 24.5t70 67t42 100t14 123.5t-16.5 128.5t-49 111t-80.5 78t-112 29.5q-56 0 -97.5 -24.5t-69.5 -66.5t-42 -99.5t-14 -123.5z" />
    <glyph glyph-name="Oacute" unicode="&#xd3;" horiz-adv-x="764" 
d="M355 767l60 133h94l-123 -133h-31zM392 717q73 0 134 -27t105 -74.5t68.5 -112t24.5 -139.5q0 -163 -86.5 -258.5t-265.5 -122.5q-73 0 -134 27t-104.5 74.5t-68 112t-24.5 139.5q0 163 86 258.5t265 122.5zM142 367q0 -67 16.5 -129.5t49 -111t80.5 -78t112 -29.5
q55 0 97 24.5t70 67t42 100t14 123.5t-16.5 128.5t-49 111t-80.5 78t-112 29.5q-56 0 -97.5 -24.5t-69.5 -66.5t-42 -99.5t-14 -123.5z" />
    <glyph glyph-name="Ocircumflex" unicode="&#xd4;" horiz-adv-x="764" 
d="M246 767l115 136h47l116 -136h-30l-103 76l-7 6l-6 -6l-103 -76h-29zM392 717q73 0 134 -27t105 -74.5t68.5 -112t24.5 -139.5q0 -163 -86.5 -258.5t-265.5 -122.5q-73 0 -134 27t-104.5 74.5t-68 112t-24.5 139.5q0 163 86 258.5t265 122.5zM142 367q0 -67 16.5 -129.5
t49 -111t80.5 -78t112 -29.5q55 0 97 24.5t70 67t42 100t14 123.5t-16.5 128.5t-49 111t-80.5 78t-112 29.5q-56 0 -97.5 -24.5t-69.5 -66.5t-42 -99.5t-14 -123.5z" />
    <glyph glyph-name="Otilde" unicode="&#xd5;" horiz-adv-x="764" 
d="M268 866l66 21l175 -67l34 70h14l-24 -96l-67 -22l-175 68l-33 -71h-15zM392 717q73 0 134 -27t105 -74.5t68.5 -112t24.5 -139.5q0 -163 -86.5 -258.5t-265.5 -122.5q-73 0 -134 27t-104.5 74.5t-68 112t-24.5 139.5q0 163 86 258.5t265 122.5zM142 367
q0 -67 16.5 -129.5t49 -111t80.5 -78t112 -29.5q55 0 97 24.5t70 67t42 100t14 123.5t-16.5 128.5t-49 111t-80.5 78t-112 29.5q-56 0 -97.5 -24.5t-69.5 -66.5t-42 -99.5t-14 -123.5z" />
    <glyph glyph-name="Odieresis" unicode="&#xd6;" horiz-adv-x="764" 
d="M245 871l54 5l22 -5l5 -42l-9 -38l-54 -4l-22 4l-5 44zM461 871l54 5l22 -5l5 -42l-9 -38l-54 -4l-22 4l-5 44zM392 717q73 0 134 -27t105 -74.5t68.5 -112t24.5 -139.5q0 -163 -86.5 -258.5t-265.5 -122.5q-73 0 -134 27t-104.5 74.5t-68 112t-24.5 139.5
q0 163 86 258.5t265 122.5zM142 367q0 -67 16.5 -129.5t49 -111t80.5 -78t112 -29.5q55 0 97 24.5t70 67t42 100t14 123.5t-16.5 128.5t-49 111t-80.5 78t-112 29.5q-56 0 -97.5 -24.5t-69.5 -66.5t-42 -99.5t-14 -123.5z" />
    <glyph glyph-name="multiply" unicode="&#xd7;" 
d="M485 25l-175 176l-175 -176l-30 29l176 175l-176 176l30 29l175 -175l174 175l30 -29l-175 -176l175 -174z" />
    <glyph glyph-name="Oslash" unicode="&#xd8;" horiz-adv-x="764" 
d="M392 717q60 0 112 -18.5t94 -52.5l54 69h32l-66 -86q50 -48 78 -116t28 -149q0 -163 -86.5 -258.5t-265.5 -122.5q-59 0 -109.5 17t-91.5 49l-50 -64h-35l64 83q-52 48 -80.5 117t-28.5 151q0 163 86 258.5t265 122.5zM142 367q0 -64 15 -124t45 -108l348 449
q-32 45 -78.5 71t-106.5 26q-56 0 -97.5 -24.5t-69.5 -66.5t-42 -99.5t-14 -123.5zM623 334q0 62 -14.5 120.5t-43.5 106.5l-347 -450q32 -42 77.5 -67t104.5 -25q55 0 97 24.5t70 67t42 100t14 123.5z" />
    <glyph glyph-name="Ugrave" unicode="&#xd9;" horiz-adv-x="690" 
d="M368 767l-123 133h94l60 -133h-31zM455 681l2 20l111 -2l106 2l3 -20l-86 -9v-430q0 -48 -10.5 -89t-37.5 -74t-73.5 -57.5t-117.5 -38.5q-69 0 -117 19t-77.5 54t-43 83.5t-13.5 107.5v425l-89 9l2 20l135 -2l129 2l3 -20l-87 -9v-440q0 -46 11 -84t33.5 -65.5
t56.5 -42.5t79 -15q80 0 124.5 57t44.5 152v438z" />
    <glyph glyph-name="Uacute" unicode="&#xda;" horiz-adv-x="690" 
d="M339 767l60 133h94l-124 -133h-30zM455 681l2 20l111 -2l106 2l3 -20l-86 -9v-430q0 -48 -10.5 -89t-37.5 -74t-73.5 -57.5t-117.5 -38.5q-69 0 -117 19t-77.5 54t-43 83.5t-13.5 107.5v425l-89 9l2 20l135 -2l129 2l3 -20l-87 -9v-440q0 -46 11 -84t33.5 -65.5
t56.5 -42.5t79 -15q80 0 124.5 57t44.5 152v438z" />
    <glyph glyph-name="Ucircumflex" unicode="&#xdb;" horiz-adv-x="690" 
d="M481 767l-104 76l-7 6l-5 -6l-103 -76h-30l115 136h47l116 -136h-29zM455 681l2 20l111 -2l106 2l3 -20l-86 -9v-430q0 -48 -10.5 -89t-37.5 -74t-73.5 -57.5t-117.5 -38.5q-69 0 -117 19t-77.5 54t-43 83.5t-13.5 107.5v425l-89 9l2 20l135 -2l129 2l3 -20l-87 -9v-440
q0 -46 11 -84t33.5 -65.5t56.5 -42.5t79 -15q80 0 124.5 57t44.5 152v438z" />
    <glyph glyph-name="Udieresis" unicode="&#xdc;" horiz-adv-x="690" 
d="M280 876l23 -5l4 -42l-8 -38l-54 -4l-22 4l-5 44l9 36zM496 876l23 -5l4 -42l-8 -38l-54 -4l-22 4l-5 44l8 36zM455 681l2 20l111 -2l106 2l3 -20l-86 -9v-430q0 -48 -10.5 -89t-37.5 -74t-73.5 -57.5t-117.5 -38.5q-69 0 -117 19t-77.5 54t-43 83.5t-13.5 107.5v425
l-89 9l2 20l135 -2l129 2l3 -20l-87 -9v-440q0 -46 11 -84t33.5 -65.5t56.5 -42.5t79 -15q80 0 124.5 57t44.5 152v438z" />
    <glyph glyph-name="Yacute" unicode="&#xdd;" horiz-adv-x="696" 
d="M357 767l60 133h94l-123 -133h-31zM398 280l1 -251l113 -10l-2 -20l-156 2l-160 -2l-2 20l117 10v245l-226 399l-78 9l3 19l134 -2l131 2l3 -19l-90 -10l182 -323l13 -33l188 356l-95 10l2 19l116 -2l96 2l3 -19l-78 -8z" />
    <glyph glyph-name="Thorn" unicode="&#xde;" horiz-adv-x="586" 
d="M32 681l3 20l134 -2l126 2l3 -20l-87 -9v-119l140 1q46 0 86 -11t69 -33.5t46 -56t17 -77.5q0 -50 -21 -86t-55 -61.5t-77.5 -42t-89.5 -25.5h-115v-132l104 -9l-2 -21l-144 2l-134 -2l-3 21l89 9v643zM211 190h90q37 0 68 13t53.5 36.5t34.5 55.5t12 70q0 34 -8.5 63.5
t-26.5 52t-47 35.5t-71 13l-105 -3v-336z" />
    <glyph glyph-name="germandbls" unicode="&#xdf;" horiz-adv-x="571" 
d="M383 -17q-44 0 -82.5 15.5t-58.5 29.5l-3 114h29l36 -89q18 -14 40 -25t53 -11q19 0 34 7t25.5 19t16 27t5.5 31q0 32 -16.5 56.5t-53.5 50.5l-62 43q-40 28 -60.5 62t-22.5 81l62 36q32 19 55.5 55t23.5 91q0 18 -6 37.5t-19 36t-32.5 27.5t-47.5 11q-57 0 -86.5 -43.5
t-29.5 -125.5v-519l-35 1l-112 -2l-3 17l71 8v408h-79v12l30 18l49 1v38q0 24 7 50t21.5 50.5t37.5 46t55 36.5l73 34q42 0 77 -8.5t60.5 -25t39.5 -41t14 -56.5q0 -31 -11 -56.5t-31.5 -46.5t-50 -39t-65.5 -34q2 -27 17.5 -50.5t57.5 -50.5l65 -44q44 -28 62 -57t18 -67
q0 -29 -13.5 -54.5t-36.5 -46t-53.5 -36t-64.5 -22.5z" />
    <glyph glyph-name="agrave" unicode="&#xe0;" horiz-adv-x="451" 
d="M261 542l-128 172h93l55 -172h-20zM293 252l-147 -59q-33 -28 -33 -72q0 -38 19.5 -57.5t46.5 -19.5q23 0 43 11t32 19l39 27v151zM221 481q47 0 76.5 -8t46.5 -26t23 -48t6 -74v-207q0 -29 5 -47.5t13 -35.5l53 4l2 -19l-125 -25l-24 82l-130 -92q-62 0 -99.5 32
t-37.5 90q0 25 9 47.5t34 47.5l220 73v54q0 22 -1.5 41.5t-9 33.5t-23.5 22t-44 8q-19 0 -37.5 -4t-38.5 -11l-21 -90h-73v71z" />
    <glyph glyph-name="aacute" unicode="&#xe1;" horiz-adv-x="451" 
d="M204 542l54 172h93l-127 -172h-20zM293 252l-147 -59q-33 -28 -33 -72q0 -38 19.5 -57.5t46.5 -19.5q23 0 43 11t32 19l39 27v151zM221 481q47 0 76.5 -8t46.5 -26t23 -48t6 -74v-207q0 -29 5 -47.5t13 -35.5l53 4l2 -19l-125 -25l-24 82l-130 -92q-62 0 -99.5 32
t-37.5 90q0 25 9 47.5t34 47.5l220 73v54q0 22 -1.5 41.5t-9 33.5t-23.5 22t-44 8q-19 0 -37.5 -4t-38.5 -11l-21 -90h-73v71z" />
    <glyph glyph-name="acircumflex" unicode="&#xe2;" horiz-adv-x="451" 
d="M82 542l115 178h40l116 -178h-20l-106 101l-10 10l-10 -10l-106 -101h-19zM293 252l-147 -59q-33 -28 -33 -72q0 -38 19.5 -57.5t46.5 -19.5q23 0 43 11t32 19l39 27v151zM221 481q47 0 76.5 -8t46.5 -26t23 -48t6 -74v-207q0 -29 5 -47.5t13 -35.5l53 4l2 -19l-125 -25
l-24 82l-130 -92q-62 0 -99.5 32t-37.5 90q0 25 9 47.5t34 47.5l220 73v54q0 22 -1.5 41.5t-9 33.5t-23.5 22t-44 8q-19 0 -37.5 -4t-38.5 -11l-21 -90h-73v71z" />
    <glyph glyph-name="atilde" unicode="&#xe3;" horiz-adv-x="451" 
d="M86 678l67 22l176 -70l29 70h18l-25 -99l-66 -19l-176 71l-29 -71h-18zM293 252l-147 -59q-33 -28 -33 -72q0 -38 19.5 -57.5t46.5 -19.5q23 0 43 11t32 19l39 27v151zM221 481q47 0 76.5 -8t46.5 -26t23 -48t6 -74v-207q0 -29 5 -47.5t13 -35.5l53 4l2 -19l-125 -25
l-24 82l-130 -92q-62 0 -99.5 32t-37.5 90q0 25 9 47.5t34 47.5l220 73v54q0 22 -1.5 41.5t-9 33.5t-23.5 22t-44 8q-19 0 -37.5 -4t-38.5 -11l-21 -90h-73v71z" />
    <glyph glyph-name="adieresis" unicode="&#xe4;" horiz-adv-x="451" 
d="M150 681l22 -4l5 -43l-9 -37l-54 -5l-22 5l-4 44l8 36zM321 681l22 -4l5 -43l-9 -37l-54 -5l-22 5l-4 44l7 36zM293 252l-147 -59q-33 -28 -33 -72q0 -38 19.5 -57.5t46.5 -19.5q23 0 43 11t32 19l39 27v151zM221 481q47 0 76.5 -8t46.5 -26t23 -48t6 -74v-207
q0 -29 5 -47.5t13 -35.5l53 4l2 -19l-125 -25l-24 82l-130 -92q-62 0 -99.5 32t-37.5 90q0 25 9 47.5t34 47.5l220 73v54q0 22 -1.5 41.5t-9 33.5t-23.5 22t-44 8q-19 0 -37.5 -4t-38.5 -11l-21 -90h-73v71z" />
    <glyph glyph-name="aring" unicode="&#xe5;" horiz-adv-x="451" 
d="M320 634q0 -23 -8.5 -38.5t-22.5 -26t-32 -17.5t-37 -13q-18 0 -36 5t-32.5 16t-23 28.5t-8.5 41.5q0 23 8.5 38t22 25.5t31.5 17.5t38 13q18 0 36 -5t32 -16t23 -28t9 -41zM154 631q0 -30 18.5 -48.5t47.5 -18.5t47.5 18.5t18.5 48.5q0 31 -18.5 49t-47.5 18t-47.5 -18
t-18.5 -49zM293 252l-147 -59q-33 -28 -33 -72q0 -38 19.5 -57.5t46.5 -19.5q23 0 43 11t32 19l39 27v151zM221 481q47 0 76.5 -8t46.5 -26t23 -48t6 -74v-207q0 -29 5 -47.5t13 -35.5l53 4l2 -19l-125 -25l-24 82l-130 -92q-62 0 -99.5 32t-37.5 90q0 25 9 47.5t34 47.5
l220 73v54q0 22 -1.5 41.5t-9 33.5t-23.5 22t-44 8q-19 0 -37.5 -4t-38.5 -11l-21 -90h-73v71z" />
    <glyph glyph-name="ae" unicode="&#xe6;" horiz-adv-x="704" 
d="M168 -15q-61 0 -99.5 32t-38.5 87q0 27 9 50t34 48l212 73v54q0 21 -1.5 40t-8 33.5t-20.5 23t-39 8.5q-23 0 -39.5 -3.5t-36.5 -11.5l-20 -92h-74v73l174 81q62 0 92.5 -14.5t42.5 -56.5q29 28 66 44t79 27q45 0 76 -13.5t50.5 -38t28.5 -58t9 -73.5v-35h-297
q0 -100 46 -156t124 -56q30 0 61.5 13t60.5 32l9 -22q-41 -30 -82 -51t-89 -38q-58 0 -109.5 26t-80.5 80zM572 291q0 33 -3.5 61.5t-13.5 49t-28 32.5t-48 12q-27 0 -47 -12t-33.5 -33.5t-21 -51t-9.5 -63.5zM285 252l-139 -59q-33 -28 -33 -72q0 -38 19.5 -57.5
t46.5 -19.5q23 0 43.5 11t31.5 19l31 22v156z" />
    <glyph glyph-name="ccedilla" unicode="&#xe7;" horiz-adv-x="437" 
d="M308 434q-12 7 -24 10t-29 3q-29 0 -53.5 -12.5t-43.5 -37t-29.5 -60.5t-10.5 -82q0 -44 11.5 -81t33 -65t51.5 -43.5t68 -15.5q32 0 62.5 12.5t59.5 33.5l8 -20q-34 -28 -71 -49.5t-81 -39.5q-1 -1 -3.5 -1t-3.5 -1l-22 -34q31 -2 56.5 -20t25.5 -51q0 -21 -8 -37
t-20.5 -28t-27.5 -20t-29 -13l-61 -22h-40l26 37h76q16 10 24 27.5t8 34.5q0 16 -7 27t-17.5 18t-24.5 10.5t-27 4.5l47 67q-42 4 -77.5 21t-61 46.5t-40 71t-14.5 94.5q0 60 19.5 105t52 77t74.5 51.5t86 28.5q15 0 33.5 -4.5t36.5 -11.5t34.5 -16.5t27.5 -18.5v-88h-62z
" />
    <glyph glyph-name="egrave" unicode="&#xe8;" horiz-adv-x="463" 
d="M114 265q0 -100 48 -157t131 -57q31 0 64 12.5t62 31.5l9 -21q-39 -29 -79.5 -50.5t-87.5 -38.5q-44 0 -84.5 15t-71.5 45t-50 74t-19 102q0 59 17.5 103.5t47 76t69 51t84.5 29.5q46 0 78.5 -14t53 -38.5t29.5 -58t9 -73.5v-32h-310zM334 293q0 34 -4 62t-15 48
t-31 31.5t-52 11.5q-54 0 -83 -44t-34 -114zM257 542l-127 172h92l55 -172h-20z" />
    <glyph glyph-name="eacute" unicode="&#xe9;" horiz-adv-x="463" 
d="M114 265q0 -100 48 -157t131 -57q31 0 64 12.5t62 31.5l9 -21q-39 -29 -79.5 -50.5t-87.5 -38.5q-44 0 -84.5 15t-71.5 45t-50 74t-19 102q0 59 17.5 103.5t47 76t69 51t84.5 29.5q46 0 78.5 -14t53 -38.5t29.5 -58t9 -73.5v-32h-310zM334 293q0 34 -4 62t-15 48
t-31 31.5t-52 11.5q-54 0 -83 -44t-34 -114zM242 542l55 172h92l-127 -172h-20z" />
    <glyph glyph-name="ecircumflex" unicode="&#xea;" horiz-adv-x="463" 
d="M114 265q0 -100 48 -157t131 -57q31 0 64 12.5t62 31.5l9 -21q-39 -29 -79.5 -50.5t-87.5 -38.5q-44 0 -84.5 15t-71.5 45t-50 74t-19 102q0 59 17.5 103.5t47 76t69 51t84.5 29.5q46 0 78.5 -14t53 -38.5t29.5 -58t9 -73.5v-32h-310zM334 293q0 34 -4 62t-15 48
t-31 31.5t-52 11.5q-54 0 -83 -44t-34 -114zM117 542l115 178h40l116 -178h-19l-107 101l-10 10l-9 -10l-107 -101h-19z" />
    <glyph glyph-name="edieresis" unicode="&#xeb;" horiz-adv-x="463" 
d="M114 265q0 -100 48 -157t131 -57q31 0 64 12.5t62 31.5l9 -21q-39 -29 -79.5 -50.5t-87.5 -38.5q-44 0 -84.5 15t-71.5 45t-50 74t-19 102q0 59 17.5 103.5t47 76t69 51t84.5 29.5q46 0 78.5 -14t53 -38.5t29.5 -58t9 -73.5v-32h-310zM334 293q0 34 -4 62t-15 48
t-31 31.5t-52 11.5q-54 0 -83 -44t-34 -114zM352 681l23 -4l4 -43l-8 -37l-54 -5l-22 5l-5 44l8 36zM181 681l23 -4l4 -43l-8 -37l-54 -5l-22 5l-5 44l9 36z" />
    <glyph glyph-name="igrave" unicode="&#xec;" horiz-adv-x="277" 
d="M151 542l-128 172h93l55 -172h-20zM146 1l-109 -2l-2 20l69 8v400l-71 -12l-3 19l127 36l27 2v-445l73 -8l-2 -20z" />
    <glyph glyph-name="iacute" unicode="&#xed;" horiz-adv-x="277" 
d="M128 542l54 172h93l-128 -172h-19zM146 1l-109 -2l-2 20l69 8v400l-71 -12l-3 19l127 36l27 2v-445l73 -8l-2 -20z" />
    <glyph glyph-name="icircumflex" unicode="&#xee;" horiz-adv-x="277" 
d="M4 542l115 178h40l116 -178h-19l-107 101l-10 10l-9 -10l-106 -101h-20zM146 1l-109 -2l-2 20l69 8v400l-71 -12l-3 19l127 36l27 2v-445l73 -8l-2 -20z" />
    <glyph glyph-name="idieresis" unicode="&#xef;" horiz-adv-x="278" 
d="M71 681l23 -4l4 -43l-8 -37l-54 -5l-22 5l-5 44l9 36zM242 681l23 -4l4 -43l-8 -37l-54 -5l-22 5l-5 44l8 36zM147 1l-109 -2l-2 20l69 8v400l-71 -12l-3 19l127 36l27 2v-445l73 -8l-2 -20z" />
    <glyph glyph-name="eth" unicode="&#xf0;" horiz-adv-x="518" 
d="M392 673l-84 -42q46 -35 78.5 -78t53.5 -91.5t30.5 -101t9.5 -106.5q0 -55 -15.5 -102.5t-45 -83.5t-71.5 -57.5t-96 -25.5q-56 8 -97.5 30t-69.5 55t-41.5 75.5t-13.5 90.5q0 99 54.5 162t156.5 71l140 -76q-11 63 -39.5 119.5t-73.5 99.5l-128 -62v32l102 49
q-7 6 -22.5 16.5t-33.5 21t-35 19t-27 11.5l11 21q30 -11 52 -20.5t39 -17.5t30 -16t25 -16l111 54v-31zM117 230q0 -97 34 -152.5t103 -55.5q31 0 55.5 16t42 44t28 64.5t12.5 78.5q3 50 -5 99q-14 16 -26 29t-24 24q-23 20 -46.5 30.5t-51.5 10.5q-58 0 -90 -50t-32 -138z
" />
    <glyph glyph-name="ntilde" unicode="&#xf1;" horiz-adv-x="572" 
d="M164 678l67 21l175 -70l30 70h17l-25 -99l-66 -18l-176 71l-29 -71h-18zM146 1l-109 -2l-3 20l70 8v400l-71 -12l-3 20l127 35l23 2l3 -97l164 106q38 -1 63 -8.5t39 -24.5q15 -17 21 -44.5t6 -69.5v-307l79 -8l-3 -20l-114 2l-91 -2l-2 20l51 8v306q0 47 -17 65.5
t-51 18.5q-28 0 -53 -13t-55 -33l-36 -22v-322l55 -8l-3 -20z" />
    <glyph glyph-name="ograve" unicode="&#xf2;" horiz-adv-x="526" 
d="M287 542l-128 172h93l55 -172h-20zM274 481q49 0 89 -18t68.5 -50t44 -75.5t15.5 -94.5q0 -111 -62 -174.5t-176 -83.5q-49 0 -89 18t-68.5 50t-44 75.5t-15.5 93.5q0 112 62 174.5t176 84.5zM121 242q0 -45 11 -85.5t31.5 -71.5t49.5 -49t64 -18q32 0 56 15.5t40.5 43.5
t24.5 65t8 81q0 50 -11.5 91.5t-32.5 71t-49.5 45.5t-62.5 16q-32 0 -56.5 -15.5t-40.5 -43t-24 -65t-8 -81.5z" />
    <glyph glyph-name="oacute" unicode="&#xf3;" horiz-adv-x="526" 
d="M264 542l54 172h93l-128 -172h-19zM274 481q49 0 89 -18t68.5 -50t44 -75.5t15.5 -94.5q0 -111 -62 -174.5t-176 -83.5q-49 0 -89 18t-68.5 50t-44 75.5t-15.5 93.5q0 112 62 174.5t176 84.5zM121 242q0 -45 11 -85.5t31.5 -71.5t49.5 -49t64 -18q32 0 56 15.5t40.5 43.5
t24.5 65t8 81q0 50 -11.5 91.5t-32.5 71t-49.5 45.5t-62.5 16q-32 0 -56.5 -15.5t-40.5 -43t-24 -65t-8 -81.5z" />
    <glyph glyph-name="ocircumflex" unicode="&#xf4;" horiz-adv-x="526" 
d="M134 542l115 178h40l115 -178h-19l-106 101l-10 10l-10 -10l-106 -101h-19zM274 481q49 0 89 -18t68.5 -50t44 -75.5t15.5 -94.5q0 -111 -62 -174.5t-176 -83.5q-49 0 -89 18t-68.5 50t-44 75.5t-15.5 93.5q0 112 62 174.5t176 84.5zM121 242q0 -45 11 -85.5t31.5 -71.5
t49.5 -49t64 -18q32 0 56 15.5t40.5 43.5t24.5 65t8 81q0 50 -11.5 91.5t-32.5 71t-49.5 45.5t-62.5 16q-32 0 -56.5 -15.5t-40.5 -43t-24 -65t-8 -81.5z" />
    <glyph glyph-name="otilde" unicode="&#xf5;" horiz-adv-x="526" 
d="M140 678l67 21l175 -70l30 70h17l-25 -99l-66 -18l-176 71l-29 -71h-18zM274 481q49 0 89 -18t68.5 -50t44 -75.5t15.5 -94.5q0 -111 -62 -174.5t-176 -83.5q-49 0 -89 18t-68.5 50t-44 75.5t-15.5 93.5q0 112 62 174.5t176 84.5zM121 242q0 -45 11 -85.5t31.5 -71.5
t49.5 -49t64 -18q32 0 56 15.5t40.5 43.5t24.5 65t8 81q0 50 -11.5 91.5t-32.5 71t-49.5 45.5t-62.5 16q-32 0 -56.5 -15.5t-40.5 -43t-24 -65t-8 -81.5z" />
    <glyph glyph-name="odieresis" unicode="&#xf6;" horiz-adv-x="526" 
d="M196 681l23 -4l4 -43l-8 -37l-55 -5l-21 5l-5 44l8 36zM367 681l23 -4l4 -43l-9 -37l-54 -5l-22 5l-4 44l8 36zM274 481q49 0 89 -18t68.5 -50t44 -75.5t15.5 -94.5q0 -111 -62 -174.5t-176 -83.5q-49 0 -89 18t-68.5 50t-44 75.5t-15.5 93.5q0 112 62 174.5t176 84.5z
M121 242q0 -45 11 -85.5t31.5 -71.5t49.5 -49t64 -18q32 0 56 15.5t40.5 43.5t24.5 65t8 81q0 50 -11.5 91.5t-32.5 71t-49.5 45.5t-62.5 16q-32 0 -56.5 -15.5t-40.5 -43t-24 -65t-8 -81.5z" />
    <glyph glyph-name="divide" unicode="&#xf7;" 
d="M332 106l25 -4l4 -47l-6 -42l-63 -5l-24 5l-5 49l5 40zM332 471l25 -4l4 -47l-6 -42l-63 -5l-24 5l-5 48l5 41zM47 265h526v-42h-526v42z" />
    <glyph glyph-name="oslash" unicode="&#xf8;" horiz-adv-x="523" 
d="M273 481q41 0 75.5 -13t61.5 -36l40 48h30l-53 -64q30 -32 46.5 -76.5t16.5 -96.5q0 -111 -62 -174.5t-176 -83.5q-42 0 -77.5 13.5t-63.5 37.5l-38 -46h-32l53 64q-59 65 -59 168q0 112 62 174.5t176 84.5zM405 223q0 78 -28 134l-219 -265q20 -34 50 -54t68 -20
q32 0 56 15.5t40.5 43.5t24.5 65t8 81zM120 242q0 -71 26 -126l219 262q-21 33 -50.5 51t-65.5 18q-32 0 -56.5 -15.5t-40.5 -43t-24 -65t-8 -81.5z" />
    <glyph glyph-name="ugrave" unicode="&#xf9;" horiz-adv-x="548" 
d="M277 542l-128 172h92l55 -172h-19zM454 128q0 -32 3.5 -52t9.5 -39l54 3l2 -19l-125 -25l-22 88l-159 -99q-43 1 -69 9.5t-40 27.5t-18.5 47.5t-4.5 68.5v290l-72 -7l-3 22l129 25l26 2v-339q0 -45 17 -64.5t51 -19.5q26 0 51.5 13t54.5 33l35 21v314l-66 -7l-2 22
l123 25l25 2v-342z" />
    <glyph glyph-name="uacute" unicode="&#xfa;" horiz-adv-x="548" 
d="M244 542l55 172h92l-128 -172h-19zM454 128q0 -32 3.5 -52t9.5 -39l54 3l2 -19l-125 -25l-22 88l-159 -99q-43 1 -69 9.5t-40 27.5t-18.5 47.5t-4.5 68.5v290l-72 -7l-3 22l129 25l26 2v-339q0 -45 17 -64.5t51 -19.5q26 0 51.5 13t54.5 33l35 21v314l-66 -7l-2 22
l123 25l25 2v-342z" />
    <glyph glyph-name="ucircumflex" unicode="&#xfb;" horiz-adv-x="548" 
d="M385 542l-106 101l-10 10l-10 -10l-106 -101h-19l115 178h40l116 -178h-20zM454 128q0 -32 3.5 -52t9.5 -39l54 3l2 -19l-125 -25l-22 88l-159 -99q-43 1 -69 9.5t-40 27.5t-18.5 47.5t-4.5 68.5v290l-72 -7l-3 22l129 25l26 2v-339q0 -45 17 -64.5t51 -19.5
q26 0 51.5 13t54.5 33l35 21v314l-66 -7l-2 22l123 25l25 2v-342z" />
    <glyph glyph-name="udieresis" unicode="&#xfc;" horiz-adv-x="548" 
d="M199 681l23 -4l4 -43l-8 -37l-55 -5l-21 5l-5 44l8 36zM370 681l23 -4l4 -43l-9 -37l-54 -5l-22 5l-4 44l8 36zM454 128q0 -32 3.5 -52t9.5 -39l54 3l2 -19l-125 -25l-22 88l-159 -99q-43 1 -69 9.5t-40 27.5t-18.5 47.5t-4.5 68.5v290l-72 -7l-3 22l129 25l26 2v-339
q0 -45 17 -64.5t51 -19.5q26 0 51.5 13t54.5 33l35 21v314l-66 -7l-2 22l123 25l25 2v-342z" />
    <glyph glyph-name="yacute" unicode="&#xfd;" horiz-adv-x="529" 
d="M273 542l54 172h92l-127 -172h-19zM87 -235v86h89l101 174l-47 -21l-164 435l-61 8l3 19l106 -1l102 1l3 -19l-64 -8l119 -330l12 -54l133 384l-59 8l3 19l83 -1l76 1l2 -19l-64 -8l-154 -414l-115 -260h-104z" />
    <glyph glyph-name="thorn" unicode="&#xfe;" horiz-adv-x="534" 
d="M262 -15q-24 0 -48.5 6.5t-43.5 20.5v-215l104 -8l-2 -20l-139 2l-111 -2l-3 20l71 8v873l-71 -11l-3 18l127 35l27 2v-331l135 98q45 0 81 -16.5t60.5 -46.5t37.5 -71.5t13 -91.5q0 -116 -61.5 -182.5t-173.5 -87.5zM411 222q0 42 -8 78t-22.5 62.5t-36 41.5t-48.5 15
q-26 0 -48 -12t-52 -33l-26 -19v-283q16 -25 43.5 -40t62.5 -15q61 1 98 56t37 149z" />
    <glyph glyph-name="ydieresis" unicode="&#xff;" horiz-adv-x="529" 
d="M216 681l23 -4l4 -43l-8 -37l-54 -5l-22 5l-5 44l8 36zM387 681l23 -4l4 -43l-9 -37l-54 -5l-21 5l-5 44l8 36zM87 -235v86h89l101 174l-47 -21l-164 435l-61 8l3 19l106 -1l102 1l3 -19l-64 -8l119 -330l12 -54l133 384l-59 8l3 19l83 -1l76 1l2 -19l-64 -8l-154 -414
l-115 -260h-104z" />
    <glyph glyph-name="Amacron" unicode="&#x100;" horiz-adv-x="721" 
d="M222 840h280v-40h-280v40zM8 19l80 9l246 660l48 22l253 -682l78 -9l-2 -20l-128 2l-133 -2l-2 20l87 10l-76 217h-252l-76 -217l88 -10l-2 -20l-107 2l-99 -2zM448 275l-79 221l-33 117l-119 -338h231z" />
    <glyph glyph-name="amacron" unicode="&#x101;" horiz-adv-x="451" 
d="M74 670h279v-39h-279v39zM293 252l-147 -59q-33 -28 -33 -72q0 -38 19.5 -57.5t46.5 -19.5q23 0 43 11t32 19l39 27v151zM221 481q47 0 76.5 -8t46.5 -26t23 -48t6 -74v-207q0 -29 5 -47.5t13 -35.5l53 4l2 -19l-125 -25l-24 82l-130 -92q-62 0 -99.5 32t-37.5 90
q0 25 9 47.5t34 47.5l220 73v54q0 22 -1.5 41.5t-9 33.5t-23.5 22t-44 8q-19 0 -37.5 -4t-38.5 -11l-21 -90h-73v71z" />
    <glyph glyph-name="Abreve" unicode="&#x102;" horiz-adv-x="721" 
d="M373 754q-30 0 -53.5 11t-40.5 28.5t-29.5 37.5t-20.5 38l16 11q6 -11 16 -24t24 -24t32.5 -18t42.5 -7q23 0 41.5 7.5t32.5 18.5t24 23.5t18 23.5l13 -11q-5 -12 -13 -26.5t-21 -29.5t-32.5 -30.5t-49.5 -28.5zM8 19l80 9l246 660l48 22l253 -682l78 -9l-2 -20l-128 2
l-133 -2l-2 20l87 10l-76 217h-252l-76 -217l88 -10l-2 -20l-107 2l-99 -2zM448 275l-79 221l-33 117l-119 -338h231z" />
    <glyph glyph-name="abreve" unicode="&#x103;" horiz-adv-x="451" 
d="M218 604q22 0 39.5 8t31 21t23 27.5t17.5 28.5l16 -12q-13 -30 -38 -63t-77 -65q-30 0 -54.5 12.5t-42.5 31.5t-30 41.5t-18 42.5l17 11q6 -13 16 -28t24.5 -27.5t33 -20.5t42.5 -8zM293 252l-147 -59q-33 -28 -33 -72q0 -38 19.5 -57.5t46.5 -19.5q23 0 43 11t32 19
l39 27v151zM221 481q47 0 76.5 -8t46.5 -26t23 -48t6 -74v-207q0 -29 5 -47.5t13 -35.5l53 4l2 -19l-125 -25l-24 82l-130 -92q-62 0 -99.5 32t-37.5 90q0 25 9 47.5t34 47.5l220 73v54q0 22 -1.5 41.5t-9 33.5t-23.5 22t-44 8q-19 0 -37.5 -4t-38.5 -11l-21 -90h-73v71z
" />
    <glyph glyph-name="Aogonek" unicode="&#x104;" horiz-adv-x="721" 
d="M603 -240q-93 0 -132 25.5t-39 75.5v45l106 112l-79 228h-251l-77 -217l88 -10l-2 -20l-107 2l-99 -2l-3 20l80 9l246 660l48 22l253 -682l78 -9l-2 -20l-159 2l-53 -119v-38q0 -38 29 -51.5t75 -13.5v-19zM448 275l-79 221l-33 117l-119 -338h231z" />
    <glyph glyph-name="aogonek" unicode="&#x105;" horiz-adv-x="451" 
d="M221 481q47 0 76.5 -8t46.5 -26t23 -48t6 -74v-207q0 -29 5 -47.5t13 -35.5l53 4l2 -19l-100 -20l-62 -124v-32q0 -38 29.5 -51.5t74.5 -13.5v-19q-92 0 -131 25.5t-39 75.5v39l103 99l-24 78l-130 -92q-62 0 -99.5 32t-37.5 90q0 25 9 47.5t34 47.5l220 73v54
q0 22 -1.5 41.5t-9 33.5t-23.5 22t-44 8q-19 0 -37.5 -4t-38.5 -11l-21 -90h-73v71zM293 252l-147 -59q-33 -28 -33 -72q0 -38 19.5 -57.5t46.5 -19.5q23 0 43 11t32 19l39 27v151z" />
    <glyph glyph-name="Cacute" unicode="&#x106;" horiz-adv-x="687" 
d="M434 900h94l-123 -133h-31zM644 201l-14 -145q-48 -23 -110.5 -44t-128.5 -29q-68 0 -131.5 23.5t-112 68.5t-77.5 112t-29 154q0 85 26.5 151t74.5 113.5t114.5 75t146.5 36.5q37 0 71.5 -6t64.5 -16t55 -21.5t44 -23.5v-141h-29l-45 112q-24 24 -65 45t-103 21
q-54 0 -100.5 -20.5t-80.5 -62t-53.5 -103t-19.5 -142.5q0 -64 17 -125.5t51 -109.5t85.5 -77.5t121.5 -29.5q45 0 82 19t58 39l57 126h30z" />
    <glyph glyph-name="cacute" unicode="&#x107;" horiz-adv-x="437" 
d="M233 542l54 172h93l-128 -172h-19zM308 434q-12 7 -24 10t-29 3q-29 0 -53.5 -12.5t-43.5 -37t-29.5 -60.5t-10.5 -82q0 -44 11.5 -81t33 -65t51.5 -43.5t68 -15.5q32 0 62.5 12.5t59.5 33.5l8 -20q-67 -55 -156 -91q-47 0 -86.5 15.5t-68.5 45t-45.5 73t-16.5 100.5
q0 60 19.5 105t52 77t74.5 51.5t86 28.5q15 0 33.5 -4.5t36.5 -11.5t34.5 -16.5t27.5 -18.5v-88h-62z" />
    <glyph glyph-name="Ccircumflex" unicode="&#x108;" horiz-adv-x="687" 
d="M374 903h47l116 -136h-30l-104 76l-6 6l-6 -6l-103 -76h-30zM644 201l-14 -145q-48 -23 -110.5 -44t-128.5 -29q-68 0 -131.5 23.5t-112 68.5t-77.5 112t-29 154q0 85 26.5 151t74.5 113.5t114.5 75t146.5 36.5q37 0 71.5 -6t64.5 -16t55 -21.5t44 -23.5v-141h-29
l-45 112q-24 24 -65 45t-103 21q-54 0 -100.5 -20.5t-80.5 -62t-53.5 -103t-19.5 -142.5q0 -64 17 -125.5t51 -109.5t85.5 -77.5t121.5 -29.5q45 0 82 19t58 39l57 126h30z" />
    <glyph glyph-name="ccircumflex" unicode="&#x109;" horiz-adv-x="437" 
d="M121 542l116 178h39l116 -178h-19l-107 101l-10 10l-9 -10l-106 -101h-20zM308 434q-12 7 -24 10t-29 3q-29 0 -53.5 -12.5t-43.5 -37t-29.5 -60.5t-10.5 -82q0 -44 11.5 -81t33 -65t51.5 -43.5t68 -15.5q32 0 62.5 12.5t59.5 33.5l8 -20q-67 -55 -156 -91
q-47 0 -86.5 15.5t-68.5 45t-45.5 73t-16.5 100.5q0 60 19.5 105t52 77t74.5 51.5t86 28.5q15 0 33.5 -4.5t36.5 -11.5t34.5 -16.5t27.5 -18.5v-88h-62z" />
    <glyph glyph-name="Cdotaccent" unicode="&#x10a;" horiz-adv-x="687" 
d="M348 788l-5 50l9 42l66 5l23 -5l5 -49l-10 -43l-67 -5zM644 201l-14 -145q-48 -23 -110.5 -44t-128.5 -29q-68 0 -131.5 23.5t-112 68.5t-77.5 112t-29 154q0 85 26.5 151t74.5 113.5t114.5 75t146.5 36.5q37 0 71.5 -6t64.5 -16t55 -21.5t44 -23.5v-141h-29l-45 112
q-24 24 -65 45t-103 21q-54 0 -100.5 -20.5t-80.5 -62t-53.5 -103t-19.5 -142.5q0 -64 17 -125.5t51 -109.5t85.5 -77.5t121.5 -29.5q45 0 82 19t58 39l57 126h30z" />
    <glyph glyph-name="cdotaccent" unicode="&#x10b;" horiz-adv-x="437" 
d="M212 700l67 5l22 -5l5 -49l-9 -43l-67 -5l-21 5l-6 50zM308 434q-12 7 -24 10t-29 3q-29 0 -53.5 -12.5t-43.5 -37t-29.5 -60.5t-10.5 -82q0 -44 11.5 -81t33 -65t51.5 -43.5t68 -15.5q32 0 62.5 12.5t59.5 33.5l8 -20q-67 -55 -156 -91q-47 0 -86.5 15.5t-68.5 45
t-45.5 73t-16.5 100.5q0 60 19.5 105t52 77t74.5 51.5t86 28.5q15 0 33.5 -4.5t36.5 -11.5t34.5 -16.5t27.5 -18.5v-88h-62z" />
    <glyph glyph-name="Ccaron" unicode="&#x10c;" horiz-adv-x="687" 
d="M280 900l103 -76l5 -6l7 6l103 76h30l-116 -136h-47l-115 136h30zM644 201l-14 -145q-48 -23 -110.5 -44t-128.5 -29q-68 0 -131.5 23.5t-112 68.5t-77.5 112t-29 154q0 85 26.5 151t74.5 113.5t114.5 75t146.5 36.5q37 0 71.5 -6t64.5 -16t55 -21.5t44 -23.5v-141h-29
l-45 112q-24 24 -65 45t-103 21q-54 0 -100.5 -20.5t-80.5 -62t-53.5 -103t-19.5 -142.5q0 -64 17 -125.5t51 -109.5t85.5 -77.5t121.5 -29.5q45 0 82 19t58 39l57 126h30z" />
    <glyph glyph-name="ccaron" unicode="&#x10d;" horiz-adv-x="437" 
d="M140 724l106 -102l10 -10l10 10l106 102h20l-116 -178h-40l-115 178h19zM308 434q-12 7 -24 10t-29 3q-29 0 -53.5 -12.5t-43.5 -37t-29.5 -60.5t-10.5 -82q0 -44 11.5 -81t33 -65t51.5 -43.5t68 -15.5q32 0 62.5 12.5t59.5 33.5l8 -20q-67 -55 -156 -91
q-47 0 -86.5 15.5t-68.5 45t-45.5 73t-16.5 100.5q0 60 19.5 105t52 77t74.5 51.5t86 28.5q15 0 33.5 -4.5t36.5 -11.5t34.5 -16.5t27.5 -18.5v-88h-62z" />
    <glyph glyph-name="Dcaron" unicode="&#x10e;" horiz-adv-x="726" 
d="M209 900h30l103 -76l6 -6l6 6l104 76h29l-116 -136h-46zM30 19l93 10v643l-93 9l2 20l148 -2l174 2q76 0 137.5 -22t104.5 -65t66.5 -105t23.5 -143q0 -80 -21.5 -145t-64 -112.5t-105.5 -75.5t-147 -34l-168 2l-148 -2zM344 25q54 0 98.5 23.5t76.5 67t49.5 105
t17.5 137.5q0 68 -15.5 126t-48 101t-82 67.5t-117.5 24.5l-110 -6v-638z" />
    <glyph glyph-name="dcaron" unicode="&#x10f;" horiz-adv-x="594" 
d="M533 623l-43 18l1 67h93l-2 -87l-72 -132l-19 6zM442 121q0 -27 4.5 -45t13.5 -37l64 4l3 -20l-134 -28l-26 85l-137 -95q-44 0 -80 17.5t-61.5 48.5t-39.5 72.5t-14 89.5q0 112 60.5 181t174.5 87q21 0 46 -8t46 -19v214l-69 -7l-4 19l128 32l25 2v-593zM237 49
q23 0 44 9.5t53 32.5l28 22v293q-15 20 -40 32t-58 12q-69 -1 -106 -56t-37 -149q0 -43 8.5 -79t23.5 -62t36.5 -40.5t47.5 -14.5z" />
    <glyph glyph-name="Dcroat" unicode="&#x110;" horiz-adv-x="726" 
d="M30 19l93 10v319h-83v30h83v294l-93 9l2 20l148 -2l174 2q76 0 137.5 -22t104.5 -65t66.5 -105t23.5 -143q0 -80 -21.5 -145t-64 -112.5t-105.5 -75.5t-147 -34l-168 2l-148 -2zM344 25q54 0 98.5 23.5t76.5 67t49.5 105t17.5 137.5q0 68 -15.5 126t-48 101t-82 67.5
t-117.5 24.5l-110 -6v-293h136v-30h-136v-315z" />
    <glyph glyph-name="dcroat" unicode="&#x111;" horiz-adv-x="547" 
d="M442 594h77v-23h-77v-450q0 -27 4.5 -45t13.5 -37l64 4l3 -20l-134 -28l-26 85l-137 -95q-44 0 -80 17.5t-61.5 48.5t-39.5 72.5t-14 89.5q0 112 60.5 181t174.5 87q21 0 46 -8t46 -19v117h-124v23h124v74l-69 -7l-4 19l128 32l25 2v-120zM237 49q23 0 44 9.5t53 32.5
l28 22v293q-15 20 -40 32t-58 12q-69 -1 -106 -56t-37 -149q0 -43 8.5 -79t23.5 -62t36.5 -40.5t47.5 -14.5z" />
    <glyph glyph-name="Emacron" unicode="&#x112;" horiz-adv-x="613" 
d="M195 840h279v-40h-279v40zM30 19l89 10v643l-89 9l2 20l138 -2l393 2l4 -178h-18l-60 149l-280 1v-294l159 2l41 111h19l-5 -122l5 -128h-19l-41 110l-159 2v-327l289 2l66 153h20l-18 -183l-396 2l-138 -2z" />
    <glyph glyph-name="emacron" unicode="&#x113;" horiz-adv-x="463" 
d="M114 265q0 -100 48 -157t131 -57q31 0 64 12.5t62 31.5l9 -21q-39 -29 -79.5 -50.5t-87.5 -38.5q-44 0 -84.5 15t-71.5 45t-50 74t-19 102q0 59 17.5 103.5t47 76t69 51t84.5 29.5q46 0 78.5 -14t53 -38.5t29.5 -58t9 -73.5v-32h-310zM334 293q0 34 -4 62t-15 48
t-31 31.5t-52 11.5q-54 0 -83 -44t-34 -114zM109 670h280v-39h-280v39z" />
    <glyph glyph-name="Ebreve" unicode="&#x114;" horiz-adv-x="613" 
d="M345 754q-30 0 -53 11t-40.5 28.5t-29.5 37.5t-20 38l15 11q7 -11 17 -24t24 -24t32.5 -18t41.5 -7t41.5 7.5t32.5 18.5t24.5 23.5t17.5 23.5l14 -11q-5 -12 -13 -26.5t-21 -29.5t-33 -30.5t-50 -28.5zM30 19l89 10v643l-89 9l2 20l138 -2l393 2l4 -178h-18l-60 149
l-280 1v-294l159 2l41 111h19l-5 -122l5 -128h-19l-41 110l-159 2v-327l289 2l66 153h20l-18 -183l-396 2l-138 -2z" />
    <glyph glyph-name="ebreve" unicode="&#x115;" horiz-adv-x="463" 
d="M114 265q0 -100 48 -157t131 -57q31 0 64 12.5t62 31.5l9 -21q-39 -29 -79.5 -50.5t-87.5 -38.5q-44 0 -84.5 15t-71.5 45t-50 74t-19 102q0 59 17.5 103.5t47 76t69 51t84.5 29.5q46 0 78.5 -14t53 -38.5t29.5 -58t9 -73.5v-32h-310zM334 293q0 34 -4 62t-15 48
t-31 31.5t-52 11.5q-54 0 -83 -44t-34 -114zM247 604q22 0 39.5 7.5t31 19t23 25.5t17.5 26l16 -12q-13 -29 -38 -60t-77 -61q-30 0 -54 12t-42.5 30t-30.5 39t-18 40l17 11q6 -12 16 -26t24.5 -25t33 -18.5t42.5 -7.5z" />
    <glyph glyph-name="Edotaccent" unicode="&#x116;" horiz-adv-x="613" 
d="M294 790l-5 50l9 42l67 5l23 -5l4 -49l-9 -43l-67 -5zM30 19l89 10v643l-89 9l2 20l138 -2l393 2l4 -178h-18l-60 149l-280 1v-294l159 2l41 111h19l-5 -122l5 -128h-19l-41 110l-159 2v-327l289 2l66 153h20l-18 -183l-396 2l-138 -2z" />
    <glyph glyph-name="edotaccent" unicode="&#x117;" horiz-adv-x="463" 
d="M114 265q0 -100 48 -157t131 -57q31 0 64 12.5t62 31.5l9 -21q-39 -29 -79.5 -50.5t-87.5 -38.5q-44 0 -84.5 15t-71.5 45t-50 74t-19 102q0 59 17.5 103.5t47 76t69 51t84.5 29.5q46 0 78.5 -14t53 -38.5t29.5 -58t9 -73.5v-32h-310zM334 293q0 34 -4 62t-15 48
t-31 31.5t-52 11.5q-54 0 -83 -44t-34 -114zM201 700l67 5l23 -5l5 -49l-9 -43l-68 -5l-21 5l-5 50z" />
    <glyph glyph-name="Eogonek" unicode="&#x118;" horiz-adv-x="613" 
d="M552 -240q-92 0 -131 25t-39 76v39l95 100l-309 1l-136 -2l-2 20l89 10v643l-89 9l2 20l137 -2l394 2l4 -178h-18l-60 149l-280 1v-294l159 2l41 111h19l-5 -122l5 -128h-19l-41 110l-159 2v-327l289 2l66 153h20l-18 -183l-64 1l-53 -124v-32q0 -38 29.5 -51.5
t73.5 -13.5v-19v0z" />
    <glyph glyph-name="eogonek" unicode="&#x119;" horiz-adv-x="463" 
d="M114 265q0 -100 48 -157t131 -57q31 0 64 12.5t62 31.5l9 -21q-27 -20 -58.5 -39t-60.5 -33l-60 -114v-44q0 -38 31 -51.5t79 -13.5v-19q-96 0 -136 25.5t-40 75.5v37l83 87q-45 0 -87 15t-73.5 44.5t-50.5 73.5t-19 103t17.5 103.5t47 76t69 51t84.5 29.5q46 0 78.5 -14
t53 -38.5t29.5 -58t9 -73.5v-32h-310zM334 293q0 34 -4 62t-15 48t-31 31.5t-52 11.5q-54 0 -83 -44t-34 -114z" />
    <glyph glyph-name="Ecaron" unicode="&#x11a;" horiz-adv-x="613" 
d="M201 900h30l103 -76l6 -6l6 6l104 76h29l-115 -136h-47zM30 19l89 10v643l-89 9l2 20l138 -2l393 2l4 -178h-18l-60 149l-280 1v-294l159 2l41 111h19l-5 -122l5 -128h-19l-41 110l-159 2v-327l289 2l66 153h20l-18 -183l-396 2l-138 -2z" />
    <glyph glyph-name="ecaron" unicode="&#x11b;" horiz-adv-x="463" 
d="M114 265q0 -100 48 -157t131 -57q31 0 64 12.5t62 31.5l9 -21q-39 -29 -79.5 -50.5t-87.5 -38.5q-44 0 -84.5 15t-71.5 45t-50 74t-19 102q0 59 17.5 103.5t47 76t69 51t84.5 29.5q46 0 78.5 -14t53 -38.5t29.5 -58t9 -73.5v-32h-310zM334 293q0 34 -4 62t-15 48
t-31 31.5t-52 11.5q-54 0 -83 -44t-34 -114zM133 725l106 -102l9 -10l10 10l107 102h19l-116 -178h-40l-115 178h20z" />
    <glyph glyph-name="Gcircumflex" unicode="&#x11c;" horiz-adv-x="731" 
d="M259 767l115 136h47l116 -136h-30l-103 76l-7 6l-5 -6l-103 -76h-30zM385 -17q-69 0 -131.5 23.5t-110 69t-75 112.5t-27.5 154q0 84 25.5 149.5t72.5 112.5t113.5 75.5t148.5 37.5q39 0 74.5 -6.5t66.5 -16.5t55 -22t39 -22v-141h-26l-45 110q-12 12 -28 24t-37.5 21.5
t-48 16t-58.5 6.5q-58 0 -104.5 -23.5t-79 -67t-50 -105t-17.5 -136.5q0 -65 17.5 -126.5t51 -109t82.5 -76t112 -28.5q51 0 89 20.5t57 41.5v213l-86 11l2 19l124 -2l112 2l2 -19l-64 -11v-236q-21 -9 -51 -20t-64.5 -21.5t-70.5 -18.5t-70 -11z" />
    <glyph glyph-name="gcircumflex" unicode="&#x11d;" horiz-adv-x="494" 
d="M234 480q48 0 88.5 -18.5t61.5 -50.5l56 69h49v-79h-69l-23 -13q11 -24 11 -50q0 -62 -44 -107t-143 -70q-27 0 -48 6l-52 -56q0 -26 13.5 -38.5t36.5 -12.5h179q62 0 90 -27.5t28 -68.5q0 -32 -18 -62t-50 -57t-77.5 -50t-99.5 -39q-104 0 -153.5 33t-49.5 103v16
l110 87q-26 8 -41.5 18.5t-24 23t-11.5 26.5t-3 31v8l98 71q-45 16 -73 50t-28 80q0 62 44 106.5t143 70.5zM151 -11q-18 -18 -29 -32.5t-16.5 -26t-7 -21t-1.5 -17.5q0 -41 35 -66.5t90 -24.5q36 0 67.5 10.5t55.5 28t37.5 41t13.5 49.5q0 29 -21 44t-72 15h-152zM325 304
q0 21 -4.5 46.5t-16.5 47.5t-33 36.5t-53 14.5q-42 0 -65 -31t-23 -87q0 -20 4.5 -44t16.5 -45t33 -35t53 -14q42 0 65 29.5t23 81.5zM107 542l115 178h40l116 -178h-20l-106 101l-10 10l-10 -10l-105 -101h-20z" />
    <glyph glyph-name="Gbreve" unicode="&#x11e;" horiz-adv-x="731" 
d="M409 754q-30 0 -53 11t-40.5 28.5t-29.5 37.5t-20 38l15 11q7 -11 17 -24t24 -24t32.5 -18t41.5 -7t41.5 7.5t32.5 18.5t24.5 23.5t17.5 23.5l14 -11q-5 -12 -13 -26.5t-21 -29.5t-33 -30.5t-50 -28.5zM385 -17q-69 0 -131.5 23.5t-110 69t-75 112.5t-27.5 154
q0 84 25.5 149.5t72.5 112.5t113.5 75.5t148.5 37.5q39 0 74.5 -6.5t66.5 -16.5t55 -22t39 -22v-141h-26l-45 110q-12 12 -28 24t-37.5 21.5t-48 16t-58.5 6.5q-58 0 -104.5 -23.5t-79 -67t-50 -105t-17.5 -136.5q0 -65 17.5 -126.5t51 -109t82.5 -76t112 -28.5
q51 0 89 20.5t57 41.5v213l-86 11l2 19l124 -2l112 2l2 -19l-64 -11v-236q-21 -9 -51 -20t-64.5 -21.5t-70.5 -18.5t-70 -11z" />
    <glyph glyph-name="gbreve" unicode="&#x11f;" horiz-adv-x="494" 
d="M234 480q48 0 88.5 -18.5t61.5 -50.5l56 69h49v-79h-69l-23 -13q11 -24 11 -50q0 -62 -44 -107t-143 -70q-27 0 -48 6l-52 -56q0 -26 13.5 -38.5t36.5 -12.5h179q62 0 90 -27.5t28 -68.5q0 -32 -18 -62t-50 -57t-77.5 -50t-99.5 -39q-104 0 -153.5 33t-49.5 103v16
l110 87q-26 8 -41.5 18.5t-24 23t-11.5 26.5t-3 31v8l98 71q-45 16 -73 50t-28 80q0 62 44 106.5t143 70.5zM151 -11q-18 -18 -29 -32.5t-16.5 -26t-7 -21t-1.5 -17.5q0 -41 35 -66.5t90 -24.5q36 0 67.5 10.5t55.5 28t37.5 41t13.5 49.5q0 29 -21 44t-72 15h-152zM325 304
q0 21 -4.5 46.5t-16.5 47.5t-33 36.5t-53 14.5q-42 0 -65 -31t-23 -87q0 -20 4.5 -44t16.5 -45t33 -35t53 -14q42 0 65 29.5t23 81.5zM236 605q22 0 39.5 7.5t31 18.5t23.5 25t17 26l17 -11q-14 -29 -39 -60t-77 -61q-30 0 -54 12t-42 30t-30 39t-18 39l16 12q7 -12 17 -26
t24 -25t32.5 -18.5t42.5 -7.5z" />
    <glyph glyph-name="Gdotaccent" unicode="&#x120;" horiz-adv-x="731" 
d="M356 789l-5 50l9 42l66 5l23 -5l4 -49l-9 -43l-67 -5zM385 -17q-69 0 -131.5 23.5t-110 69t-75 112.5t-27.5 154q0 84 25.5 149.5t72.5 112.5t113.5 75.5t148.5 37.5q39 0 74.5 -6.5t66.5 -16.5t55 -22t39 -22v-141h-26l-45 110q-12 12 -28 24t-37.5 21.5t-48 16
t-58.5 6.5q-58 0 -104.5 -23.5t-79 -67t-50 -105t-17.5 -136.5q0 -65 17.5 -126.5t51 -109t82.5 -76t112 -28.5q51 0 89 20.5t57 41.5v213l-86 11l2 19l124 -2l112 2l2 -19l-64 -11v-236q-21 -9 -51 -20t-64.5 -21.5t-70.5 -18.5t-70 -11z" />
    <glyph glyph-name="gdotaccent" unicode="&#x121;" horiz-adv-x="494" 
d="M234 480q48 0 88.5 -18.5t61.5 -50.5l56 69h49v-79h-69l-23 -13q11 -24 11 -50q0 -62 -44 -107t-143 -70q-27 0 -48 6l-52 -56q0 -26 13.5 -38.5t36.5 -12.5h179q62 0 90 -27.5t28 -68.5q0 -32 -18 -62t-50 -57t-77.5 -50t-99.5 -39q-104 0 -153.5 33t-49.5 103v16
l110 87q-26 8 -41.5 18.5t-24 23t-11.5 26.5t-3 31v8l98 71q-45 16 -73 50t-28 80q0 62 44 106.5t143 70.5zM151 -11q-18 -18 -29 -32.5t-16.5 -26t-7 -21t-1.5 -17.5q0 -41 35 -66.5t90 -24.5q36 0 67.5 10.5t55.5 28t37.5 41t13.5 49.5q0 29 -21 44t-72 15h-152zM325 304
q0 21 -4.5 46.5t-16.5 47.5t-33 36.5t-53 14.5q-42 0 -65 -31t-23 -87q0 -20 4.5 -44t16.5 -45t33 -35t53 -14q42 0 65 29.5t23 81.5zM192 700l66 5l23 -5l5 -49l-10 -43l-66 -5l-22 5l-5 50z" />
    <glyph glyph-name="Gcommaaccent" unicode="&#x122;" horiz-adv-x="731" 
d="M340 -227l37 102l-32 30v45h89v-78l-74 -105zM385 -17q-69 0 -131.5 23.5t-110 69t-75 112.5t-27.5 154q0 84 25.5 149.5t72.5 112.5t113.5 75.5t148.5 37.5q39 0 74.5 -6.5t66.5 -16.5t55 -22t39 -22v-141h-26l-45 110q-12 12 -28 24t-37.5 21.5t-48 16t-58.5 6.5
q-58 0 -104.5 -23.5t-79 -67t-50 -105t-17.5 -136.5q0 -65 17.5 -126.5t51 -109t82.5 -76t112 -28.5q51 0 89 20.5t57 41.5v213l-86 11l2 19l124 -2l112 2l2 -19l-64 -11v-236q-21 -9 -51 -20t-64.5 -21.5t-70.5 -18.5t-70 -11z" />
    <glyph glyph-name="gcommaaccent" unicode="&#x123;" horiz-adv-x="494" 
d="M234 480q48 0 88.5 -18.5t61.5 -50.5l56 69h49v-79h-69l-23 -13q11 -24 11 -50q0 -62 -44 -107t-143 -70q-27 0 -48 6l-52 -56q0 -26 13.5 -38.5t36.5 -12.5h179q62 0 90 -27.5t28 -68.5q0 -32 -18 -62t-50 -57t-77.5 -50t-99.5 -39q-104 0 -153.5 33t-49.5 103v16
l110 87q-26 8 -41.5 18.5t-24 23t-11.5 26.5t-3 31v8l98 71q-45 16 -73 50t-28 80q0 62 44 106.5t143 70.5zM151 -11q-18 -18 -29 -32.5t-16.5 -26t-7 -21t-1.5 -17.5q0 -41 35 -66.5t90 -24.5q36 0 67.5 10.5t55.5 28t37.5 41t13.5 49.5q0 29 -21 44t-72 15h-152zM325 304
q0 21 -4.5 46.5t-16.5 47.5t-33 36.5t-53 14.5q-42 0 -65 -31t-23 -87q0 -20 4.5 -44t16.5 -45t33 -35t53 -14q42 0 65 29.5t23 81.5zM246 623l32 -31v-45h-88v79l73 104l21 -6z" />
    <glyph glyph-name="Hcircumflex" unicode="&#x124;" horiz-adv-x="749" 
d="M241 767l116 136h47l116 -136h-30l-104 76l-6 6l-6 -6l-103 -76h-30zM30 19l89 10v643l-89 9l2 20l132 -2l129 2l3 -20l-87 -9v-294h334v294l-90 9l3 20l133 -2l128 2l3 -20l-87 -9v-643l87 -10l-3 -20l-128 2l-133 -2l-3 20l90 10v320h-334v-320l87 -10l-3 -20l-129 2
l-132 -2z" />
    <glyph glyph-name="hcircumflex" unicode="&#x125;" horiz-adv-x="571" 
d="M8 767l116 136h47l115 -136h-29l-104 76l-6 6l-6 -6l-104 -76h-29zM190 27l55 -8l-3 -20l-89 2l-110 -2l-3 20l70 8v641l-69 -7l-3 19l125 32l27 2v-337l164 104q41 0 66 -9.5t39 -29.5t19 -49.5t5 -69.5v-296l78 -8l-3 -20l-114 2l-90 -2l-2 20l51 8v306
q0 47 -17.5 65.5t-49.5 18.5q-26 0 -52 -13t-57 -33l-37 -21v-323z" />
    <glyph glyph-name="Hbar" unicode="&#x126;" horiz-adv-x="749" 
d="M30 19l89 10v643l-89 9l2 20l132 -2l129 2l3 -20l-87 -9v-172h334v172l-90 9l3 20l133 -2l128 2l3 -20l-87 -9v-643l87 -10l-3 -20l-128 2l-133 -2l-3 20l90 10v320h-334v-320l87 -10l-3 -20l-129 2l-132 -2zM543 378v100h-334v-100h334z" />
    <glyph glyph-name="hbar" unicode="&#x127;" horiz-adv-x="571" 
d="M183 27l55 -8l-3 -20l-89 2l-110 -2l-3 20l70 8v542h-72v22h72v77l-69 -7l-3 19l125 32l27 2v-123h140v-22h-140v-192l164 104q41 0 66 -9.5t39 -29.5t19 -49.5t5 -69.5v-296l78 -8l-3 -20l-114 2l-90 -2l-2 20l51 8v306q0 47 -17.5 65.5t-49.5 18.5q-26 0 -52 -13
t-57 -33l-37 -21v-323z" />
    <glyph glyph-name="Itilde" unicode="&#x128;" horiz-adv-x="331" 
d="M40 866l67 21l175 -67l34 70h14l-24 -96l-67 -22l-175 68l-34 -71h-14zM167 1l-132 -2l-2 21l89 9v643l-89 9l2 20l132 -2l132 2l2 -20l-89 -9v-643l89 -9l-2 -21z" />
    <glyph glyph-name="itilde" unicode="&#x129;" horiz-adv-x="277" 
d="M6 678l66 21l176 -70l30 70h17l-25 -99l-66 -18l-177 71l-29 -71h-18zM146 1l-109 -2l-2 20l69 8v400l-71 -12l-3 19l127 36l27 2v-445l73 -8l-2 -20z" />
    <glyph glyph-name="Imacron" unicode="&#x12a;" horiz-adv-x="331" 
d="M27 840h279v-40h-279v40zM167 1l-132 -2l-2 21l89 9v643l-89 9l2 20l132 -2l132 2l2 -20l-89 -9v-643l89 -9l-2 -21z" />
    <glyph glyph-name="imacron" unicode="&#x12b;" horiz-adv-x="277" 
d="M-1 670h280v-39h-280v39zM146 1l-109 -2l-2 20l69 8v400l-71 -12l-3 19l127 36l27 2v-445l73 -8l-2 -20z" />
    <glyph glyph-name="Ibreve" unicode="&#x12c;" horiz-adv-x="331" 
d="M168 809q23 0 41.5 7.5t32.5 18t24.5 23t17.5 22.5l14 -11q-6 -12 -13.5 -26.5t-21 -29.5t-33 -30.5t-49.5 -28.5q-30 0 -53 11t-40.5 28.5t-29.5 37.5t-20 38l15 11q7 -11 17 -23.5t24 -23t32.5 -17.5t41.5 -7zM167 1l-132 -2l-2 21l89 9v643l-89 9l2 20l132 -2l132 2
l2 -20l-89 -9v-643l89 -9l-2 -21z" />
    <glyph glyph-name="ibreve" unicode="&#x12d;" horiz-adv-x="277" 
d="M138 605q22 0 39.5 7.5t31 18.5t23.5 25t17 26l17 -11q-13 -29 -38.5 -60t-76.5 -61q-30 0 -54.5 12t-42.5 30t-30 39t-18 39l16 12q7 -12 17 -26t24.5 -25t33 -18.5t41.5 -7.5zM146 1l-109 -2l-2 20l69 8v400l-71 -12l-3 19l127 36l27 2v-445l73 -8l-2 -20z" />
    <glyph glyph-name="Iogonek" unicode="&#x12e;" horiz-adv-x="328" 
d="M181 1l-52 -125v-32q0 -38 30 -51.5t75 -13.5v-19q-92 0 -131.5 25.5t-39.5 75.5v38l94 102l-125 -2l-2 21l89 9v643l-89 9l2 20l132 -2l132 2l2 -20l-89 -9v-643l89 -9l-2 -21z" />
    <glyph glyph-name="iogonek" unicode="&#x12f;" horiz-adv-x="277" 
d="M160 1l-52 -125v-32q0 -38 29.5 -51.5t74.5 -13.5v-19q-92 0 -131 25.5t-39 75.5v40l93 100l-98 -2l-2 20l69 8v400l-71 -12l-3 19l127 36l27 2v-445l73 -8l-2 -20zM103 690l63 5l25 -5l5 -49l-9 -44l-63 -5l-24 5l-6 51z" />
    <glyph glyph-name="Idotaccent" unicode="&#x130;" horiz-adv-x="331" 
d="M125 881l66 5l23 -5l5 -49l-9 -43l-67 -5l-22 5l-5 50zM167 1l-132 -2l-2 21l89 9v643l-89 9l2 20l132 -2l132 2l2 -20l-89 -9v-643l89 -9l-2 -21z" />
    <glyph glyph-name="dotlessi" unicode="&#x131;" horiz-adv-x="277" 
d="M146 1l-109 -2l-2 20l69 8v400l-71 -12l-3 19l127 36l27 2v-445l73 -8l-2 -20z" />
    <glyph glyph-name="IJ" unicode="&#x132;" horiz-adv-x="587" 
d="M474 98q0 -51 -8.5 -86.5t-34.5 -65.5l-102 -121h-72v90h103l9 20q5 10 7.5 22.5t4 31.5t2 45.5t0.5 65.5v572l-69 10l2 19l114 -2l128 2l2 -20l-86 -9v-574zM167 2l-132 -2l-2 20l89 9v643l-89 9l2 20l132 -2l104 2l2 -20l-61 -9v-643l88 -9l-3 -20z" />
    <glyph glyph-name="ij" unicode="&#x133;" horiz-adv-x="471" 
d="M102 690l63 5l25 -5l5 -49l-9 -44l-63 -5l-24 5l-6 51zM318 690l63 5l25 -5l5 -49l-9 -44l-63 -5l-24 5l-6 51zM305 -139q5 13 10 36.5t5 66.5v463l-71 -12l-4 20l128 35l27 2v-490q0 -35 -9 -59t-32 -52l-88 -107h-74v79h101zM146 1l-109 -2l-3 20l70 8v400l-71 -12
l-3 19l127 36l27 2v-445l73 -8l-3 -20z" />
    <glyph glyph-name="Jcircumflex" unicode="&#x134;" horiz-adv-x="328" 
d="M29 767l116 136h47l115 -136h-29l-104 76l-6 6l-6 -6l-103 -76h-30zM217 93q0 -60 -11 -96t-37 -66l-93 -106h-76v81h109l6 21q3 10 5.5 22t3.5 31t1.5 46t0.5 66v580l-106 9l3 20l148 -2l130 2l2 -20l-86 -9v-579z" />
    <glyph glyph-name="jcircumflex" unicode="&#x135;" horiz-adv-x="256" 
d="M1 542l115 178h40l116 -178h-20l-106 101l-10 10l-10 -10l-105 -101h-20zM90 -139q5 13 10 37t5 66v463l-71 -12l-4 20l128 35l27 2v-490q0 -35 -9 -59t-32 -52l-89 -107h-74v79h103z" />
    <glyph glyph-name="Kcommaaccent" unicode="&#x136;" horiz-adv-x="689" 
d="M335 -125l-32 30v45h88v-78l-73 -105l-21 6zM233 386l302 286l-82 9l3 20l102 -2l91 2l3 -20l-80 -11l-311 -298l44 3l314 -348l59 -8l-2 -20l-101 2l-59 -2l-292 333l-15 23v-326l80 -10l-2 -20l-123 2l-132 -2l-2 20l89 10v643l-89 9l2 20l132 -2l123 2l2 -20l-80 -9
v-304z" />
    <glyph glyph-name="kcommaaccent" unicode="&#x137;" horiz-adv-x="527" 
d="M267 -125l-31 30v45h88v-78l-74 -105l-20 6zM441 1l-57 -2l-188 232l-13 21v-225l62 -8l-2 -20l-97 2l-111 -2l-2 20l70 8v640l-69 -7l-4 20l126 32l27 2v-449l27 17l183 157l-46 8v19l77 -1l74 1l3 -19l-60 -8l-211 -173h41l206 -240l45 -7l-2 -20z" />
    <glyph glyph-name="kgreenlandic" unicode="&#x138;" horiz-adv-x="523" 
d="M436 1l-56 -2l-184 230l-13 22v-224l62 -8l-2 -20l-97 2l-111 -2l-2 20l70 8v395l-69 -10l-4 20l126 34l27 2v-201l25 15l187 157l-46 8v19l80 -1l72 1l2 -19l-59 -8l-192 -156l18 -18l202 -239l46 -7l-2 -20z" />
    <glyph glyph-name="Lacute" unicode="&#x139;" horiz-adv-x="570" 
d="M152 767l60 133h94l-123 -133h-31zM168 1l-136 -2l-2 20l89 10v643l-89 9l2 20l134 -2l130 2l2 -20l-89 -9v-644l262 2l65 154h22l-17 -185z" />
    <glyph glyph-name="lacute" unicode="&#x13a;" horiz-adv-x="271" 
d="M130 755l48 157h94l-124 -157h-18zM144 1l-108 -2l-3 20l70 8v640l-69 -7l-3 20l125 32l27 2v-687l73 -8l-3 -20z" />
    <glyph glyph-name="Lcommaaccent" unicode="&#x13b;" horiz-adv-x="570" 
d="M312 -125l-32 30v45h88v-78l-73 -105l-21 6zM168 1l-136 -2l-2 20l89 10v643l-89 9l2 20l134 -2l130 2l2 -20l-89 -9v-644l262 2l65 154h22l-17 -185z" />
    <glyph glyph-name="lcommaaccent" unicode="&#x13c;" horiz-adv-x="271" 
d="M132 -125l-32 30v45h88v-78l-73 -105l-21 6zM144 1l-108 -2l-3 20l70 8v640l-69 -7l-3 20l125 32l27 2v-687l73 -8l-3 -20z" />
    <glyph glyph-name="Lcaron" unicode="&#x13d;" horiz-adv-x="573" 
d="M444 468q3 7 11 27.5t16.5 44t15 43t6.5 24.5l-51 3l-5 53l6 43l68 4l28 -4l4 -51l-6 -45l-74 -149zM168 1l-136 -2l-2 20l89 10v643l-89 9l2 20l134 -2l130 2l2 -20l-89 -9v-644l262 2l65 154h22l-17 -185z" />
    <glyph glyph-name="lcaron" unicode="&#x13e;" horiz-adv-x="342" 
d="M281 623l-43 18l1 67h93l-2 -87l-72 -132l-19 6zM144 1l-108 -2l-3 20l70 8v640l-69 -7l-3 20l125 32l27 2v-687l73 -8l-3 -20z" />
    <glyph glyph-name="Ldot" unicode="&#x13f;" horiz-adv-x="570" 
d="M382 454l25 -4l4 -49l-10 -42l-63 -5l-24 5l-5 50l10 41zM168 1l-136 -2l-2 20l89 10v643l-89 9l2 20l134 -2l130 2l2 -20l-89 -9v-644l262 2l65 154h22l-17 -185z" />
    <glyph glyph-name="ldot" unicode="&#x140;" horiz-adv-x="364" 
d="M328 454l24 -4l5 -49l-10 -43l-63 -5l-23 5l-5 50l8 42zM144 1l-108 -2l-3 20l70 8v640l-69 -7l-3 20l125 32l27 2v-687l73 -8l-3 -20z" />
    <glyph glyph-name="Lslash" unicode="&#x141;" horiz-adv-x="570" 
d="M168 1l-136 -2l-2 20l89 10v316l-88 -43v28l88 43v299l-89 9l2 20l134 -2l130 2l2 -20l-89 -9v-254l104 51v-27l-104 -52v-362l262 2l65 154h22l-17 -185z" />
    <glyph glyph-name="lslash" unicode="&#x142;" horiz-adv-x="271" 
d="M144 1l-108 -2l-3 20l70 8v331l-71 -35v25l71 35v284l-69 -7l-3 20l125 32l27 2v-292l72 36v-25l-72 -36v-370l73 -8l-3 -20z" />
    <glyph glyph-name="Nacute" unicode="&#x143;" horiz-adv-x="718" 
d="M350 767l60 133h94l-123 -133h-31zM179 593l-23 55v-619l88 -10l-3 -20l-99 2l-110 -2l-2 20l89 10v638l-87 14l3 20l95 -2l80 2l350 -531l22 -43v545l-87 9l2 20l99 -2l109 2l3 -20l-90 -9v-676h-50z" />
    <glyph glyph-name="nacute" unicode="&#x144;" horiz-adv-x="572" 
d="M256 542l54 172h92l-127 -172h-19zM146 1l-109 -2l-3 20l70 8v400l-71 -12l-3 20l127 35l23 2l3 -97l164 106q38 -1 63 -8.5t39 -24.5q15 -17 21 -44.5t6 -69.5v-307l79 -8l-3 -20l-114 2l-91 -2l-2 20l51 8v306q0 47 -17 65.5t-51 18.5q-28 0 -53 -13t-55 -33l-36 -22
v-322l55 -8l-3 -20z" />
    <glyph glyph-name="Ncommaaccent" unicode="&#x145;" horiz-adv-x="718" 
d="M360 -125l-32 30v45h88v-78l-74 -105l-20 6zM179 593l-23 55v-619l88 -10l-3 -20l-99 2l-110 -2l-2 20l89 10v638l-87 14l3 20l95 -2l80 2l350 -531l22 -43v545l-87 9l2 20l99 -2l109 2l3 -20l-90 -9v-676h-50z" />
    <glyph glyph-name="ncommaaccent" unicode="&#x146;" horiz-adv-x="572" 
d="M277 -125l-32 30v45h88v-78l-74 -105l-20 6zM146 1l-109 -2l-3 20l70 8v400l-71 -12l-3 20l127 35l23 2l3 -97l164 106q38 -1 63 -8.5t39 -24.5q15 -17 21 -44.5t6 -69.5v-307l79 -8l-3 -20l-114 2l-91 -2l-2 20l51 8v306q0 47 -17 65.5t-51 18.5q-28 0 -53 -13t-55 -33
l-36 -22v-322l55 -8l-3 -20z" />
    <glyph glyph-name="Ncaron" unicode="&#x147;" horiz-adv-x="718" 
d="M268 900l103 -76l6 -6l6 6l104 76h30l-116 -136h-47l-116 136h30zM179 593l-23 55v-619l88 -10l-3 -20l-99 2l-110 -2l-2 20l89 10v638l-87 14l3 20l95 -2l80 2l350 -531l22 -43v545l-87 9l2 20l99 -2l109 2l3 -20l-90 -9v-676h-50z" />
    <glyph glyph-name="ncaron" unicode="&#x148;" horiz-adv-x="572" 
d="M173 725l106 -102l10 -10l10 10l106 102h20l-116 -178h-40l-115 178h19zM146 1l-109 -2l-3 20l70 8v400l-71 -12l-3 20l127 35l23 2l3 -97l164 106q38 -1 63 -8.5t39 -24.5q15 -17 21 -44.5t6 -69.5v-307l79 -8l-3 -20l-114 2l-91 -2l-2 20l51 8v306q0 47 -17 65.5
t-51 18.5q-28 0 -53 -13t-55 -33l-36 -22v-322l55 -8l-3 -20z" />
    <glyph glyph-name="napostrophe" unicode="&#x149;" horiz-adv-x="572" 
d="M72 501l41 124l-42 18l2 65h91l-2 -84l-71 -129zM146 1l-109 -2l-3 20l70 8v400l-71 -12l-3 20l127 35l23 2l3 -97l164 106q38 -1 63 -8.5t39 -24.5q15 -17 21 -44.5t6 -69.5v-307l79 -8l-3 -20l-114 2l-91 -2l-2 20l51 8v306q0 47 -17 65.5t-51 18.5q-28 0 -53 -13
t-55 -33l-36 -22v-322l55 -8l-3 -20z" />
    <glyph glyph-name="Eng" unicode="&#x14a;" horiz-adv-x="718" 
d="M156 29l86 -10l-3 -20l-98 2l-109 -2l-2 20l89 10v638l-87 14l2 20l94 -2l83 2l345 -524l26 -53v548l-88 9l3 20l100 -2l108 2l3 -20l-90 -9v-676l-117 -231h-105v77h74l80 126l43 28h-26l-390 600l-21 55v-622z" />
    <glyph glyph-name="eng" unicode="&#x14b;" horiz-adv-x="536" 
d="M273 -236v83h103l7 18q4 13 8.5 37t4.5 68v363q0 47 -17 65.5t-51 18.5q-28 0 -53 -13t-55 -32l-36 -23v-322l55 -8l-3 -20l-90 2l-109 -2l-3 20l70 8v400l-71 -12l-3 20l127 35l23 2l3 -97l164 106q73 0 101 -32q15 -17 21.5 -44.5t6.5 -68.5v-352q0 -18 -2.5 -31.5
t-8 -27t-14.5 -27t-23 -31.5l-80 -103h-75z" />
    <glyph glyph-name="Omacron" unicode="&#x14c;" horiz-adv-x="764" 
d="M239 840h280v-40h-280v40zM392 717q73 0 134 -27t105 -74.5t68.5 -112t24.5 -139.5q0 -163 -86.5 -258.5t-265.5 -122.5q-73 0 -134 27t-104.5 74.5t-68 112t-24.5 139.5q0 163 86 258.5t265 122.5zM142 367q0 -67 16.5 -129.5t49 -111t80.5 -78t112 -29.5q55 0 97 24.5
t70 67t42 100t14 123.5t-16.5 128.5t-49 111t-80.5 78t-112 29.5q-56 0 -97.5 -24.5t-69.5 -66.5t-42 -99.5t-14 -123.5z" />
    <glyph glyph-name="omacron" unicode="&#x14d;" horiz-adv-x="526" 
d="M123 670h280v-39h-280v39zM274 481q49 0 89 -18t68.5 -50t44 -75.5t15.5 -94.5q0 -111 -62 -174.5t-176 -83.5q-49 0 -89 18t-68.5 50t-44 75.5t-15.5 93.5q0 112 62 174.5t176 84.5zM121 242q0 -45 11 -85.5t31.5 -71.5t49.5 -49t64 -18q32 0 56 15.5t40.5 43.5t24.5 65
t8 81q0 50 -11.5 91.5t-32.5 71t-49.5 45.5t-62.5 16q-32 0 -56.5 -15.5t-40.5 -43t-24 -65t-8 -81.5z" />
    <glyph glyph-name="Obreve" unicode="&#x14e;" horiz-adv-x="764" 
d="M392 809q23 0 41.5 7.5t32.5 18t24.5 23t17.5 22.5l14 -11q-6 -12 -13.5 -26.5t-20.5 -29.5t-33 -30.5t-50 -28.5q-30 0 -53 11t-40.5 28.5t-29.5 37.5t-20 38l15 11q7 -11 17 -23.5t24 -23t32.5 -17.5t41.5 -7zM392 717q73 0 134 -27t105 -74.5t68.5 -112t24.5 -139.5
q0 -163 -86.5 -258.5t-265.5 -122.5q-73 0 -134 27t-104.5 74.5t-68 112t-24.5 139.5q0 163 86 258.5t265 122.5zM142 367q0 -67 16.5 -129.5t49 -111t80.5 -78t112 -29.5q55 0 97 24.5t70 67t42 100t14 123.5t-16.5 128.5t-49 111t-80.5 78t-112 29.5q-56 0 -97.5 -24.5
t-69.5 -66.5t-42 -99.5t-14 -123.5z" />
    <glyph glyph-name="obreve" unicode="&#x14f;" horiz-adv-x="526" 
d="M264 605q22 0 39.5 7.5t31 18.5t23 25t17.5 26l16 -11q-13 -29 -38 -60t-77 -61q-30 0 -54 12t-42.5 30t-30.5 39t-18 39l17 12q6 -12 16 -26t24.5 -25t33 -18.5t42.5 -7.5zM274 481q49 0 89 -18t68.5 -50t44 -75.5t15.5 -94.5q0 -111 -62 -174.5t-176 -83.5
q-49 0 -89 18t-68.5 50t-44 75.5t-15.5 93.5q0 112 62 174.5t176 84.5zM121 242q0 -45 11 -85.5t31.5 -71.5t49.5 -49t64 -18q32 0 56 15.5t40.5 43.5t24.5 65t8 81q0 50 -11.5 91.5t-32.5 71t-49.5 45.5t-62.5 16q-32 0 -56.5 -15.5t-40.5 -43t-24 -65t-8 -81.5z" />
    <glyph glyph-name="Ohungarumlaut" unicode="&#x150;" horiz-adv-x="764" 
d="M293 767l67 133h102l-139 -133h-30zM444 767l68 133h102l-140 -133h-30zM392 717q73 0 134 -27t105 -74.5t68.5 -112t24.5 -139.5q0 -163 -86.5 -258.5t-265.5 -122.5q-73 0 -134 27t-104.5 74.5t-68 112t-24.5 139.5q0 163 86 258.5t265 122.5zM142 367
q0 -67 16.5 -129.5t49 -111t80.5 -78t112 -29.5q55 0 97 24.5t70 67t42 100t14 123.5t-16.5 128.5t-49 111t-80.5 78t-112 29.5q-56 0 -97.5 -24.5t-69.5 -66.5t-42 -99.5t-14 -123.5z" />
    <glyph glyph-name="ohungarumlaut" unicode="&#x151;" horiz-adv-x="526" 
d="M176 542l55 173h103l-138 -173h-20zM331 542l55 173h102l-138 -173h-19zM274 481q49 0 89 -18t68.5 -50t44 -75.5t15.5 -94.5q0 -111 -62 -174.5t-176 -83.5q-49 0 -89 18t-68.5 50t-44 75.5t-15.5 93.5q0 112 62 174.5t176 84.5zM121 242q0 -45 11 -85.5t31.5 -71.5
t49.5 -49t64 -18q32 0 56 15.5t40.5 43.5t24.5 65t8 81q0 50 -11.5 91.5t-32.5 71t-49.5 45.5t-62.5 16q-32 0 -56.5 -15.5t-40.5 -43t-24 -65t-8 -81.5z" />
    <glyph glyph-name="OE" unicode="&#x152;" horiz-adv-x="942" 
d="M474 27v643l-109 6q-54 0 -95.5 -23t-70 -64t-43 -98t-14.5 -125q0 -72 20 -134t55.5 -108t84 -72t105.5 -26zM376 -10q-74 0 -135.5 26t-106 72.5t-69 110t-24.5 137.5q0 81 20 143.5t63 108.5t110 76.5t161 45.5l131 -10l371 1l4 -179h-18l-60 150l-259 1v-294l133 2
l41 111h20l-5 -122l5 -128h-20l-41 110l-133 2v-327l265 2l65 155h21l-17 -185l-400 2z" />
    <glyph glyph-name="oe" unicode="&#x153;" horiz-adv-x="832" 
d="M488 265q0 -101 48.5 -157.5t130.5 -56.5q30 0 61 13t59 32l9 -21q-40 -30 -80.5 -51.5t-88.5 -38.5q-57 0 -106.5 25.5t-80.5 76.5q-29 -39 -76.5 -64.5t-110.5 -37.5q-49 0 -89 18t-68.5 49.5t-44 75t-15.5 93.5q0 112 62 174.5t176 84.5q60 0 105.5 -27.5t73.5 -74.5
q29 42 73 66.5t96 36.5q46 0 78.5 -13.5t53 -38t29.5 -58t9 -73.5v-33h-304zM120 242q0 -45 11 -85.5t31.5 -71.5t49.5 -49t64 -18q32 0 56 15.5t40.5 43.5t25 65t8.5 81q0 50 -11.5 91t-32.5 70.5t-49.5 45.5t-62.5 16q-32 0 -56.5 -15.5t-41 -42.5t-24.5 -64.5t-8 -81.5z
M700 293q0 33 -3.5 61t-14 48.5t-29.5 32t-50 11.5q-53 0 -81 -43t-34 -115z" />
    <glyph glyph-name="Racute" unicode="&#x154;" horiz-adv-x="659" 
d="M286 767l60 133h94l-123 -133h-31zM30 19l89 10v643l-89 9l2 20l132 -2l176 2q44 0 84.5 -9.5t71 -30.5t48.5 -54t18 -80q0 -45 -19.5 -78t-52 -56.5t-74 -38t-86.5 -23.5l87 -32l183 -271l54 -10l-2 -19l-81 2l-63 -2l-207 313l-12 16h-80v-299l83 -10l-2 -20l-126 2
l-132 -2zM209 354h67q90 0 138 46.5t48 119.5q0 39 -11.5 68t-32 48.5t-48 29.5t-59.5 11l-102 -6v-317z" />
    <glyph glyph-name="racute" unicode="&#x155;" horiz-adv-x="374" 
d="M199 542l54 172h93l-127 -172h-20zM180 333l109 143h69v-89h-87q-5 -1 -14 -7.5t-19 -15.5t-19.5 -19t-14.5 -16l-22 -29v-271l99 -8l-3 -22l-135 2l-106 -2l-2 20l69 8v400l-71 -11l-3 19l128 35l22 2v-139z" />
    <glyph glyph-name="Rcommaaccent" unicode="&#x156;" horiz-adv-x="659" 
d="M340 -125l-32 30v45h89v-78l-74 -105l-20 6zM30 19l89 10v643l-89 9l2 20l132 -2l176 2q44 0 84.5 -9.5t71 -30.5t48.5 -54t18 -80q0 -45 -19.5 -78t-52 -56.5t-74 -38t-86.5 -23.5l87 -32l183 -271l54 -10l-2 -19l-81 2l-63 -2l-207 313l-12 16h-80v-299l83 -10l-2 -20
l-126 2l-132 -2zM209 354h67q90 0 138 46.5t48 119.5q0 39 -11.5 68t-32 48.5t-48 29.5t-59.5 11l-102 -6v-317z" />
    <glyph glyph-name="rcommaaccent" unicode="&#x157;" horiz-adv-x="374" 
d="M134 -125l-32 30v45h88v-78l-74 -105l-20 6zM180 333l109 143h69v-89h-87q-5 -1 -14 -7.5t-19 -15.5t-19.5 -19t-14.5 -16l-22 -29v-271l99 -8l-3 -22l-135 2l-106 -2l-2 20l69 8v400l-71 -11l-3 19l128 35l22 2v-139z" />
    <glyph glyph-name="Rcaron" unicode="&#x158;" horiz-adv-x="659" 
d="M198 900l103 -76l5 -6l7 6l104 76h29l-116 -136h-47l-115 136h30zM30 19l89 10v643l-89 9l2 20l132 -2l176 2q44 0 84.5 -9.5t71 -30.5t48.5 -54t18 -80q0 -45 -19.5 -78t-52 -56.5t-74 -38t-86.5 -23.5l87 -32l183 -271l54 -10l-2 -19l-81 2l-63 -2l-207 313l-12 16h-80
v-299l83 -10l-2 -20l-126 2l-132 -2zM209 354h67q90 0 138 46.5t48 119.5q0 39 -11.5 68t-32 48.5t-48 29.5t-59.5 11l-102 -6v-317z" />
    <glyph glyph-name="rcaron" unicode="&#x159;" horiz-adv-x="376" 
d="M95 725l106 -102l9 -10l10 10l107 102h19l-115 -178h-40l-116 178h20zM180 333l109 143h69v-89h-87q-5 -1 -14 -7.5t-19 -15.5t-19.5 -19t-14.5 -16l-22 -29v-271l99 -8l-3 -22l-135 2l-106 -2l-2 20l69 8v400l-71 -11l-3 19l128 35l22 2v-139z" />
    <glyph glyph-name="Sacute" unicode="&#x15a;" horiz-adv-x="541" 
d="M272 767l60 133h94l-123 -133h-31zM256 -17q-68 0 -115 17t-87 46l-11 143h37l39 -96q26 -30 66.5 -50.5t88.5 -20.5q67 0 105 37t38 97q0 52 -29.5 86.5t-84.5 61.5l-119 60q-25 12 -47.5 26t-39 33t-26 43t-9.5 56q0 40 17 72t47 56t71 41t90 26q48 0 95.5 -13
t85.5 -37v-142h-26l-39 106q-23 23 -53 37.5t-74 14.5q-62 0 -98 -32.5t-36 -86.5q0 -45 28 -74t75 -52l114 -56q28 -15 53 -32t43.5 -38.5t29 -48.5t10.5 -62q0 -32 -11.5 -64t-39 -61t-73.5 -53t-115 -40z" />
    <glyph glyph-name="sacute" unicode="&#x15b;" horiz-adv-x="395" 
d="M178 542l54 172h93l-127 -172h-20zM282 421q-15 13 -36.5 20.5t-48.5 7.5q-32 0 -55 -17t-23 -49q0 -29 20.5 -47t53.5 -38l79 -44q50 -28 69.5 -56t18.5 -69q0 -59 -45.5 -92t-126.5 -52q-22 0 -44 4.5t-41.5 11.5t-36 15t-26.5 15l-10 114h35l44 -94q17 -14 39 -23.5
t50 -9.5q45 0 65.5 23.5t20.5 54.5q0 36 -19.5 55t-60.5 43l-79 45q-14 8 -28.5 18.5t-26 24t-18.5 30.5t-7 39q0 51 43 80.5t120 49.5q41 0 78 -13t62 -29v-108h-30z" />
    <glyph glyph-name="Scircumflex" unicode="&#x15c;" horiz-adv-x="541" 
d="M152 767l116 136h46l116 -136h-29l-104 76l-7 6l-5 -6l-104 -76h-29zM256 -17q-68 0 -115 17t-87 46l-11 143h37l39 -96q26 -30 66.5 -50.5t88.5 -20.5q67 0 105 37t38 97q0 52 -29.5 86.5t-84.5 61.5l-119 60q-25 12 -47.5 26t-39 33t-26 43t-9.5 56q0 40 17 72t47 56
t71 41t90 26q48 0 95.5 -13t85.5 -37v-142h-26l-39 106q-23 23 -53 37.5t-74 14.5q-62 0 -98 -32.5t-36 -86.5q0 -45 28 -74t75 -52l114 -56q28 -15 53 -32t43.5 -38.5t29 -48.5t10.5 -62q0 -32 -11.5 -64t-39 -61t-73.5 -53t-115 -40z" />
    <glyph glyph-name="scircumflex" unicode="&#x15d;" horiz-adv-x="395" 
d="M73 542l114 178h41l115 -178h-19l-107 101l-9 10l-10 -10l-106 -101h-19zM282 421q-15 13 -36.5 20.5t-48.5 7.5q-32 0 -55 -17t-23 -49q0 -29 20.5 -47t53.5 -38l79 -44q50 -28 69.5 -56t18.5 -69q0 -59 -45.5 -92t-126.5 -52q-22 0 -44 4.5t-41.5 11.5t-36 15t-26.5 15
l-10 114h35l44 -94q17 -14 39 -23.5t50 -9.5q45 0 65.5 23.5t20.5 54.5q0 36 -19.5 55t-60.5 43l-79 45q-14 8 -28.5 18.5t-26 24t-18.5 30.5t-7 39q0 51 43 80.5t120 49.5q41 0 78 -13t62 -29v-108h-30z" />
    <glyph glyph-name="Scedilla" unicode="&#x15e;" horiz-adv-x="541" 
d="M164 -203h76q16 10 24 27.5t8 34.5q0 16 -6.5 27t-17.5 18t-24.5 10.5t-27.5 4.5l47 65q-63 1 -107 17.5t-82 44.5l-11 143h37l39 -96q26 -30 66.5 -50.5t88.5 -20.5q67 0 105 37t38 97q0 52 -29.5 86.5t-84.5 61.5l-119 60q-25 12 -47.5 26t-39 33t-26 43t-9.5 56
q0 40 17 72t47 56t71 41t90 26q48 0 95.5 -13t85.5 -37v-142h-26l-39 106q-23 23 -53 37.5t-74 14.5q-62 0 -98 -32.5t-36 -86.5q0 -45 28 -74t75 -52l114 -56q28 -15 53 -32t43.5 -38.5t29 -48.5t10.5 -62q0 -32 -11 -63.5t-37 -60t-70.5 -52t-110.5 -39.5l-24 -35
q15 -1 30 -6t26.5 -14t18.5 -22t7 -29q0 -21 -8 -37t-20.5 -28t-27.5 -20t-29 -13l-61 -22h-40z" />
    <glyph glyph-name="scedilla" unicode="&#x15f;" horiz-adv-x="395" 
d="M282 421q-15 13 -36.5 20.5t-48.5 7.5q-32 0 -55 -17t-23 -49q0 -29 20.5 -47t53.5 -38l79 -44q50 -28 69.5 -56t18.5 -69q0 -54 -40 -87.5t-112 -51.5l-25 -39q15 -1 30 -6t27 -14t19 -22t7 -29q0 -21 -8.5 -37t-21.5 -28t-28 -20t-28 -13l-60 -22h-41l26 37h77
q15 10 23 27.5t8 34.5q0 16 -7 27t-17.5 18t-24 10.5t-26.5 4.5l45 66q-42 2 -82 17t-61 29l-10 114h35l44 -94q17 -14 39 -23.5t50 -9.5q45 0 65.5 23.5t20.5 54.5q0 36 -19.5 55t-60.5 43l-79 45q-14 8 -28.5 18.5t-26 24t-18.5 30.5t-7 39q0 51 43 80.5t120 49.5
q41 0 78 -13t62 -29v-108h-30z" />
    <glyph glyph-name="Scaron" unicode="&#x160;" horiz-adv-x="541" 
d="M181 900l104 -76l5 -6l7 6l103 76h30l-116 -136h-47l-115 136h29zM256 -17q-68 0 -115 17t-87 46l-11 143h37l39 -96q26 -30 66.5 -50.5t88.5 -20.5q67 0 105 37t38 97q0 52 -29.5 86.5t-84.5 61.5l-119 60q-25 12 -47.5 26t-39 33t-26 43t-9.5 56q0 40 17 72t47 56
t71 41t90 26q48 0 95.5 -13t85.5 -37v-142h-26l-39 106q-23 23 -53 37.5t-74 14.5q-62 0 -98 -32.5t-36 -86.5q0 -45 28 -74t75 -52l114 -56q28 -15 53 -32t43.5 -38.5t29 -48.5t10.5 -62q0 -32 -11.5 -64t-39 -61t-73.5 -53t-115 -40z" />
    <glyph glyph-name="scaron" unicode="&#x161;" horiz-adv-x="395" 
d="M88 725l106 -102l10 -10l10 10l107 102h19l-116 -178h-40l-115 178h19zM282 421q-15 13 -36.5 20.5t-48.5 7.5q-32 0 -55 -17t-23 -49q0 -29 20.5 -47t53.5 -38l79 -44q50 -28 69.5 -56t18.5 -69q0 -59 -45.5 -92t-126.5 -52q-22 0 -44 4.5t-41.5 11.5t-36 15t-26.5 15
l-10 114h35l44 -94q17 -14 39 -23.5t50 -9.5q45 0 65.5 23.5t20.5 54.5q0 36 -19.5 55t-60.5 43l-79 45q-14 8 -28.5 18.5t-26 24t-18.5 30.5t-7 39q0 51 43 80.5t120 49.5q41 0 78 -13t62 -29v-108h-30z" />
    <glyph glyph-name="Tcommaaccent" unicode="&#x162;" horiz-adv-x="584" 
d="M280 -125l-32 30v45h88v-78l-73 -105l-20 6zM439 -1l-147 2l-150 -2l-2 20l107 10v643h-157l-56 -153h-21v182l278 -2l280 2v-182h-21l-56 153h-157v-643l104 -10z" />
    <glyph glyph-name="tcommaaccent" unicode="&#x163;" horiz-adv-x="333" 
d="M168 -125l-32 30v45h88v-78l-73 -105l-21 6zM5 434v13l17 16h73v72l68 54h9v-130h151v-25h-150v-323q0 -28 13 -46t44 -18q25 0 44 7t41 18l10 -19l-121 -68q-39 0 -61.5 8.5t-33.5 25t-13.5 39.5t-2.5 52v324h-88z" />
    <glyph glyph-name="Tcaron" unicode="&#x164;" horiz-adv-x="584" 
d="M182 900l103 -76l6 -6l6 6l104 76h30l-116 -136h-47l-116 136h30zM439 -1l-147 2l-150 -2l-2 20l107 10v643h-157l-56 -153h-21v182l278 -2l280 2v-182h-21l-56 153h-157v-643l104 -10z" />
    <glyph glyph-name="tcaron" unicode="&#x165;" horiz-adv-x="369" 
d="M276 510l39 115l-44 19l2 62h88l-2 -82l-63 -120zM5 434v13l17 16h73v72l68 54h9v-130h151v-25h-150v-323q0 -28 13 -46t44 -18q25 0 44 7t41 18l10 -19l-121 -68q-39 0 -61.5 8.5t-33.5 25t-13.5 39.5t-2.5 52v324h-88z" />
    <glyph glyph-name="Tbar" unicode="&#x166;" horiz-adv-x="584" 
d="M439 -1l-147 2l-150 -2l-2 20l107 10v403h-107v22h107v218h-157l-56 -153h-21v182l278 -2l280 2v-182h-21l-56 153h-157v-218h107v-22h-107v-403l104 -10z" />
    <glyph glyph-name="tbar" unicode="&#x167;" horiz-adv-x="333" 
d="M5 434v13l17 16h73v72l68 54h9v-130h151v-25h-150v-111h133v-22h-133v-190q0 -28 13 -46t44 -18q25 0 44 7t41 18l10 -19l-121 -68q-39 0 -61.5 8.5t-33.5 25t-13.5 39.5t-2.5 52v191h-84v22h84v111h-88z" />
    <glyph glyph-name="Utilde" unicode="&#x168;" horiz-adv-x="690" 
d="M247 866l67 21l174 -67l34 70h15l-25 -96l-66 -22l-175 68l-34 -71h-14zM455 681l2 20l111 -2l106 2l3 -20l-86 -9v-430q0 -48 -10.5 -89t-37.5 -74t-73.5 -57.5t-117.5 -38.5q-69 0 -117 19t-77.5 54t-43 83.5t-13.5 107.5v425l-89 9l2 20l135 -2l129 2l3 -20l-87 -9
v-440q0 -46 11 -84t33.5 -65.5t56.5 -42.5t79 -15q80 0 124.5 57t44.5 152v438z" />
    <glyph glyph-name="utilde" unicode="&#x169;" horiz-adv-x="548" 
d="M142 678l67 21l175 -70l30 70h18l-25 -99l-66 -18l-177 71l-29 -71h-17zM454 128q0 -32 3.5 -52t9.5 -39l54 3l2 -19l-125 -25l-22 88l-159 -99q-43 1 -69 9.5t-40 27.5t-18.5 47.5t-4.5 68.5v290l-72 -7l-3 22l129 25l26 2v-339q0 -45 17 -64.5t51 -19.5q26 0 51.5 13
t54.5 33l35 21v314l-66 -7l-2 22l123 25l25 2v-342z" />
    <glyph glyph-name="Umacron" unicode="&#x16a;" horiz-adv-x="690" 
d="M226 840h279v-40h-279v40zM455 681l2 20l111 -2l106 2l3 -20l-86 -9v-430q0 -48 -10.5 -89t-37.5 -74t-73.5 -57.5t-117.5 -38.5q-69 0 -117 19t-77.5 54t-43 83.5t-13.5 107.5v425l-89 9l2 20l135 -2l129 2l3 -20l-87 -9v-440q0 -46 11 -84t33.5 -65.5t56.5 -42.5
t79 -15q80 0 124.5 57t44.5 152v438z" />
    <glyph glyph-name="umacron" unicode="&#x16b;" horiz-adv-x="548" 
d="M128 670h279v-39h-279v39zM454 128q0 -32 3.5 -52t9.5 -39l54 3l2 -19l-125 -25l-22 88l-159 -99q-43 1 -69 9.5t-40 27.5t-18.5 47.5t-4.5 68.5v290l-72 -7l-3 22l129 25l26 2v-339q0 -45 17 -64.5t51 -19.5q26 0 51.5 13t54.5 33l35 21v314l-66 -7l-2 22l123 25l25 2
v-342z" />
    <glyph glyph-name="Ubreve" unicode="&#x16c;" horiz-adv-x="690" 
d="M367 809q23 0 41.5 7.5t32.5 18t24 23l18 22.5l13 -11q-5 -12 -13 -26.5t-21 -29.5t-32.5 -30.5t-49.5 -28.5q-30 0 -53.5 11t-40.5 28.5t-29.5 37.5t-20.5 38l16 11q6 -11 16 -23.5t24 -23t32.5 -17.5t42.5 -7zM455 681l2 20l111 -2l106 2l3 -20l-86 -9v-430
q0 -48 -10.5 -89t-37.5 -74t-73.5 -57.5t-117.5 -38.5q-69 0 -117 19t-77.5 54t-43 83.5t-13.5 107.5v425l-89 9l2 20l135 -2l129 2l3 -20l-87 -9v-440q0 -46 11 -84t33.5 -65.5t56.5 -42.5t79 -15q80 0 124.5 57t44.5 152v438z" />
    <glyph glyph-name="ubreve" unicode="&#x16d;" horiz-adv-x="548" 
d="M270 605q22 0 39.5 7.5t31 18.5t23.5 25t17 26l17 -11q-14 -29 -39 -60t-77 -61q-30 0 -54 12t-42 30t-30 39t-18 39l16 12q7 -12 17 -26t24 -25t32.5 -18.5t42.5 -7.5zM454 128q0 -32 3.5 -52t9.5 -39l54 3l2 -19l-125 -25l-22 88l-159 -99q-43 1 -69 9.5t-40 27.5
t-18.5 47.5t-4.5 68.5v290l-72 -7l-3 22l129 25l26 2v-339q0 -45 17 -64.5t51 -19.5q26 0 51.5 13t54.5 33l35 21v314l-66 -7l-2 22l123 25l25 2v-342z" />
    <glyph glyph-name="Uring" unicode="&#x16e;" horiz-adv-x="690" 
d="M471 833q0 -23 -8.5 -38.5t-22.5 -26t-32.5 -17.5t-37.5 -13q-18 0 -36 5t-32.5 16t-23 28.5t-8.5 41.5q0 23 8.5 38t22.5 25.5t32 17.5t37 13q18 0 36 -5t32.5 -16t23.5 -28t9 -41zM305 830q0 -30 18 -48.5t47 -18.5t47.5 18.5t18.5 48.5q0 31 -18.5 49t-47.5 18
t-47 -18t-18 -49zM455 681l2 20l111 -2l106 2l3 -20l-86 -9v-430q0 -48 -10.5 -89t-37.5 -74t-73.5 -57.5t-117.5 -38.5q-69 0 -117 19t-77.5 54t-43 83.5t-13.5 107.5v425l-89 9l2 20l135 -2l129 2l3 -20l-87 -9v-440q0 -46 11 -84t33.5 -65.5t56.5 -42.5t79 -15
q80 0 124.5 57t44.5 152v438z" />
    <glyph glyph-name="uring" unicode="&#x16f;" horiz-adv-x="548" 
d="M206 630q0 -29 18 -46.5t46 -17.5q29 0 47.5 17.5t18.5 46.5t-18.5 47.5t-47.5 18.5q-28 0 -46 -18.5t-18 -47.5zM371 631q0 -24 -8 -38t-21.5 -23.5t-31.5 -16t-38 -14.5q-19 0 -37 4.5t-32.5 15.5t-23 28t-8.5 43q0 23 8.5 38t22 25.5t31.5 17.5t37 13q20 0 38.5 -5
t32.5 -16t22 -28.5t8 -43.5zM454 128q0 -32 3.5 -52t9.5 -39l54 3l2 -19l-125 -25l-22 88l-159 -99q-43 1 -69 9.5t-40 27.5t-18.5 47.5t-4.5 68.5v290l-72 -7l-3 22l129 25l26 2v-339q0 -45 17 -64.5t51 -19.5q26 0 51.5 13t54.5 33l35 21v314l-66 -7l-2 22l123 25l25 2
v-342z" />
    <glyph glyph-name="Uhungarumlaut" unicode="&#x170;" horiz-adv-x="691" 
d="M267 767l68 133h102l-140 -133h-30zM418 767l68 133h102l-139 -133h-31zM455 681l2 20l111 -2l106 2l3 -20l-86 -9v-430q0 -48 -10.5 -89t-37.5 -74t-73.5 -57.5t-117.5 -38.5q-69 0 -117 19t-77.5 54t-43 83.5t-13.5 107.5v425l-89 9l2 20l135 -2l129 2l3 -20l-87 -9
v-440q0 -46 11 -84t33.5 -65.5t56.5 -42.5t79 -15q80 0 124.5 57t44.5 152v438z" />
    <glyph glyph-name="uhungarumlaut" unicode="&#x171;" horiz-adv-x="548" 
d="M171 542l55 173h103l-139 -173h-19zM325 542l56 173h102l-138 -173h-20zM454 128q0 -32 3.5 -52t9.5 -39l54 3l2 -19l-125 -25l-22 88l-159 -99q-43 1 -69 9.5t-40 27.5t-18.5 47.5t-4.5 68.5v290l-72 -7l-3 22l129 25l26 2v-339q0 -45 17 -64.5t51 -19.5q26 0 51.5 13
t54.5 33l35 21v314l-66 -7l-2 22l123 25l25 2v-342z" />
    <glyph glyph-name="Uogonek" unicode="&#x172;" horiz-adv-x="690" 
d="M472 -240q-89 0 -126 25t-37 76v38l95 98q-8 -2 -24.5 -6t-26.5 -6q-69 0 -117 19t-77.5 53.5t-43 82.5t-13.5 107v425l-89 9l2 20l135 -2l129 2l3 -20l-87 -9v-440q0 -45 11 -83t33.5 -65t56.5 -42t79 -15q40 0 71 15t53 42t33.5 65t11.5 85v438l-88 9l2 20l111 -2
l106 2l3 -20l-86 -9v-430q0 -39 -7 -73.5t-23.5 -63.5t-44.5 -52.5t-71 -41.5l-71 -135v-32q0 -38 27 -51.5t70 -13.5v-19v0z" />
    <glyph glyph-name="uogonek" unicode="&#x173;" horiz-adv-x="548" 
d="M468 -240q-93 0 -132 25.5t-39 75.5v39l101 96l-22 88l-159 -99q-44 0 -70 9.5t-40 28.5t-18 46t-4 64v295l-72 -7l-3 22l129 25l26 2v-339q0 -45 17 -64.5t51 -19.5q26 0 51.5 13t54.5 33l35 21v314l-66 -7l-2 22l123 25l25 2v-342q0 -32 3.5 -52t9.5 -39l54 3l2 -19
l-97 -19l-62 -126v-32q0 -38 29 -51.5t75 -13.5v-19v0z" />
    <glyph glyph-name="Wcircumflex" unicode="&#x174;" horiz-adv-x="980" 
d="M596 767l-104 76l-7 6l-5 -6l-104 -76h-29l116 136h46l116 -136h-29zM71 673l-60 8l2 20l110 -2l129 2l2 -20l-86 -9l160 -514l10 -53l132 431l-46 137l-65 8l2 20l115 -2l129 2l2 -20l-86 -9l160 -516l10 -50l176 567l-89 8l3 20l109 -2l77 2l3 -20l-62 -8l-213 -665
l-48 -17l-148 450l-7 47l-150 -480l-48 -17z" />
    <glyph glyph-name="wcircumflex" unicode="&#x175;" horiz-adv-x="822" 
d="M279 542l115 178h40l115 -178h-19l-106 101l-10 10l-10 -10l-106 -101h-19zM421 289l-10 54l-114 -326l-70 -32l-161 454l-61 8l3 19l103 -1l96 1l3 -19l-58 -8l112 -333l14 -53l112 326l-21 60l-49 8l3 19l91 -1l96 1l2 -19l-58 -8l114 -336l12 -50l133 386l-60 8l3 19
l74 -1l84 1l3 -19l-63 -8l-154 -422l-71 -32z" />
    <glyph glyph-name="Ycircumflex" unicode="&#x176;" horiz-adv-x="696" 
d="M482 767l-104 76l-6 6l-6 -6l-103 -76h-30l116 136h47l116 -136h-30zM398 280l1 -251l113 -10l-2 -20l-156 2l-160 -2l-2 20l117 10v245l-226 399l-78 9l3 19l134 -2l131 2l3 -19l-90 -10l182 -323l13 -33l188 356l-95 10l2 19l116 -2l96 2l3 -19l-78 -8z" />
    <glyph glyph-name="ycircumflex" unicode="&#x177;" horiz-adv-x="529" 
d="M149 542l115 178h40l116 -178h-20l-106 101l-10 10l-10 -10l-106 -101h-19zM87 -235v86h89l101 174l-47 -21l-164 435l-61 8l3 19l106 -1l102 1l3 -19l-64 -8l119 -330l12 -54l133 384l-59 8l3 19l83 -1l76 1l2 -19l-64 -8l-154 -414l-115 -260h-104z" />
    <glyph glyph-name="Ydieresis" unicode="&#x178;" horiz-adv-x="696" 
d="M289 876l22 -5l5 -42l-9 -38l-54 -4l-22 4l-4 44l8 36zM505 876l22 -5l5 -42l-9 -38l-54 -4l-22 4l-4 44l8 36zM398 280l1 -251l113 -10l-2 -20l-156 2l-160 -2l-2 20l117 10v245l-226 399l-78 9l3 19l134 -2l131 2l3 -19l-90 -10l182 -323l13 -33l188 356l-95 10l2 19
l116 -2l96 2l3 -19l-78 -8z" />
    <glyph glyph-name="Zacute" unicode="&#x179;" horiz-adv-x="564" 
d="M268 767l60 133h94l-123 -133h-31zM511 187h25l-17 -187h-494l-5 28l386 609l30 37l-300 -3l-62 -151h-24v180h477l5 -25l-388 -612l-28 -36l322 2z" />
    <glyph glyph-name="zacute" unicode="&#x17a;" horiz-adv-x="454" 
d="M217 542l55 172h92l-128 -172h-19zM42 0l-6 18l265 387l34 38l-199 -2l-50 -114h-22v139h354l7 -19l-267 -391l-29 -33l213 2l60 116h23l-14 -141h-369z" />
    <glyph glyph-name="Zdotaccent" unicode="&#x17b;" horiz-adv-x="564" 
d="M248 882l66 5l23 -5l5 -49l-10 -43l-66 -5l-22 5l-5 50zM511 187h25l-17 -187h-494l-5 28l386 609l30 37l-300 -3l-62 -151h-24v180h477l5 -25l-388 -612l-28 -36l322 2z" />
    <glyph glyph-name="zdotaccent" unicode="&#x17c;" horiz-adv-x="454" 
d="M208 700l67 5l23 -5l5 -49l-9 -43l-68 -5l-21 5l-5 50zM42 0l-6 18l265 387l34 38l-199 -2l-50 -114h-22v139h354l7 -19l-267 -391l-29 -33l213 2l60 116h23l-14 -141h-369z" />
    <glyph glyph-name="Zcaron" unicode="&#x17d;" horiz-adv-x="564" 
d="M435 900l-116 -136h-47l-115 136h29l103 -76l6 -6l7 6l104 76h29zM511 187h25l-17 -187h-494l-5 28l386 609l30 37l-300 -3l-62 -151h-24v180h477l5 -25l-388 -612l-28 -36l322 2z" />
    <glyph glyph-name="zcaron" unicode="&#x17e;" horiz-adv-x="454" 
d="M130 726l105 -102l10 -10l10 10l106 102h20l-116 -178h-40l-115 178h20zM42 0l-6 18l265 387l34 38l-199 -2l-50 -114h-22v139h354l7 -19l-267 -391l-29 -33l213 2l60 116h23l-14 -141h-369z" />
    <glyph glyph-name="longs" unicode="&#x17f;" horiz-adv-x="328" 
d="M184 27l114 -6l-2 -22l-145 2l-115 -2l-2 20l70 8v408h-78v12l24 16h54v11q0 48 10.5 78.5t35.5 59.5l87 98h114v-71h-139l-12 -20q-4 -8 -7 -18t-5 -23.5t-3 -32.5t-1 -46v-472z" />
    <glyph glyph-name="florin" unicode="&#x192;" horiz-adv-x="301" 
d="M91 435h-79v12l25 16h54v11q0 48 10 78.5t35 59.5l88 98h103v-68h-126l-14 -21q-4 -9 -7 -18.5t-5 -23t-3 -32t-1 -45.5v-41h113v-26h-113v-442q0 -43 -7.5 -71t-32.5 -57l-91 -100h-61v70h85l10 17q9 16 13 40.5t4 74.5v468z" />
    <glyph glyph-name="Aringacute" unicode="&#x1fa;" horiz-adv-x="721" 
d="M357 728q-18 0 -35 4.5t-30.5 15t-22 26.5t-8.5 39q0 22 8 36t21.5 24t31 16.5t35.5 12.5l52 63h66l-94 -65q29 -5 51 -25t22 -58q0 -21 -8.5 -35.5t-22 -24.5t-31 -16.5t-35.5 -12.5zM357 751q27 0 45.5 18t18.5 46q0 29 -18.5 46t-45.5 17q-28 0 -46 -17t-18 -46
q0 -28 18 -46t46 -18zM8 19l80 9l246 660l48 22l253 -682l78 -9l-2 -20l-128 2l-133 -2l-2 20l87 10l-76 217h-252l-76 -217l88 -10l-2 -20l-107 2l-99 -2zM448 275l-79 221l-33 117l-119 -338h231z" />
    <glyph glyph-name="aringacute" unicode="&#x1fb;" horiz-adv-x="451" 
d="M321 634q0 -23 -8.5 -38.5t-22.5 -26t-32.5 -17.5t-37.5 -13q-18 0 -36 5t-32 16t-23 28.5t-9 41.5q0 23 8.5 38t22.5 25.5t32 17.5t37 13l28 43h95l-83 -50q26 -8 43.5 -28t17.5 -55zM155 631q0 -30 18 -48.5t47 -18.5t48 18.5t19 48.5q0 31 -19 49t-48 18t-47 -18
t-18 -49zM293 252l-147 -59q-33 -28 -33 -72q0 -38 19.5 -57.5t46.5 -19.5q23 0 43 11t32 19l39 27v151zM221 481q47 0 76.5 -8t46.5 -26t23 -48t6 -74v-207q0 -29 5 -47.5t13 -35.5l53 4l2 -19l-125 -25l-24 82l-130 -92q-62 0 -99.5 32t-37.5 90q0 25 9 47.5t34 47.5
l220 73v54q0 22 -1.5 41.5t-9 33.5t-23.5 22t-44 8q-19 0 -37.5 -4t-38.5 -11l-21 -90h-73v71z" />
    <glyph glyph-name="AEacute" unicode="&#x1fc;" horiz-adv-x="977" 
d="M542 767l59 133h94l-123 -133h-30zM511 349v317l-188 -317h188zM5 19l79 9l422 673l52 -2l372 2l5 -179h-20l-59 150l-253 1v-324l130 2l41 111h20l-5 -122l5 -127h-20l-41 110l-130 2v-298l262 2l65 155h21l-17 -185l-376 2l-133 -2l-3 20l89 10v295h-203l-180 -295
l83 -10l-2 -20l-105 2l-96 -2z" />
    <glyph glyph-name="aeacute" unicode="&#x1fd;" horiz-adv-x="704" 
d="M345 542l55 172h92l-127 -172h-20zM168 -15q-61 0 -99.5 32t-38.5 87q0 27 9 50t34 48l212 73v54q0 21 -1.5 40t-8 33.5t-20.5 23t-39 8.5q-23 0 -39.5 -3.5t-36.5 -11.5l-20 -92h-74v73l174 81q62 0 92.5 -14.5t42.5 -56.5q29 28 66 44t79 27q45 0 76 -13.5t50.5 -38
t28.5 -58t9 -73.5v-35h-297q0 -100 46 -156t124 -56q30 0 61.5 13t60.5 32l9 -22q-41 -30 -82 -51t-89 -38q-58 0 -109.5 26t-80.5 80zM572 291q0 33 -3.5 61.5t-13.5 49t-28 32.5t-48 12q-27 0 -47 -12t-33.5 -33.5t-21 -51t-9.5 -63.5zM285 252l-139 -59q-33 -28 -33 -72
q0 -38 19.5 -57.5t46.5 -19.5q23 0 43.5 11t31.5 19l31 22v156z" />
    <glyph glyph-name="Oslashacute" unicode="&#x1fe;" horiz-adv-x="764" 
d="M392 717q60 0 112 -18.5t94 -52.5l54 69h32l-66 -86q50 -48 78 -116t28 -149q0 -163 -86.5 -258.5t-265.5 -122.5q-59 0 -109.5 17t-91.5 49l-50 -64h-35l64 83q-52 48 -80.5 117t-28.5 151q0 163 86 258.5t265 122.5zM142 367q0 -64 15 -124t45 -108l348 449
q-32 45 -78.5 71t-106.5 26q-56 0 -97.5 -24.5t-69.5 -66.5t-42 -99.5t-14 -123.5zM623 334q0 62 -14.5 120.5t-43.5 106.5l-347 -450q32 -42 77.5 -67t104.5 -25q55 0 97 24.5t70 67t42 100t14 123.5zM355 767l60 133h94l-123 -133h-31z" />
    <glyph glyph-name="oslashacute" unicode="&#x1ff;" horiz-adv-x="523" 
d="M273 481q41 0 75.5 -13t61.5 -36l40 48h30l-53 -64q30 -32 46.5 -76.5t16.5 -96.5q0 -111 -62 -174.5t-176 -83.5q-42 0 -77.5 13.5t-63.5 37.5l-38 -46h-32l53 64q-59 65 -59 168q0 112 62 174.5t176 84.5zM405 223q0 78 -28 134l-219 -265q20 -34 50 -54t68 -20
q32 0 56 15.5t40.5 43.5t24.5 65t8 81zM120 242q0 -71 26 -126l219 262q-21 33 -50.5 51t-65.5 18q-32 0 -56.5 -15.5t-40.5 -43t-24 -65t-8 -81.5zM257 542l54 172h93l-127 -172h-20z" />
    <glyph glyph-name="Scommaaccent" unicode="&#x218;" horiz-adv-x="541" 
d="M273 -125l-32 30v45h88v-78l-73 -105l-21 6zM256 -17q-68 0 -115 17t-87 46l-11 143h37l39 -96q26 -30 66.5 -50.5t88.5 -20.5q67 0 105 37t38 97q0 52 -29.5 86.5t-84.5 61.5l-119 60q-25 12 -47.5 26t-39 33t-26 43t-9.5 56q0 40 17 72t47 56t71 41t90 26
q48 0 95.5 -13t85.5 -37v-142h-26l-39 106q-23 23 -53 37.5t-74 14.5q-62 0 -98 -32.5t-36 -86.5q0 -45 28 -74t75 -52l114 -56q28 -15 53 -32t43.5 -38.5t29 -48.5t10.5 -62q0 -32 -11.5 -64t-39 -61t-73.5 -53t-115 -40z" />
    <glyph glyph-name="scommaaccent" unicode="&#x219;" horiz-adv-x="395" 
d="M192 -125l-32 30v45h88v-78l-73 -105l-21 6zM282 421q-15 13 -36.5 20.5t-48.5 7.5q-32 0 -55 -17t-23 -49q0 -29 20.5 -47t53.5 -38l79 -44q50 -28 69.5 -56t18.5 -69q0 -59 -45.5 -92t-126.5 -52q-22 0 -44 4.5t-41.5 11.5t-36 15t-26.5 15l-10 114h35l44 -94
q17 -14 39 -23.5t50 -9.5q45 0 65.5 23.5t20.5 54.5q0 36 -19.5 55t-60.5 43l-79 45q-14 8 -28.5 18.5t-26 24t-18.5 30.5t-7 39q0 51 43 80.5t120 49.5q41 0 78 -13t62 -29v-108h-30z" />
    <glyph glyph-name="uni021A" unicode="&#x21a;" horiz-adv-x="584" 
d="M280 -125l-32 30v45h88v-78l-73 -105l-20 6zM439 -1l-147 2l-150 -2l-2 20l107 10v643h-157l-56 -153h-21v182l278 -2l280 2v-182h-21l-56 153h-157v-643l104 -10z" />
    <glyph glyph-name="uni021B" unicode="&#x21b;" horiz-adv-x="333" 
d="M168 -125l-32 30v45h88v-78l-73 -105l-21 6zM5 434v13l17 16h73v72l68 54h9v-130h151v-25h-150v-323q0 -28 13 -46t44 -18q25 0 44 7t41 18l10 -19l-121 -68q-39 0 -61.5 8.5t-33.5 25t-13.5 39.5t-2.5 52v324h-88z" />
    <glyph glyph-name="hsuperior" unicode="&#x2b0;" horiz-adv-x="373" 
d="M138 422l27 -5l-1 -17l-63 1l-69 -1l-1 17l35 5v339l-36 -3l-2 18l89 16l21 1v-180l99 56q43 0 62 -16q19 -18 19 -60v-171l39 -5l-2 -17l-73 1l-62 -1l-2 17l26 5v164q0 20 -8.5 28t-24.5 8q-14 0 -27 -6t-29 -14l-17 -10v-170z" />
    <glyph glyph-name="jsuperior" unicode="&#x2b2;" horiz-adv-x="170" 
d="M61 783l50 3l18 -3l3 -34l-7 -31l-49 -3l-17 3l-3 36zM50 341q2 8 4.5 23.5t2.5 42.5v226l-37 -4l-2 18l89 17l22 1v-246q0 -35 -11.5 -56t-31.5 -39l-56 -53h-45v60h63z" />
    <glyph glyph-name="wsuperior" unicode="&#x2b7;" horiz-adv-x="512" 
d="M264 546l-7 33l-63 -170l-61 -17l-97 248l-31 5l2 17l68 -1l67 1l1 -17l-31 -5l60 -162l9 -39l62 163l-15 38l-26 5l1 17l67 -1l64 1l2 -17l-31 -5l61 -164l8 -37l72 201l-33 5l1 17l48 -1l43 1l2 -17l-33 -5l-87 -231l-62 -17z" />
    <glyph glyph-name="ysuperior" unicode="&#x2b8;" horiz-adv-x="333" 
d="M54 271v68h69l62 84l-52 -19l-97 236l-31 5l2 17l73 -1l68 1l1 -17l-34 -5l66 -162l9 -38l74 200l-34 4l1 18l51 -1l44 1l2 -18l-34 -4l-89 -221l-71 -148h-80z" />
    <glyph glyph-name="apostrophemod" unicode="&#x2bc;" horiz-adv-x="177" 
d="M43 663l7 43l66 4l28 -4l5 -49l-7 -46l-73 -149l-19 7q3 7 10.5 27.5t16 44t15 43t6.5 24.5l-50 3z" />
    <glyph glyph-name="circumflex" unicode="&#x2c6;" horiz-adv-x="500" 
d="M108 542l117 178h37l117 -178h-19l-117 100l-115 -100h-20z" />
    <glyph glyph-name="caron" unicode="&#x2c7;" horiz-adv-x="500" 
d="M127 727l116 -102l116 102h20l-117 -179h-37l-117 179h19z" />
    <glyph glyph-name="breve" unicode="&#x2d8;" horiz-adv-x="500" 
d="M250 612q23 0 41 8.5t31.5 21t23.5 26.5t17 26l17 -12q-5 -12 -13 -28t-21 -34t-33 -36t-50 -34q-30 0 -53 13t-40.5 32.5t-29.5 43t-20 43.5l16 11q7 -12 17 -26t23.5 -26t32 -20.5t41.5 -8.5z" />
    <glyph glyph-name="dotaccent" unicode="&#x2d9;" horiz-adv-x="500" 
d="M212 700l63 5l21 -5l5 -46l-9 -40l-63 -5l-21 5l-4 47z" />
    <glyph glyph-name="ring" unicode="&#x2da;" horiz-adv-x="500" 
d="M349 631q0 -24 -8 -38.5t-21.5 -24t-31.5 -16t-38 -13.5q-19 0 -37 4.5t-32.5 15.5t-23.5 28t-9 43q0 23 8.5 38t22 25.5t31.5 17.5t38 13q20 0 38.5 -5t32.5 -16t22 -28.5t8 -43.5zM184 630q0 -29 18 -46.5t47 -17.5q28 0 46 17.5t18 46.5t-18 47.5t-46 18.5
q-29 0 -47 -18.5t-18 -47.5z" />
    <glyph glyph-name="ogonek" unicode="&#x2db;" horiz-adv-x="500" 
d="M246 -118v-39q0 -37 29.5 -51t74.5 -14v-18q-92 0 -131 25.5t-39 75.5v45l110 120h19z" />
    <glyph glyph-name="tilde" unicode="&#x2dc;" horiz-adv-x="500" 
d="M117 678l67 21l175 -70l30 70h17l-24 -99l-67 -18l-176 71l-29 -71h-17z" />
    <glyph glyph-name="hungarumlaut" unicode="&#x2dd;" horiz-adv-x="500" 
d="M51 542l55 173h103l-139 -173h-19zM205 542l56 173h102l-138 -173h-20z" />
    <glyph glyph-name="xsuperior" unicode="&#x2e3;" horiz-adv-x="344" 
d="M13 417l39 4l89 98l-92 121l-31 4l2 18l67 -1l72 1l1 -18l-23 -4l45 -60l10 -19l66 79l-34 4l1 18l51 -1l52 1l1 -18l-39 -4l-80 -91l97 -128l30 -4l-2 -17l-67 1l-72 -1l-2 17l25 4l-52 65l-10 19l-72 -84l38 -4l-2 -17l-56 1l-50 -1z" />
    <glyph glyph-name="Delta" unicode="&#x394;" horiz-adv-x="685" 
d="M20 0v27l303 669l49 19l293 -687v-28h-645zM63 31h501l-219 529l-21 71z" />
    <glyph glyph-name="Omega" unicode="&#x3a9;" horiz-adv-x="701" 
d="M32 0v164h19l32 -90l183 -18v74q-42 7 -83.5 28t-74 55.5t-53 83t-20.5 111.5q0 58 18.5 105.5t57.5 86t101 67t149 48.5q68 0 124 -23t96.5 -62t62.5 -91.5t22 -111.5q0 -62 -17 -110.5t-47 -84t-72 -59t-93 -36.5v-81l182 18l32 90h18v-164h-269v156q26 4 55.5 17.5
t54 42.5t41 75.5t16.5 115.5q0 60 -17 110t-46.5 85t-70 54.5t-88.5 19.5q-46 0 -84.5 -18t-66.5 -50t-43.5 -77t-15.5 -100q0 -61 14.5 -110.5t38 -84.5t53.5 -55.5t61 -24.5v-156h-270z" />
    <glyph glyph-name="mu" unicode="&#x3bc;" 
d="M461 466v-408q0 -6 7.5 -12.5t18.5 -12t24 -9.5t24 -7l-2 -17h-110l-41 83l-146 -98q-40 0 -74.5 11.5t-44.5 44.5v-70l63 -201h-95v696h80v-317q0 -55 21.5 -78.5t55.5 -23.5q25 0 49.5 14t54.5 32l35 21v352h80z" />
    <glyph glyph-name="pi" unicode="&#x3c0;" 
d="M468 62q0 -6 6.5 -13t17 -13t24 -11t26.5 -8l-2 -17h-110l-43 76v359h-150v-435h-81v435h-54l-48 -115h-18v143h548v-28h-116v-373z" />
    <glyph glyph-name="Wgrave" unicode="&#x1e80;" horiz-adv-x="980" 
d="M479 767l-122 133h94l59 -133h-31zM71 673l-60 8l2 20l110 -2l129 2l2 -20l-86 -9l160 -514l10 -53l132 431l-46 137l-65 8l2 20l115 -2l129 2l2 -20l-86 -9l160 -516l10 -50l176 567l-89 8l3 20l109 -2l77 2l3 -20l-62 -8l-213 -665l-48 -17l-148 450l-7 47l-150 -480
l-48 -17z" />
    <glyph glyph-name="wgrave" unicode="&#x1e81;" horiz-adv-x="822" 
d="M417 542l-128 172h93l55 -172h-20zM421 289l-10 54l-114 -326l-70 -32l-161 454l-61 8l3 19l103 -1l96 1l3 -19l-58 -8l112 -333l14 -53l112 326l-21 60l-49 8l3 19l91 -1l96 1l2 -19l-58 -8l114 -336l12 -50l133 386l-60 8l3 19l74 -1l84 1l3 -19l-63 -8l-154 -422
l-71 -32z" />
    <glyph glyph-name="Wacute" unicode="&#x1e82;" horiz-adv-x="980" 
d="M480 767l60 133h94l-124 -133h-30zM71 673l-60 8l2 20l110 -2l129 2l2 -20l-86 -9l160 -514l10 -53l132 431l-46 137l-65 8l2 20l115 -2l129 2l2 -20l-86 -9l160 -516l10 -50l176 567l-89 8l3 20l109 -2l77 2l3 -20l-62 -8l-213 -665l-48 -17l-148 450l-7 47l-150 -480
l-48 -17z" />
    <glyph glyph-name="wacute" unicode="&#x1e83;" horiz-adv-x="822" 
d="M403 542l55 172h92l-127 -172h-20zM421 289l-10 54l-114 -326l-70 -32l-161 454l-61 8l3 19l103 -1l96 1l3 -19l-58 -8l112 -333l14 -53l112 326l-21 60l-49 8l3 19l91 -1l96 1l2 -19l-58 -8l114 -336l12 -50l133 386l-60 8l3 19l74 -1l84 1l3 -19l-63 -8l-154 -422
l-71 -32z" />
    <glyph glyph-name="Wdieresis" unicode="&#x1e84;" horiz-adv-x="980" 
d="M395 876l23 -5l4 -42l-9 -38l-54 -4l-21 4l-5 44l8 36zM611 876l22 -5l5 -42l-9 -38l-54 -4l-22 4l-4 44l8 36zM71 673l-60 8l2 20l110 -2l129 2l2 -20l-86 -9l160 -514l10 -53l132 431l-46 137l-65 8l2 20l115 -2l129 2l2 -20l-86 -9l160 -516l10 -50l176 567l-89 8
l3 20l109 -2l77 2l3 -20l-62 -8l-213 -665l-48 -17l-148 450l-7 47l-150 -480l-48 -17z" />
    <glyph glyph-name="wdieresis" unicode="&#x1e85;" horiz-adv-x="822" 
d="M347 681l22 -4l5 -43l-9 -37l-54 -5l-22 5l-4 44l7 36zM518 681l22 -4l5 -43l-9 -37l-54 -5l-22 5l-5 44l8 36zM421 289l-10 54l-114 -326l-70 -32l-161 454l-61 8l3 19l103 -1l96 1l3 -19l-58 -8l112 -333l14 -53l112 326l-21 60l-49 8l3 19l91 -1l96 1l2 -19l-58 -8
l114 -336l12 -50l133 386l-60 8l3 19l74 -1l84 1l3 -19l-63 -8l-154 -422l-71 -32z" />
    <glyph glyph-name="Ygrave" unicode="&#x1ef2;" horiz-adv-x="696" 
d="M358 767l-124 133h94l60 -133h-30zM398 280l1 -251l113 -10l-2 -20l-156 2l-160 -2l-2 20l117 10v245l-226 399l-78 9l3 19l134 -2l131 2l3 -19l-90 -10l182 -323l13 -33l188 356l-95 10l2 19l116 -2l96 2l3 -19l-78 -8z" />
    <glyph glyph-name="ygrave" unicode="&#x1ef3;" horiz-adv-x="529" 
d="M287 542l-128 172h93l55 -172h-20zM87 -235v86h89l101 174l-47 -21l-164 435l-61 8l3 19l106 -1l102 1l3 -19l-64 -8l119 -330l12 -54l133 384l-59 8l3 19l83 -1l76 1l2 -19l-64 -8l-154 -414l-115 -260h-104z" />
    <glyph glyph-name="endash" unicode="&#x2013;" horiz-adv-x="508" 
d="M40 294h428v-34h-428v34z" />
    <glyph glyph-name="emdash" unicode="&#x2014;" horiz-adv-x="930" 
d="M-54 301h1038v-48h-1038v48z" />
    <glyph glyph-name="quoteleft" unicode="&#x2018;" horiz-adv-x="199" 
d="M158 514l-6 -42l-67 -5l-28 5l-4 50l6 44l74 150l19 -8q-3 -6 -11 -26.5t-16.5 -44t-15 -43t-6.5 -24.5l50 -4z" />
    <glyph glyph-name="quoteright" unicode="&#x2019;" horiz-adv-x="197" 
d="M48 663l7 43l66 4l28 -4l5 -50l-7 -45l-73 -149l-19 7q3 7 10.5 27.5t16 44t15 43t6.5 24.5l-50 3z" />
    <glyph glyph-name="quotesinglbase" unicode="&#x201a;" horiz-adv-x="187" 
d="M51 -133q3 6 10.5 26.5t16 44t15 43.5t6.5 25l-50 2l-5 53l7 42l66 4l28 -4l5 -50l-7 -45l-73 -149z" />
    <glyph glyph-name="quotedblleft" unicode="&#x201c;" horiz-adv-x="331" 
d="M148 514l-6 -42l-67 -5l-28 5l-4 50l6 44l74 150l19 -8q-3 -6 -11 -27t-16.5 -44t-15 -43t-6.5 -25l50 -3zM300 514l-6 -42l-67 -5l-28 5l-4 50l6 44l73 150l20 -8q-3 -6 -11 -27t-16.5 -44t-15 -43t-6.5 -25l51 -3z" />
    <glyph glyph-name="quotedblright" unicode="&#x201d;" horiz-adv-x="331" 
d="M197 664l6 43l67 4l28 -4l4 -50l-6 -45l-73 -149l-20 7q3 7 11 27.5t16.5 44t15 43t6.5 24.5l-51 3zM45 664l6 43l67 4l28 -4l4 -50l-6 -45l-74 -149l-19 7q3 7 11 27.5t16.5 44t15 43t6.5 24.5l-50 3z" />
    <glyph glyph-name="quotedblbase" unicode="&#x201e;" horiz-adv-x="341" 
d="M199 61l6 42l67 4l28 -4l4 -50l-6 -45l-73 -149l-20 8q3 6 11 26.5t16.5 44t15 43.5t6.5 25l-51 2zM47 61l6 42l67 4l28 -4l4 -50l-6 -45l-74 -149l-19 8q3 6 11 26.5t16.5 44t15 43.5t6.5 25l-50 2z" />
    <glyph glyph-name="dagger" unicode="&#x2020;" horiz-adv-x="432" 
d="M26 550l178 -38l-39 198h99l-39 -198l181 38v-101l-181 38l18 -117l32 -41l-34 -103l-19 -286h-14l-19 286l-35 103l32 41l18 117l-178 -38v101z" />
    <glyph glyph-name="daggerdbl" unicode="&#x2021;" horiz-adv-x="440" 
d="M190 370l18 117l-178 -38v101l178 -38l-39 198h99l-39 -198l181 38v-101l-181 38l18 -117l32 -41l-32 -41l-18 -117l181 38v-101l-181 38l39 -199h-99l39 199l-178 -38v101l178 -38l-18 117l-32 41z" />
    <glyph glyph-name="bullet" unicode="&#x2022;" horiz-adv-x="220" 
d="M132 364l33 -5l5 -58l-7 -52l-75 -5l-33 5l-5 60l7 50z" />
    <glyph glyph-name="ellipsis" unicode="&#x2026;" horiz-adv-x="743" 
d="M150 102l27 -5l5 -51l-7 -46l-69 -5l-26 5l-5 53l7 44zM394 102l26 -5l5 -51l-6 -46l-69 -5l-27 5l-4 53l6 44zM637 102l27 -5l4 -51l-6 -46l-69 -5l-26 5l-5 53l7 44z" />
    <glyph glyph-name="perthousand" unicode="&#x2030;" horiz-adv-x="1161" 
d="M214 381q22 0 38.5 11t26.5 30.5t15 45t5 55.5q0 34 -5.5 63t-17.5 51t-30.5 34.5t-44.5 12.5q-22 0 -38 -11.5t-26.5 -31t-15.5 -45.5t-5 -55q0 -34 5.5 -63.5t17.5 -51t30.5 -33.5t44.5 -12zM195 359q-36 0 -63.5 12.5t-47 35t-29.5 53t-10 67.5q0 75 40 119t135 60
q35 0 63 -12.5t47.5 -35t29.5 -53.5t10 -68q0 -74 -40 -119t-135 -59zM635 705h43l-494 -710h-43zM941 -6q-35 0 -63 12.5t-47.5 35t-29.5 53.5t-10 68q0 75 40 119t135 60q36 0 63.5 -13t47 -35.5t29.5 -53.5t10 -68q0 -73 -40 -118.5t-135 -59.5zM575 -6q-35 0 -63 12.5
t-47.5 35t-29.5 53.5t-10 68q0 75 40 119t135 60q36 0 63.5 -13t47 -35.5t29.5 -53.5t10 -68q0 -73 -40 -118.5t-135 -59.5zM947 319q-23 0 -39 -11t-26 -30.5t-15 -45.5t-5 -55q0 -35 5.5 -64t17.5 -51t30.5 -34t44.5 -12q22 0 38 11t26.5 30.5t15.5 45.5t5 56
q0 34 -5.5 63t-17.5 50.5t-30.5 34t-44.5 12.5zM582 319q-23 0 -39 -11t-26.5 -30.5t-15.5 -45.5t-5 -55q0 -35 5.5 -64t17.5 -51t30.5 -34t44.5 -12q22 0 38.5 11t26.5 30.5t15 45.5t5 56q0 34 -5.5 63t-17 50.5t-30 34t-44.5 12.5z" />
    <glyph glyph-name="guilsinglleft" unicode="&#x2039;" horiz-adv-x="272" 
d="M214 15l-181 220l182 220h22l-129 -220l129 -220h-23z" />
    <glyph glyph-name="guilsinglright" unicode="&#x203a;" horiz-adv-x="272" 
d="M40 15l129 220l-129 220h23l182 -220l-181 -220h-24z" />
    <glyph glyph-name="fraction" unicode="&#x2044;" horiz-adv-x="106" 
d="M-119 -50h-41l387 760h39z" />
    <glyph glyph-name="zerosuperior" unicode="&#x2070;" horiz-adv-x="386" 
d="M351 599q0 -87 -39 -138.5t-130 -68.5q-35 0 -62.5 14.5t-46 40t-28.5 61.5t-10 78q0 87 40 139t131 69q34 0 61 -14.5t46 -40.5t28.5 -61.5t9.5 -78.5zM198 417q19 0 32.5 12.5t22 34.5t12.5 52.5t4 65.5q0 40 -4.5 74.5t-14.5 59.5t-25 39t-37 14q-18 0 -31.5 -12.5
t-22 -34.5t-12.5 -52.5t-4 -65.5q0 -41 4.5 -75t14 -59t25 -39t36.5 -14z" />
    <glyph glyph-name="foursuperior" unicode="&#x2074;" horiz-adv-x="341" 
d="M253 542h78v-31h-78v-111h-69v111h-159l-15 22l189 252h76v-18l-231 -230l31 5h109v76l51 37l18 5v-118z" />
    <glyph glyph-name="fivesuperior" unicode="&#x2075;" horiz-adv-x="317" 
d="M35 461h123q26 17 37 38t11 44q0 26 -16 46t-53 19q-17 0 -30.5 -3.5t-33.5 -12.5l-22 -10l-10 8l24 195h215l-2 -22l-11 -37h-188l-15 -121l104 51q60 0 88 -26.5t28 -63.5q0 -25 -10 -44t-26.5 -34t-39 -27.5t-46.5 -23.5l-76 -37h-51v61z" />
    <glyph glyph-name="sixsuperior" unicode="&#x2076;" horiz-adv-x="351" 
d="M321 537q0 -60 -40 -95t-112 -50q-32 0 -57 11.5t-42 32.5t-26 49t-9 61q0 39 12.5 76t40.5 69.5t71.5 59.5t106.5 46l6 -18q-49 -18 -79 -39t-46.5 -46t-22.5 -53.5t-7 -59.5l92 67q29 0 50.5 -10t35 -25.5t20 -35.5t6.5 -40zM243 515q0 41 -14 62.5t-35 21.5
q-16 0 -29 -8t-30 -19l-19 -13q1 -64 16.5 -103.5t50.5 -39.5q29 0 44.5 23.5t15.5 75.5z" />
    <glyph glyph-name="sevensuperior" unicode="&#x2077;" horiz-adv-x="304" 
d="M15 785h264l10 -12l-175 -373h-59v20l183 306l-10 -2h-213v61z" />
    <glyph glyph-name="eightsuperior" unicode="&#x2078;" horiz-adv-x="343" 
d="M311 503q0 -45 -36.5 -70t-108.5 -41q-28 0 -52 7t-42 19.5t-28.5 30.5t-10.5 40q0 34 24 58t68 42q-42 26 -62 50.5t-20 52.5q0 39 34.5 63.5t100.5 38.5q60 0 93.5 -22t33.5 -57q0 -33 -24.5 -55.5t-68.5 -42.5q51 -29 75 -55.5t24 -58.5zM230 704q0 29 -16 48t-45 19
q-22 0 -36.5 -13.5t-14.5 -37.5q0 -27 20 -47t55 -43q20 16 28.5 34.5t8.5 39.5zM107 501q0 -38 21 -62t47 -24q22 0 41 15t19 47q0 31 -23.5 51.5t-66.5 47.5q-18 -14 -28 -33t-10 -42z" />
    <glyph glyph-name="ninesuperior" unicode="&#x2079;" horiz-adv-x="331" 
d="M15 652q0 59 40 93t112 49q64 0 99 -43.5t35 -109.5q0 -38 -13 -75t-41 -69.5t-72 -59.5t-105 -45l-6 18q49 19 79 42t46.5 48.5t22.5 52t7 53.5l-90 -66q-30 0 -51.5 10t-35.5 26t-20.5 36t-6.5 40zM92 676q0 -43 15 -65t36 -22q16 0 26.5 5.5t29.5 18.5l21 14
q-2 64 -17 104t-50 40q-29 0 -45 -23.5t-16 -71.5z" />
    <glyph glyph-name="plussuperior" unicode="&#x207a;" horiz-adv-x="410" 
d="M190 438v125h-140v29h140v129h30v-129h140v-29h-140v-125h-30z" />
    <glyph glyph-name="minussuperior" unicode="&#x207b;" horiz-adv-x="416" 
d="M50 606h316v-29h-316v29z" />
    <glyph glyph-name="equalsuperior" unicode="&#x207c;" horiz-adv-x="411" 
d="M361 612h-311v29h311v-29zM361 506h-311v28h311v-28z" />
    <glyph glyph-name="parenleftsuperior" unicode="&#x207d;" horiz-adv-x="213" 
d="M106 573q0 -76 19 -138t68 -117l-11 -10q-36 34 -61 63.5t-40.5 60.5t-23 65t-7.5 76q0 41 7.5 75t23 65t40.5 60.5t61 62.5l11 -10q-49 -54 -68 -114.5t-19 -138.5z" />
    <glyph glyph-name="parenrightsuperior" unicode="&#x207e;" horiz-adv-x="198" 
d="M107 573q0 78 -19.5 138.5t-67.5 114.5l11 10q36 -33 61 -62.5t40.5 -60.5t23 -65t7.5 -75q0 -42 -7.5 -76t-23 -65t-40.5 -61t-61 -63l-11 10q48 55 67.5 117t19.5 138z" />
    <glyph glyph-name="nsuperior" unicode="&#x207f;" horiz-adv-x="370" 
d="M28 417l36 5v210l-37 -4l-2 18l90 18l20 1l1 -52l99 56q43 0 61 -15q20 -17 20 -62v-170l39 -5l-1 -17l-74 1l-63 -1l-1 17l26 5v164q0 20 -8.5 28t-24.5 8q-15 0 -28 -6t-27 -14l-18 -10v-170l27 -5l-1 -17l-61 1l-71 -1z" />
    <glyph glyph-name="zeroinferior" unicode="&#x2080;" horiz-adv-x="386" 
d="M351 49q0 -87 -39 -139t-130 -69q-35 0 -62.5 14.5t-46 40.5t-28.5 61.5t-10 78.5q0 87 40 139t131 69q34 0 61 -14.5t46 -40.5t28.5 -61.5t9.5 -78.5zM198 -134q19 0 32.5 12.5t22 35t12.5 52.5t4 66q0 40 -4.5 74.5t-14.5 59.5t-25 39t-37 14q-18 0 -31.5 -12.5
t-22 -34.5t-12.5 -52.5t-4 -65.5q0 -41 4.5 -75.5t14 -59.5t25 -39t36.5 -14z" />
    <glyph glyph-name="oneinferior" unicode="&#x2081;" horiz-adv-x="283" 
d="M117 195l-26 -12l-58 -14l-8 15l140 55h23v-366l85 -7l-2 -17l-119 1l-120 -1l-2 17l85 7v309z" />
    <glyph glyph-name="twoinferior" unicode="&#x2082;" horiz-adv-x="349" 
d="M127 -90h187v-16l-20 -44h-269l-10 16l88 87q61 61 88 105t27 85q0 35 -16.5 54t-42.5 19q-22 0 -40 -8l-22 -78h-60v68l135 46q63 0 95 -28t32 -69q0 -27 -9.5 -51t-27.5 -46.5t-45 -45.5t-63 -48l-81 -56z" />
    <glyph glyph-name="threeinferior" unicode="&#x2083;" horiz-adv-x="309" 
d="M167 -90q19 14 27 30t8 34q0 30 -26 51t-78 21l-4 13l29 15q38 17 51.5 36t13.5 47q0 27 -14 42.5t-35 15.5q-10 0 -19 -2.5t-16 -5.5l-20 -70h-59v63l137 44q28 0 47 -6t31 -16t17 -22.5t5 -25.5q0 -29 -22.5 -52.5t-76.5 -40.5q28 -1 50 -8.5t36.5 -19.5t22 -27
t7.5 -30q0 -22 -9.5 -38.5t-25.5 -29.5t-38 -24t-47 -22l-73 -33h-61v61h142v0z" />
    <glyph glyph-name="fourinferior" unicode="&#x2084;" horiz-adv-x="341" 
d="M253 -9h78v-31h-78v-110h-69v110h-159l-15 22l189 253h76v-18l-231 -231l32 5h108v77l53 38l16 4v-119z" />
    <glyph glyph-name="fiveinferior" unicode="&#x2085;" horiz-adv-x="317" 
d="M35 -90h123q26 18 37 38.5t11 44.5q0 26 -16 46t-53 19q-17 0 -30.5 -3.5t-33.5 -12.5l-22 -10l-10 8l24 195h215l-2 -22l-11 -37h-188l-15 -121l104 51q60 0 88 -26.5t28 -63.5q0 -26 -10 -45t-26.5 -34t-39 -27t-46.5 -24l-76 -37h-51v61z" />
    <glyph glyph-name="sixinferior" unicode="&#x2086;" horiz-adv-x="351" 
d="M321 -14q0 -60 -40 -95t-112 -49q-65 0 -99.5 43.5t-34.5 110.5q0 39 12.5 76t40.5 69.5t71.5 59.5t106.5 46l6 -18q-49 -18 -79 -39t-46.5 -46t-22.5 -53.5t-7 -59.5l92 67q29 0 50.5 -10t35 -26t20 -36t6.5 -40zM243 -36q0 42 -14 63.5t-35 21.5q-16 0 -29 -8t-30 -19
l-19 -13q1 -64 16.5 -104t50.5 -40q29 0 44.5 23.5t15.5 75.5z" />
    <glyph glyph-name="seveninferior" unicode="&#x2087;" horiz-adv-x="304" 
d="M15 235h264l10 -12l-175 -373h-59v19l183 307l-11 -2h-212v61z" />
    <glyph glyph-name="eightinferior" unicode="&#x2088;" horiz-adv-x="343" 
d="M107 -49q0 -38 21 -62t47 -24q22 0 41 14.5t19 46.5q0 16 -6 28.5t-17.5 23.5t-28 22.5t-38.5 25.5q-18 -14 -28 -33t-10 -42zM311 -48q0 -44 -36.5 -69.5t-108.5 -40.5q-28 0 -52 6.5t-42 19t-28.5 30.5t-10.5 40q0 34 24 58.5t68 42.5q-43 26 -62.5 51.5t-19.5 51.5
q0 39 34.5 63.5t100.5 38.5q60 0 93.5 -22t33.5 -57q0 -33 -24.5 -55.5t-68.5 -42.5q50 -29 74.5 -56t24.5 -59zM230 154q0 29 -16 48t-45 19q-22 0 -36.5 -13.5t-14.5 -37.5q0 -27 19.5 -46.5t55.5 -43.5q20 16 28.5 34.5t8.5 39.5z" />
    <glyph glyph-name="nineinferior" unicode="&#x2089;" horiz-adv-x="331" 
d="M15 102q0 59 40 93t112 49q64 0 99 -43.5t35 -109.5q0 -39 -13 -76t-41 -69.5t-72 -59t-105 -44.5l-6 17q49 19 79 42t46.5 48.5t22.5 52.5t7 54l-90 -66q-30 0 -51.5 10t-35.5 26t-20.5 36t-6.5 40zM92 126q0 -43 15 -65t36 -22q16 0 26.5 5.5t29.5 18.5l21 14
q-2 64 -17 104t-50 40q-29 0 -45 -23.5t-16 -71.5z" />
    <glyph glyph-name="parenleftinferior" unicode="&#x208d;" horiz-adv-x="213" 
d="M106 17q0 -76 19 -138.5t68 -117.5l-11 -9q-36 34 -61 63.5t-40.5 60.5t-23 65t-7.5 76q0 41 7.5 75t23 65t40.5 60.5t61 62.5l11 -10q-49 -54 -68 -114.5t-19 -138.5z" />
    <glyph glyph-name="parenrightinferior" unicode="&#x208e;" horiz-adv-x="198" 
d="M107 17q0 78 -19.5 138.5t-67.5 114.5l11 10q36 -33 61 -62.5t40.5 -60.5t23 -65t7.5 -75q0 -42 -7.5 -76t-23 -65t-40.5 -61t-61 -63l-11 9q48 55 67.5 117.5t19.5 138.5z" />
    <glyph glyph-name="Euro" unicode="&#x20ac;" horiz-adv-x="664" 
d="M211 273q8 -48 26 -89t46 -71.5t67 -48t89 -17.5q57 0 98.5 19.5t67.5 38.5l13 -24q-15 -12 -36.5 -25.5t-48 -27t-56.5 -25t-62 -18.5q-61 0 -113 18.5t-92 54.5t-66 90t-35 125h-64v32h61q-1 9 -1 17v18v28t2 28h-62v31h66q21 126 101.5 197t205.5 93q75 0 126 -21
t78 -43v-151h-26l-46 122q-21 26 -55 45.5t-89 19.5q-35 0 -68.5 -17t-61 -50.5t-46.5 -82.5t-25 -112h318l-17 -31h-304v-26q0 -34 3 -65h258l-17 -32h-235z" />
    <glyph glyph-name="afii61289" unicode="&#x2113;" horiz-adv-x="432" 
d="M138 6v232q-48 -21 -98 -41v31q23 11 47.5 20.5t50.5 21.5v354l138 96q32 -1 54.5 -16t36 -37.5t19.5 -50t6 -52.5q0 -48 -13.5 -91t-37.5 -79.5t-57 -67t-72 -52.5v-236l156 61l14 -18l-178 -97zM212 311q45 31 72 81t27 135q0 16 -2.5 39t-8.5 44t-17 35.5t-28 14.5
q-7 0 -22.5 -4.5t-20.5 -7.5v-337z" />
    <glyph glyph-name="afii61352" unicode="&#x2116;" horiz-adv-x="983" 
d="M610 683q-3 -1 -16 -4t-28.5 -6t-28.5 -3t-14 5v-675h-77l-252 542l-39 115v-657h-123l-3 17q-2 -1 12.5 2.5t33 6.5t34 3.5t15.5 -5.5v644l-89 13l3 19l95 -1l87 1l232 -502l39 -111v613h117zM782 472q35 0 64 -13t49.5 -36t32 -55t11.5 -70q0 -44 -13.5 -76.5
t-37.5 -55t-58 -36.5t-75 -21q-36 0 -66 13t-51.5 36t-33 54.5t-11.5 69.5q0 44 14 76.5t38.5 55t59.5 36.5t77 22zM759 440q-43 0 -66 -35.5t-23 -96.5q0 -36 7.5 -67t22 -53.5t34.5 -35.5t45 -13q40 0 61.5 36.5t21.5 96.5q0 76 -27.5 122t-75.5 46zM593 42h346v-42h-346
v42z" />
    <glyph glyph-name="trademark" unicode="&#x2122;" horiz-adv-x="995" 
d="M871 700l72 1l2 -16l-46 -6v-342l45 -5l-2 -17l-81 1l-83 -1l-1 17l43 5v303l4 33l-143 -359h-44l-136 327l-8 33v-337l44 -5l-1 -17l-57 1l-57 -1l-2 17l45 5v342l-45 6l1 16l60 -1l76 1l127 -296v-23l128 319zM318 315l-97 1l-97 -1l-1 17l59 5v343l-77 -1l-37 -89h-18
v111l173 -1l170 1v-111h-18l-38 89l-76 1v-343l58 -5z" />
    <glyph glyph-name="uni2126" unicode="&#x2126;" horiz-adv-x="721" 
d="M42 0v164h19l32 -90l183 -18v74q-42 7 -83.5 28t-74 55.5t-53 83t-20.5 111.5q0 58 18.5 105.5t57.5 86t101 67t149 48.5q68 0 124 -23t96.5 -62t62.5 -91.5t22 -111.5q0 -62 -17 -110.5t-47 -84t-72 -59t-93 -36.5v-81l182 18l32 90h18v-164h-269v156q26 4 55.5 17.5
t54 42.5t41 75.5t16.5 115.5q0 60 -17 110t-46.5 85t-70 54.5t-88.5 19.5q-46 0 -84.5 -18t-66.5 -50t-43.5 -77t-15.5 -100q0 -61 14.5 -110.5t38 -84.5t53.5 -55.5t61 -24.5v-156h-270z" />
    <glyph glyph-name="estimated" unicode="&#x212e;" horiz-adv-x="822" 
d="M753 220q-18 -51 -47.5 -88t-72.5 -64t-100 -47t-130 -36q-79 0 -144 26.5t-111.5 73.5t-72 111t-25.5 139q0 82 19.5 141t64 102.5t115 76t172.5 60.5q76 0 139 -25t109 -69.5t73 -106t30 -133.5v-49h-608v-87q15 -49 39.5 -89.5t57 -69.5t72.5 -45t87 -16
q95 0 152.5 52.5t81.5 142.5h99zM164 380h491v64q-13 52 -37.5 94.5t-57.5 72.5t-73.5 46.5t-86.5 16.5q-94 0 -150.5 -48t-85.5 -125v-121z" />
    <glyph glyph-name="arrowleft" unicode="&#x2190;" horiz-adv-x="610" 
d="M50 295l270 259v-54l-176 -165l-27 -20h443v-39h-443l28 -21l175 -164v-55z" />
    <glyph glyph-name="arrowup" unicode="&#x2191;" horiz-adv-x="618" 
d="M290 484l-22 -30l-163 -174h-55l259 270l259 -270h-54l-164 174l-21 30v-444h-39v444z" />
    <glyph glyph-name="arrowright" unicode="&#x2192;" horiz-adv-x="610" 
d="M494 315l-31 23l-173 162v54l270 -259l-270 -259v55l173 162l31 23h-444v39h444z" />
    <glyph glyph-name="arrowdown" unicode="&#x2193;" horiz-adv-x="618" 
d="M290 550h39v-443l21 29l164 174h54l-259 -270l-259 270h55l163 -174l22 -29v443z" />
    <glyph glyph-name="uni2196" unicode="&#x2196;" horiz-adv-x="474" 
d="M83 415l5 -37l1 -238l-39 -39v374h375l-39 -38l-238 1l-38 5l314 -314l-27 -28z" />
    <glyph glyph-name="uni2197" unicode="&#x2197;" horiz-adv-x="474" 
d="M387 380l5 35l-314 -314l-28 28l314 314l-35 -5l-240 -1l-39 38h374v-374l-38 39z" />
    <glyph glyph-name="uni2198" unicode="&#x2198;" horiz-adv-x="474" 
d="M392 154l-5 34l-1 241l38 39v-374h-374l39 38l239 -2l36 -4l-314 314l28 28z" />
    <glyph glyph-name="uni2199" unicode="&#x2199;" horiz-adv-x="474" 
d="M397 468l27 -28l-314 -314l35 4l241 2l39 -38h-375v374l39 -39l-1 -242l-5 -33z" />
    <glyph glyph-name="partialdiff" unicode="&#x2202;" 
d="M536 246q0 -55 -15 -101.5t-44.5 -81t-72 -55t-97.5 -23.5q-56 8 -98 31t-70 57t-41.5 77.5t-13.5 91.5q0 95 53 157t156 70l135 -63q-14 74 -54.5 141t-117.5 111q-4 2 -15 8t-23 12.5t-23 12t-16 7.5l12 22q4 -2 14 -5.5t21 -7.5t20.5 -8t13.5 -6q75 -33 127.5 -80.5
t85.5 -105.5t48 -124.5t15 -136.5zM172 234q0 -98 34.5 -155t103.5 -57q31 0 55.5 17t42 47.5t26.5 72.5t10 91q0 39 -6 75q-21 28 -42 48q-25 21 -49.5 32t-53.5 11q-54 0 -87.5 -48.5t-33.5 -133.5z" />
    <glyph glyph-name="uni2206" unicode="&#x2206;" horiz-adv-x="693" 
d="M25 0v27l303 669l49 19l293 -687v-28h-645zM68 31h501l-219 529l-21 71z" />
    <glyph glyph-name="product" unicode="&#x220f;" horiz-adv-x="734" 
d="M20 681l3 19l136 -1h423l130 1l2 -19l-88 -10v-802l87 -10l-3 -19l-129 1l-133 -1l-3 19l92 10v801h-338v-801l89 -10l-3 -19l-131 1l-131 -1l-3 19l90 10v802z" />
    <glyph glyph-name="summation" unicode="&#x2211;" 
d="M69 -160l-12 23l305 386l-294 426l12 25h469v-166h-19l-58 137l-291 3l256 -367v-18l-303 -381l354 8l54 108h21l-17 -184h-477z" />
    <glyph glyph-name="minus" unicode="&#x2212;" 
d="M47 295h526v-41h-526v41z" />
    <glyph glyph-name="radical" unicode="&#x221a;" 
d="M191 -15l-169 456l-60 8l3 17h137l122 -339l15 -65l276 817h202l-13 -37h-158l-287 -826z" />
    <glyph glyph-name="infinity" unicode="&#x221e;" horiz-adv-x="817" 
d="M343 200q-27 -29 -63.5 -50t-71.5 -21q-34 0 -61.5 12t-46.5 33.5t-29.5 50.5t-10.5 63q0 54 35 99.5t123 82.5q31 0 59.5 -12t54.5 -30.5t49.5 -41.5t44.5 -45l8 8l41 44q29 32 65.5 54.5t75.5 22.5q34 0 60 -12.5t44 -33.5t27.5 -49.5t9.5 -61.5q0 -32 -8 -57.5
t-27 -47.5t-49 -41t-74 -38q-29 0 -55.5 10t-51 26t-46.5 37t-43 43l-9 11zM217 192q28 0 59 13.5t58 40.5l37 38q-16 18 -36 38t-42 36t-45.5 26.5t-45.5 10.5q-21 0 -40 -6t-34 -18t-24 -31t-9 -45q0 -43 31.5 -73t90.5 -30zM450 312q18 -18 40 -37t44.5 -34.5t44.5 -25.5
t42 -10q18 0 36 5.5t32.5 17.5t23.5 31.5t9 47.5q0 45 -27.5 71t-86.5 26q-29 0 -64 -14t-62 -43z" />
    <glyph glyph-name="integral" unicode="&#x222b;" 
d="M325 -7q0 -43 -7.5 -71t-33.5 -57l-90 -100h-66v70h89l11 17q9 16 13 40.5t4 74.5v504q0 48 9 78.5t33 59.5l88 101h117v-68h-137l-15 -22q-5 -9 -7.5 -18.5t-4.5 -23t-2.5 -32.5t-0.5 -46v-507z" />
    <glyph glyph-name="approxequal" unicode="&#x2248;" 
d="M575 410h20l-39 -89l-93 -19l-373 58l-44 -70h-20l38 89l96 19l371 -57zM575 190h19l-39 -89l-93 -19l-372 58l-45 -70h-19l38 89l95 19l372 -56z" />
    <glyph glyph-name="notequal" unicode="&#x2260;" 
d="M251 128l-106 -128h-49l107 128h-151v42h186l126 151h-312v41h347l99 118h48l-99 -118h121v-41h-156l-126 -151h282v-42h-317z" />
    <glyph glyph-name="lessequal" unicode="&#x2264;" 
d="M49 42h522v-42h-522v42zM570 611v-50l-460 -203l460 -203v-50l-520 234v37z" />
    <glyph glyph-name="greaterequal" unicode="&#x2265;" 
d="M50 42h521v-42h-521v42zM570 376v-37l-520 -234v50l460 203l-460 203v50z" />
    <glyph glyph-name="lozenge" unicode="&#x25ca;" 
d="M293 697l45 19l235 -348l-243 -365l-47 -21l-236 348zM322 615l-19 42l-189 -288l187 -292l17 -38l191 287z" />
    <glyph glyph-name="commaaccent" unicode="&#xf6c3;" horiz-adv-x="500" 
d="M237 -126l-30 31v42h88v-76l-73 -107l-20 6z" />
    <glyph glyph-name="asuperior" unicode="&#xf6e9;" horiz-adv-x="309" 
d="M186 542l-67 -22q-20 -17 -20 -45q0 -20 10.5 -31t24.5 -11q11 0 20.5 4.5t16.5 7.5l15 10v87zM154 669q64 0 85 -18q12 -10 16.5 -26t4.5 -39v-113q0 -26 9 -44l30 1l2 -16l-96 -19l-16 45l-76 -48q-38 0 -63 18.5t-25 52.5q0 16 6.5 30.5t23.5 26.5l131 38v37
q0 23 -6 35t-32 12q-19 0 -36 -7l-12 -62h-65v51z" />
    <glyph glyph-name="bsuperior" unicode="&#xf6ea;" horiz-adv-x="335" 
d="M315 550q0 -69 -40.5 -107.5t-114.5 -50.5q-38 0 -64.5 6t-47.5 16v347l-36 -3l-2 18l89 16l21 1v-177l84 53q22 0 42 -8t35.5 -23.5t24.5 -37.5t9 -50zM237 525q0 49 -15 72t-41 23q-13 0 -24 -4.5t-24 -12.5l-13 -7v-163q17 -20 47 -20q31 0 50.5 29t19.5 83z" />
    <glyph glyph-name="dsuperior" unicode="&#xf6eb;" horiz-adv-x="347" 
d="M286 470q0 -17 2.5 -25t7.5 -18l32 2l1 -17l-94 -17l-17 49l-78 -52q-54 0 -87 36t-33 92q0 62 35.5 100t103.5 49q13 0 29 -4t27 -10v106l-36 -3l-2 16l86 18l23 1v-323zM157 441q12 0 21.5 4t23.5 12l13 8v161q-7 7 -19 12.5t-27 5.5q-35 0 -53.5 -28.5t-18.5 -76.5
q0 -44 17 -71t43 -27z" />
    <glyph glyph-name="esuperior" unicode="&#xf6ec;" horiz-adv-x="291" 
d="M90 543q2 -46 29 -72.5t69 -26.5q20 0 39.5 7t34.5 16l8 -15q-25 -21 -50.5 -34.5t-58.5 -25.5q-29 0 -54.5 9t-44.5 25.5t-30.5 40.5t-11.5 54q0 56 36.5 94t103.5 54q56 0 83 -28.5t27 -73.5v-24h-180zM195 562q0 40 -9 61.5t-40 21.5q-27 0 -41 -23.5t-15 -61.5z" />
    <glyph glyph-name="isuperior" unicode="&#xf6ed;" horiz-adv-x="192" 
d="M102 401l-70 -1l-2 17l37 5v211l-37 -4l-2 18l89 17l21 1v-243l37 -5l-2 -17zM71 783l50 3l18 -3l3 -34l-7 -31l-49 -3l-17 3l-4 36z" />
    <glyph glyph-name="lsuperior" unicode="&#xf6ee;" horiz-adv-x="190" 
d="M102 401l-70 -1l-1 17l35 5v339l-36 -3l-2 18l89 16l21 1v-371l37 -5l-2 -17z" />
    <glyph glyph-name="msuperior" unicode="&#xf6ef;" horiz-adv-x="539" 
d="M450 401l-63 -1l-2 17l25 5v164q0 20 -8 28t-23 8q-13 0 -26.5 -6t-26.5 -14l-16 -9v-171l25 -5l-1 -17l-62 1l-59 -1l-1 17l24 5v164q0 20 -8 28t-23 8q-14 0 -27 -6t-25 -14l-17 -9v-171l25 -5l-1 -17l-61 1l-69 -1l-2 17l36 5v211l-37 -4l-2 17l88 18l21 1l2 -52
l93 56q38 1 58 -14q19 -15 22 -42l94 56q22 0 37 -3.5t25 -12.5q19 -18 19 -61v-170l40 -5l-2 -17z" />
    <glyph glyph-name="osuperior" unicode="&#xf6f0;" horiz-adv-x="326" 
d="M173 669q58 0 95.5 -36t37.5 -95q0 -34 -11.5 -58.5t-32 -42t-48.5 -28.5t-61 -17q-58 0 -95.5 36t-37.5 96q0 34 11.5 58.5t32 41.5t48.5 28t61 17zM96 546q0 -63 21 -97t53 -34q59 0 59 100q0 66 -21 98.5t-53 32.5q-28 0 -43.5 -24.5t-15.5 -75.5z" />
    <glyph glyph-name="rsuperior" unicode="&#xf6f1;" horiz-adv-x="257" 
d="M133 577l60 90h49v-72h-65q-5 -2 -16.5 -13t-17.5 -17l-7 -8v-134l58 -6l-2 -17l-92 1l-71 -1l-1 17l37 5v211l-38 -4l-2 17l85 18l19 1z" />
    <glyph glyph-name="ssuperior" unicode="&#xf6f2;" horiz-adv-x="266" 
d="M210 577l-24 51q-10 9 -21.5 14t-27.5 5q-19 0 -30.5 -8t-11.5 -22t11 -23t34 -21l49 -25q27 -14 39.5 -30.5t12.5 -39.5q0 -34 -28 -54.5t-84 -31.5q-25 0 -51.5 6.5t-43.5 15.5l-6 79h24l25 -53q11 -11 24.5 -18t30.5 -7q22 0 33.5 9.5t11.5 23.5q0 16 -10 25.5
t-33 20.5l-49 26q-21 11 -36.5 26.5t-15.5 41.5q0 29 25.5 48t82.5 33q33 0 54 -6t36 -13v-73h-21z" />
    <glyph glyph-name="tsuperior" unicode="&#xf6f3;" horiz-adv-x="227" 
d="M8 635v9l11 11h38v39l59 38h12v-78h83v-19h-83v-165q0 -34 34 -34q14 0 25 3.5t24 10.5l7 -16l-84 -42q-78 0 -78 73v170h-48z" />
    <glyph glyph-name="apple" unicode="&#xf8ff;" horiz-adv-x="685" 
d="M635 460l-3 -41l-8 -35l-12 -31l-3 -156l-21 -7l-50 70l-27 -7l-19 -140l-32 4l-7 -4l-4 -94l30 -19l16 -14l-3 -15l-30 1l-24 18h-14l-8 8l7 76l-4 47l-61 1l-3 -52l-2 -56v-20l-15 -6l-8 6l-30 -10h-32l-1 11l11 11l50 21l-6 96l-98 -6l-147 140l-4 115l-13 10l-10 36
v26l15 8l-3 78l92 -62l9 47l10 36l22 35l28 35l39 29l40 15l38 14h22l-68 22l4 17h7l79 -20l-4 51l16 12h32l19 -5l29 -25l32 -8l32 -10l15 -13v-20l-20 -31l30 -28l28 -32l18 -34l15 -41zM525 399l-4 7h-205l-66 -3l-7 -9l-6 -44l-48 20l-11 -4l57 -27l1 -45l-5 -73v-91
l18 4l2 40l41 -3l3 9l-44 6v16l48 -6l1 9l-47 7l1 22l43 -3l3 6l-45 9l3 94h74l11 10h-79l2 9h74l8 7h-82l2 22l117 4l140 -4v11zM206 569l29 12l13 -15l-17 -20l-10 -3l17 -3h5l36 24h32l18 -12l8 3l4 14l7 5l10 -4v-18h8l10 22l11 8l-5 6l-3 8l1 21l-30 -10l-10 -8l-8 5
l4 21l14 10l11 11l38 -2l12 13l-4 8h-49l-45 -13l-53 -26l-29 -23zM616 465l-8 37l-19 50l-20 36l-23 28l-34 21h-11l17 -19l25 -10l11 -11l3 -33l-25 13l-15 -29l12 -8v-19l15 3l-12 26l15 -5l10 -20l-5 -12l-8 -7h-23l-3 11l-12 2l1 -22h-14l14 -18l-7 -10l-21 5l-3 -27
l41 6l8 17l22 -2l6 -28l-16 -13v-15l8 -6l18 12h23l6 11l-18 6l-5 9l9 42h7l14 -20zM102 434l57 -32l7 10l-68 38v18l59 -34l43 -28l28 -14l3 10l-103 64l-13 7l-41 33l2 -78l19 -17v-5h-21l19 -14l1 -11l-20 7l18 -18l-4 -7l3 -97l11 -12v180zM511 331l-54 1l-1 -24v-6
l-2 -31l19 -3l-8 -61l-48 3l-8 -6l51 -5l-2 -9h-49l-4 -5l53 -7l-6 -35l27 -1l12 79l4 36l-15 3l-1 8l20 1l5 3l-28 16l2 5l30 -6l-30 15l5 5l21 -5l4 10zM206 331l-66 39v-7l-2 -13l1 -27v-48l64 -44l-1 60zM380 214l-64 4v-51l64 -6v53zM532 306l8 -6l8 2l20 15l13 13
l11 18l-7 5h-14l-10 3l-14 7l-17 -3q-2 -13 -3 -24q-2 -9 -2.5 -17t-0.5 -7zM428 585l5 -6l19 11l8 -2l6 -24h13l6 6l-9 18l17 28l-15 9v5l-25 7v-20l-13 -5v-9l-9 -6zM433 336l4 30l-54 5l-3 -35h53zM366 455l-7 -11h-12l-5 7l11 8l-15 2v6l-23 4l3 -17l8 -14l20 -9l13 -1
l18 10l6 9l5 20l-30 2l7 -5zM589 312l-6 -3l-33 -27l39 -48v78zM244 454l1 4l14 2l-13 6l2 7l-20 -1l3 -19l14 -15l12 -6l11 5l16 12l6 12l2 13l-22 -4l6 -10l-12 -13l-14 -1zM394 281l-72 7l-6 -13l78 -4v10zM206 203l-74 50l20 -23l50 -41zM394 312h-73v-10h73v10z
M384 256l-68 4v-10h68v6zM515 359h-48v-13l44 4zM351 520l-4 -12l49 -17l3 4zM214 498l59 12l-4 12zM414 642l-8 -9v-19l12 -6l3 17zM491 530l-8 -4v-9l8 -3l2 7zM564 386l5 7v7l-10 -4v-10h5z" />
    <glyph glyph-name="AE.sc" horiz-adv-x="801" 
d="M414 256v221l-150 -221h150zM109 27l64 -6l-1 -21l-82 1l-77 -1l-2 21l61 6l334 480l52 -1l296 1l4 -133h-17l-48 106l-198 1v-224l101 1l33 82h17l-4 -95l4 -97h-17l-33 82l-101 1v-205l204 1l53 110h18l-13 -138l-302 2l-108 -2l-2 22l69 7v204h-163z" />
    <glyph glyph-name="AEacute.002" horiz-adv-x="977" 
d="M559 747l55 103h90l-113 -103h-32zM511 349v317l-188 -317h188zM5 19l79 9l422 673l52 -2l372 2l5 -179h-20l-59 150l-253 1v-324l130 2l41 111h20l-5 -122l5 -127h-20l-41 110l-130 2v-298l262 2l65 155h21l-17 -185l-376 2l-133 -2l-3 20l89 10v295h-203l-180 -295
l83 -10l-2 -20l-105 2l-96 -2z" />
    <glyph glyph-name="AEacute.sc" horiz-adv-x="801" 
d="M414 256v221l-150 -221h150zM109 27l64 -6l-1 -21l-82 1l-77 -1l-2 21l61 6l334 480l50 -1l298 1l4 -133h-17l-48 106l-198 1v-224l101 2l33 81h17l-4 -95l4 -96h-17l-33 81l-101 2v-206l204 1l53 110h18l-13 -138l-303 2l-107 -2l-2 22l69 7v204h-163zM441 557l46 97h81
l-100 -97h-27z" />
    <glyph glyph-name="Aacute.002" horiz-adv-x="721" 
d="M344 747l55 103h90l-114 -103h-31zM8 19l80 9l246 660l48 22l253 -682l78 -9l-2 -20l-128 2l-133 -2l-2 20l87 10l-76 217h-252l-76 -217l88 -10l-2 -20l-107 2l-99 -2zM448 275l-79 221l-33 117l-119 -338h231z" />
    <glyph glyph-name="Aacute.sc" horiz-adv-x="594" 
d="M288 557l46 97h81l-100 -97h-27zM171 173l-59 -145l69 -8l-2 -21l-85 2l-76 -2l-2 22l60 6l194 466l50 23l199 -489l60 -6l-2 -22l-103 2l-112 -2l-1 21l67 8l-58 145h-199zM286 395l-13 46l-93 -242h181z" />
    <glyph glyph-name="Abreve.002" horiz-adv-x="721" 
d="M357 788q23 0 41 7t32 17t24 22t17 21l13 -10q-5 -10 -12.5 -23t-20.5 -27.5t-32.5 -29t-48.5 -26.5q-30 0 -52.5 10.5t-39.5 26t-29 34t-20 34.5l15 11q6 -10 16 -21.5t24 -21.5t32 -17t41 -7zM8 19l80 9l246 660l48 22l253 -682l78 -9l-2 -20l-128 2l-133 -2l-2 20
l87 10l-76 217h-252l-76 -217l88 -10l-2 -20l-107 2l-99 -2zM448 275l-79 221l-33 117l-119 -338h231z" />
    <glyph glyph-name="Abreve.sc" horiz-adv-x="594" 
d="M295 596q19 0 33.5 5t26 12.5t20 15.5t14.5 15l12 -11q-9 -23 -28 -43.5t-67 -40.5q-24 0 -43 7.5t-33 19.5t-24 27t-17 29l13 12q6 -7 14 -15t19.5 -15.5t26 -12.5t33.5 -5zM171 173l-59 -145l69 -8l-2 -21l-85 2l-76 -2l-2 22l60 6l194 466l50 23l199 -489l60 -6
l-2 -22l-103 2l-112 -2l-1 21l67 8l-58 145h-199zM286 395l-13 46l-93 -242h181z" />
    <glyph glyph-name="Acircumflex.002" horiz-adv-x="721" 
d="M222 745l115 110h46l115 -110h-31l-101 61l-7 5l-5 -5l-101 -61h-31zM8 19l80 9l246 660l48 22l253 -682l78 -9l-2 -20l-128 2l-133 -2l-2 20l87 10l-76 217h-252l-76 -217l88 -10l-2 -20l-107 2l-99 -2zM448 275l-79 221l-33 117l-119 -338h231z" />
    <glyph glyph-name="Acircumflex.sc" horiz-adv-x="594" 
d="M181 557l94 99h40l94 -99h-27l-82 48l-5 8l-6 -8l-81 -48h-27zM171 173l-59 -145l69 -8l-2 -21l-85 2l-76 -2l-2 22l60 6l194 466l50 23l199 -489l60 -6l-2 -22l-103 2l-112 -2l-1 21l67 8l-58 145h-199zM286 395l-13 46l-93 -242h181z" />
    <glyph glyph-name="Adieresis.002" horiz-adv-x="721" 
d="M268 852l23 -4l4 -42l-8 -38l-54 -4l-22 4l-4 44l7 36zM482 852l22 -4l4 -42l-8 -38l-54 -4l-22 4l-4 44l8 36zM8 19l80 9l246 660l48 22l253 -682l78 -9l-2 -20l-128 2l-133 -2l-2 20l87 10l-76 217h-252l-76 -217l88 -10l-2 -20l-107 2l-99 -2zM448 275l-79 221
l-33 117l-119 -338h231z" />
    <glyph glyph-name="Adieresis.sc" horiz-adv-x="594" 
d="M223 640l19 -3l3 -38l-7 -33l-46 -4l-18 4l-4 39l7 32zM396 640l20 -3l4 -38l-8 -33l-46 -4l-18 4l-4 39l7 32zM171 173l-59 -145l69 -8l-2 -21l-85 2l-76 -2l-2 22l60 6l194 466l50 23l199 -489l60 -6l-2 -22l-103 2l-112 -2l-1 21l67 8l-58 145h-199zM286 395l-13 46
l-93 -242h181z" />
    <glyph glyph-name="Agrave.002" horiz-adv-x="721" 
d="M341 747l-113 103h90l55 -103h-32zM8 19l80 9l246 660l48 22l253 -682l78 -9l-2 -20l-128 2l-133 -2l-2 20l87 10l-76 217h-252l-76 -217l88 -10l-2 -20l-107 2l-99 -2zM448 275l-79 221l-33 117l-119 -338h231z" />
    <glyph glyph-name="Agrave.sc" horiz-adv-x="594" 
d="M280 557l-100 97h80l47 -97h-27zM171 173l-59 -145l69 -8l-2 -21l-85 2l-76 -2l-2 22l60 6l194 466l50 23l199 -489l60 -6l-2 -22l-103 2l-112 -2l-1 21l67 8l-58 145h-199zM286 395l-13 46l-93 -242h181z" />
    <glyph glyph-name="Amacron.002" horiz-adv-x="721" 
d="M222 825h280v-38h-280v38zM8 19l80 9l246 660l48 22l253 -682l78 -9l-2 -20l-128 2l-133 -2l-2 20l87 10l-76 217h-252l-76 -217l88 -10l-2 -20l-107 2l-99 -2zM448 275l-79 221l-33 117l-119 -338h231z" />
    <glyph glyph-name="Amacron.sc" horiz-adv-x="594" 
d="M185 615h225v-40h-225v40zM171 173l-59 -145l69 -8l-2 -21l-85 2l-76 -2l-2 22l60 6l194 466l50 23l199 -489l60 -6l-2 -22l-103 2l-112 -2l-1 21l67 8l-58 145h-199zM286 395l-13 46l-93 -242h181z" />
    <glyph glyph-name="Aogonek.001" horiz-adv-x="721" 
d="M351 551l-15 62l-119 -338h231zM382 710l253 -682l78 -9l-2 -20l-162 2l-56 -80v-17q0 -37 25 -52t67 -15v-15q-45 0 -75 6t-47.5 17.5t-24.5 28.5t-7 40v19l107 80l-79 233h-251l-77 -217l88 -10l-2 -20l-110 2l-96 -2l-3 20l80 9l246 660z" />
    <glyph glyph-name="Aogonek.sc" horiz-adv-x="594" 
d="M171 173l-59 -145l69 -8l-2 -21l-85 2l-76 -2l-2 22l60 6l194 466l50 23l199 -489l60 -6l-2 -22l-134 2l-42 -81v-28q0 -23 22.5 -37t61.5 -14v-18q-77 0 -109 18t-32 55v41l87 82l-61 154h-199zM285 396l-12 45l-93 -242h181z" />
    <glyph glyph-name="Aring.002" horiz-adv-x="721" 
d="M436 787q0 -17 -6.5 -28t-17.5 -18.5t-25.5 -12.5t-29.5 -9q-14 0 -28 3.5t-25 11.5t-18 20t-7 30q0 16 6.5 27t17.5 18.5t25 12.5t29 10q14 0 28 -3.5t25.5 -11.5t18.5 -20.5t7 -29.5zM311 786q0 -20 13 -33t33 -13t33.5 13t13.5 33q0 19 -13.5 32t-33.5 13t-33 -13
t-13 -32zM8 19l80 9l246 660l48 22l253 -682l78 -9l-2 -20l-128 2l-133 -2l-2 20l87 10l-76 217h-252l-76 -217l88 -10l-2 -20l-107 2l-99 -2zM448 275l-79 221l-33 117l-119 -338h231z" />
    <glyph glyph-name="Aring.sc" horiz-adv-x="594" 
d="M239 604q0 -21 14.5 -34.5t38.5 -13.5q23 0 38 13.5t15 34.5t-15 35t-38 14q-24 0 -38.5 -14t-14.5 -35zM373 605q0 -18 -7 -30.5t-18 -20.5t-26 -13.5t-31 -9.5q-15 0 -29.5 4t-26 12.5t-18.5 22.5t-7 34q0 18 7 29.5t18 20t26 14t31 10.5q15 0 29.5 -4t26 -12.5
t18.5 -22.5t7 -34zM171 173l-59 -145l69 -8l-2 -21l-85 2l-76 -2l-2 22l60 6l194 466l50 23l199 -489l60 -6l-2 -22l-103 2l-112 -2l-1 21l67 8l-58 145h-199zM286 395l-13 46l-93 -242h181z" />
    <glyph glyph-name="Aringacute.002" horiz-adv-x="721" 
d="M436 787q0 -17 -6.5 -28t-17.5 -18.5t-25.5 -12.5t-29.5 -10q-14 0 -28 4t-25 12t-18 20.5t-7 29.5q0 16 6.5 27t17 18.5t24 12t27.5 9.5h10.5t11.5 -2l20 32h51l-54 -37q17 -6 30 -20t13 -37zM310 786q0 -20 13.5 -32.5t33.5 -12.5t33.5 12.5t13.5 32.5q0 19 -13.5 32
t-33.5 13t-33.5 -13t-13.5 -32zM8 19l80 9l246 660l48 22l253 -682l78 -9l-2 -20l-128 2l-133 -2l-2 20l87 10l-76 217h-252l-76 -217l88 -10l-2 -20l-107 2l-99 -2zM448 275l-79 221l-33 117l-119 -338h231z" />
    <glyph glyph-name="Aringacute.sc" horiz-adv-x="594" 
d="M243 602q0 -20 14 -33t37 -13q22 0 36.5 13t14.5 33q0 19 -14.5 32.5t-36.5 13.5q-23 0 -37 -13.5t-14 -32.5zM294 532q-14 0 -28 3.5t-25 11.5t-18 21t-7 32q0 17 6.5 28.5t17.5 20t25 13.5t29 10l39 40h58l-75 -45q23 -6 40 -21t17 -44q0 -18 -6.5 -29.5t-17.5 -19
t-25.5 -12.5t-29.5 -9zM171 173l-59 -145l69 -8l-2 -21l-85 2l-76 -2l-2 22l60 6l194 466l50 23l199 -489l60 -6l-2 -22l-103 2l-112 -2l-1 21l67 8l-58 145h-199zM286 395l-13 46l-93 -242h181z" />
    <glyph glyph-name="Atilde.002" horiz-adv-x="721" 
d="M249 833l70 20l167 -57l35 60h14l-27 -82l-69 -19l-168 57l-35 -61h-14zM8 19l80 9l246 660l48 22l253 -682l78 -9l-2 -20l-128 2l-133 -2l-2 20l87 10l-76 217h-252l-76 -217l88 -10l-2 -20l-107 2l-99 -2zM448 275l-79 221l-33 117l-119 -338h231z" />
    <glyph glyph-name="Atilde.sc" horiz-adv-x="594" 
d="M197 635l52 14l143 -46l27 47h13l-21 -81l-52 -13l-142 47l-27 -48h-13zM171 173l-59 -145l69 -8l-2 -21l-85 2l-76 -2l-2 22l60 6l194 466l50 23l199 -489l60 -6l-2 -22l-103 2l-112 -2l-1 21l67 8l-58 145h-199zM286 395l-13 46l-93 -242h181z" />
    <glyph glyph-name="B.sc" horiz-adv-x="517" 
d="M149 1l-114 -2l-2 22l68 7v452l-68 6l2 21l114 -1l147 1q39 0 68 -9.5t48.5 -25t29 -36t9.5 -41.5q0 -25 -11.5 -46.5t-32 -37.5t-47.5 -26.5t-57 -14.5q91 -2 135 -37.5t44 -86.5q0 -35 -15.5 -60.5t-43 -43.5t-66.5 -28.5t-86 -14.5zM183 480v-201h73q52 0 81 32t29 79
q0 42 -25.5 68t-74.5 27zM255 22q40 0 67.5 10.5t44 27.5t23.5 38.5t7 44.5q0 53 -35.5 83t-92.5 30h-86v-229z" />
    <glyph glyph-name="C.sc" horiz-adv-x="564" 
d="M524 164l-11 -128q-36 -16 -87 -28.5t-105 -19.5q-55 0 -106 16.5t-90 48.5t-62.5 79.5t-23.5 109.5q0 63 21.5 111t60.5 82.5t93.5 55t120.5 28.5q60 0 107 -13t77 -30v-125h-25l-38 90q-19 20 -50 34.5t-79 14.5q-42 0 -78.5 -14.5t-62.5 -43.5t-41 -72t-15 -100
q0 -49 13 -93t39.5 -77t66.5 -52.5t93 -19.5q35 0 63.5 14t46.5 32l47 100h25z" />
    <glyph glyph-name="Cacute.002" horiz-adv-x="687" 
d="M370 747l56 103h89l-113 -103h-32zM644 201l-14 -145q-48 -23 -110.5 -44t-128.5 -29q-68 0 -131.5 23.5t-112 68.5t-77.5 112t-29 154q0 85 26.5 151t74.5 113.5t114.5 75t146.5 36.5q37 0 71.5 -6t64.5 -16t55 -21.5t44 -23.5v-141h-29l-45 112q-24 24 -65 45t-103 21
q-54 0 -100.5 -20.5t-80.5 -62t-53.5 -103t-19.5 -142.5q0 -64 17 -125.5t51 -109.5t85.5 -77.5t121.5 -29.5q45 0 82 19t58 39l57 126h30z" />
    <glyph glyph-name="Cacute.sc" horiz-adv-x="564" 
d="M524 164l-11 -128q-36 -16 -87 -28.5t-105 -19.5q-55 0 -106 16.5t-90 48.5t-62.5 79.5t-23.5 109.5q0 63 21.5 111t60.5 82.5t93.5 55t120.5 28.5q60 0 107 -13t77 -30v-125h-25l-38 90q-19 20 -50 34.5t-79 14.5q-42 0 -78.5 -14.5t-62.5 -43.5t-41 -72t-15 -100
q0 -49 13 -93t39.5 -77t66.5 -52.5t93 -19.5q35 0 63.5 14t46.5 32l47 100h25zM306 557l46 97h80l-99 -97h-27z" />
    <glyph glyph-name="Ccaron.002" horiz-adv-x="687" 
d="M385 798l5 -5l6 5l102 62h30l-114 -111h-47l-114 111h30zM644 201l-14 -145q-48 -23 -110.5 -44t-128.5 -29q-68 0 -131.5 23.5t-112 68.5t-77.5 112t-29 154q0 85 26.5 151t74.5 113.5t114.5 75t146.5 36.5q37 0 71.5 -6t64.5 -16t55 -21.5t44 -23.5v-141h-29l-45 112
q-24 24 -65 45t-103 21q-54 0 -100.5 -20.5t-80.5 -62t-53.5 -103t-19.5 -142.5q0 -64 17 -125.5t51 -109.5t85.5 -77.5t121.5 -29.5q45 0 82 19t58 39l57 126h30z" />
    <glyph glyph-name="Ccaron.sc" horiz-adv-x="564" 
d="M524 164l-11 -128q-36 -16 -87 -28.5t-105 -19.5q-55 0 -106 16.5t-90 48.5t-62.5 79.5t-23.5 109.5q0 63 21.5 111t60.5 82.5t93.5 55t120.5 28.5q60 0 107 -13t77 -30v-125h-25l-38 90q-19 20 -50 34.5t-79 14.5q-42 0 -78.5 -14.5t-62.5 -43.5t-41 -72t-15 -100
q0 -49 13 -93t39.5 -77t66.5 -52.5t93 -19.5q35 0 63.5 14t46.5 32l47 100h25zM234 654l81 -49l5 -7l6 7l82 49h27l-94 -99h-41l-93 99h27z" />
    <glyph glyph-name="Ccedilla.001" horiz-adv-x="687" 
d="M372 -16q-65 3 -125 27.5t-106 70t-73 110.5t-27 149q0 85 26.5 151t74.5 113.5t114.5 75t146.5 36.5q37 0 71.5 -6t64.5 -16t55 -21.5t44 -23.5v-141h-29l-45 112q-24 24 -65 45t-103 21q-54 0 -100.5 -20.5t-80.5 -62t-53.5 -103t-19.5 -142.5q0 -64 17 -125.5
t51 -109.5t85.5 -77.5t121.5 -29.5q45 0 82 19t58 39l57 126h30l-14 -145q-48 -23 -110 -44t-127 -29l-17 -19q12 -2 24.5 -6t23 -10.5t17 -15.5t6.5 -22q0 -14 -7.5 -25t-19 -19t-25.5 -14t-26 -10l-60 -18h-43l24 32h80q14 7 21.5 17t7.5 21q0 9 -7 16t-18 11.5t-24.5 7
t-27.5 2.5z" />
    <glyph glyph-name="Ccedilla.sc" horiz-adv-x="564" 
d="M233 -145h61q11 8 17.5 19.5t6.5 23.5q0 23 -18.5 32t-39.5 10l38 49q-52 3 -99 21t-82.5 50t-56.5 77.5t-21 104.5q0 63 21.5 111t60.5 82.5t93.5 55t120.5 28.5q60 0 107 -13t77 -30v-125h-25l-38 90q-19 20 -50 34.5t-79 14.5q-42 0 -78.5 -14.5t-62.5 -43.5t-41 -72
t-15 -100q0 -49 13 -93t39.5 -77t66.5 -52.5t93 -19.5q35 0 63.5 14t46.5 32l47 100h25l-11 -128q-35 -15 -83 -27.5t-98 -19.5q-3 0 -8.5 -0.5t-8.5 -0.5l-17 -22q26 -2 46 -15.5t20 -36.5q0 -16 -7 -27.5t-17.5 -20.5t-23 -15t-23.5 -10l-49 -18h-33z" />
    <glyph glyph-name="Ccircumflex.002" horiz-adv-x="687" 
d="M260 744l114 111h48l114 -111h-31l-101 62l-6 5l-6 -5l-101 -62h-31zM644 201l-14 -145q-48 -23 -110.5 -44t-128.5 -29q-68 0 -131.5 23.5t-112 68.5t-77.5 112t-29 154q0 85 26.5 151t74.5 113.5t114.5 75t146.5 36.5q37 0 71.5 -6t64.5 -16t55 -21.5t44 -23.5v-141
h-29l-45 112q-24 24 -65 45t-103 21q-54 0 -100.5 -20.5t-80.5 -62t-53.5 -103t-19.5 -142.5q0 -64 17 -125.5t51 -109.5t85.5 -77.5t121.5 -29.5q45 0 82 19t58 39l57 126h30z" />
    <glyph glyph-name="Ccircumflex.sc" horiz-adv-x="564" 
d="M524 164l-11 -128q-36 -16 -87 -28.5t-105 -19.5q-55 0 -106 16.5t-90 48.5t-62.5 79.5t-23.5 109.5q0 63 21.5 111t60.5 82.5t93.5 55t120.5 28.5q60 0 107 -13t77 -30v-125h-25l-38 90q-19 20 -50 34.5t-79 14.5q-42 0 -78.5 -14.5t-62.5 -43.5t-41 -72t-15 -100
q0 -49 13 -93t39.5 -77t66.5 -52.5t93 -19.5q35 0 63.5 14t46.5 32l47 100h25zM214 557l92 99h41l94 -99h-27l-81 48l-7 8l-4 -8l-82 -48h-26z" />
    <glyph glyph-name="Cdotaccent.002" horiz-adv-x="687" 
d="M353 850l61 4l22 -4l4 -46l-9 -41l-61 -5l-21 5l-5 48zM644 201l-14 -145q-48 -23 -110.5 -44t-128.5 -29q-68 0 -131.5 23.5t-112 68.5t-77.5 112t-29 154q0 85 26.5 151t74.5 113.5t114.5 75t146.5 36.5q37 0 71.5 -6t64.5 -16t55 -21.5t44 -23.5v-141h-29l-45 112
q-24 24 -65 45t-103 21q-54 0 -100.5 -20.5t-80.5 -62t-53.5 -103t-19.5 -142.5q0 -64 17 -125.5t51 -109.5t85.5 -77.5t121.5 -29.5q45 0 82 19t58 39l57 126h30z" />
    <glyph glyph-name="Cdotaccent.sc" horiz-adv-x="564" 
d="M524 164l-11 -128q-36 -16 -87 -28.5t-105 -19.5q-55 0 -106 16.5t-90 48.5t-62.5 79.5t-23.5 109.5q0 63 21.5 111t60.5 82.5t93.5 55t120.5 28.5q60 0 107 -13t77 -30v-125h-25l-38 90q-19 20 -50 34.5t-79 14.5q-42 0 -78.5 -14.5t-62.5 -43.5t-41 -72t-15 -100
q0 -49 13 -93t39.5 -77t66.5 -52.5t93 -19.5q35 0 63.5 14t46.5 32l47 100h25zM289 647l55 4l20 -5l4 -42l-8 -35l-55 -5l-20 5l-3 42z" />
    <glyph glyph-name="D.sc" horiz-adv-x="598" 
d="M35 507q24 -1 45 -1h68h85q28 0 61 1q61 0 110.5 -16t84 -46.5t53 -76t18.5 -103.5q0 -55 -17 -101.5t-50.5 -81.5t-84.5 -56.5t-118 -26.5l-143 2l-112 -2l-2 22l71 7v452l-71 6zM186 480v-452l98 -5q41 -1 75.5 16.5t59 49.5t38 75.5t13.5 94.5q0 49 -12 91t-36.5 72
t-63 46.5t-90.5 15.5z" />
    <glyph glyph-name="Dcaron.002" horiz-adv-x="733" 
d="M338 798l5 -5l6 5l101 62h31l-114 -111h-48l-113 111h30zM30 19l93 10v643l-93 9l2 20l148 -2l174 2q76 0 137.5 -22t104.5 -65t66.5 -105t23.5 -143q0 -80 -21.5 -145t-64 -112.5t-105.5 -75.5t-147 -34l-168 2l-148 -2zM344 25q54 0 98.5 23.5t76.5 67t49.5 105
t17.5 137.5q0 68 -15.5 126t-48 101t-82 67.5t-117.5 24.5l-110 -6v-638z" />
    <glyph glyph-name="Dcaron.sc" horiz-adv-x="598" 
d="M182 480v-452l98 -5q41 -1 75.5 16.5t59 49.5t38 75.5t13.5 94.5q0 49 -12 91t-36.5 72t-63 46.5t-90.5 15.5zM145 506l145 1q61 0 110.5 -16t84 -46.5t53 -76t18.5 -103.5q0 -55 -17 -101.5t-50.5 -81.5t-84.5 -56.5t-118 -26.5l-142 2l-113 -2l-2 22l71 7v452l-71 6
l2 21zM398 654l-93 -99h-41l-93 99h26l82 -49l5 -7l6 7l82 49h26z" />
    <glyph glyph-name="Dcroat.sc" horiz-adv-x="598" 
d="M100 275v205l-71 6l2 21l113 -1l146 1q61 0 110.5 -16t84 -46.5t53 -76t18.5 -103.5q0 -55 -17 -101.5t-50.5 -81.5t-84.5 -56.5t-118 -26.5l-144 2l-111 -2l-2 22l71 7v222h-63v25h63zM182 480v-205h105v-25h-105v-222l98 -5q41 -1 75.5 16.5t59 49.5t38 75.5t13.5 94.5
q0 49 -12 91t-36.5 72t-63 46.5t-90.5 15.5z" />
    <glyph glyph-name="E.sc" horiz-adv-x="508" 
d="M461 507l4 -136h-16l-49 109l-217 1v-202l121 1l33 82h16l-4 -95l4 -97h-16l-33 82l-121 1v-227l223 1l53 112h18l-14 -140l-322 2l-106 -2l-2 22l68 7v452l-68 6l2 21l106 -1z" />
    <glyph glyph-name="Eacute.002" horiz-adv-x="613" 
d="M297 747l55 103h90l-113 -103h-32zM30 19l89 10v643l-89 9l2 20l138 -2l393 2l4 -178h-18l-60 149l-280 1v-294l159 2l41 111h19l-5 -122l5 -128h-19l-41 110l-159 2v-327l289 2l66 153h20l-18 -183l-396 2l-138 -2z" />
    <glyph glyph-name="Eacute.sc" horiz-adv-x="508" 
d="M253 557l46 97h80l-99 -97h-27zM461 507l4 -136h-16l-49 109l-217 1v-202l121 1l33 82h16l-4 -95l4 -97h-16l-33 82l-121 1v-227l223 1l53 112h18l-14 -140l-321 2l-107 -2l-2 22l68 7v452l-68 6l2 21l108 -1z" />
    <glyph glyph-name="Ebreve.002" horiz-adv-x="613" 
d="M332 788q23 0 41 7t32 17t24 22t17 21l13 -10q-5 -10 -12.5 -23t-20.5 -27.5t-32.5 -29t-48.5 -26.5q-30 0 -52.5 10.5t-39.5 26t-29 34t-20 34.5l15 11q6 -10 16 -21.5t24 -21.5t32 -17t41 -7zM30 19l89 10v643l-89 9l2 20l138 -2l393 2l4 -178h-18l-60 149l-280 1v-294
l159 2l41 111h19l-5 -122l5 -128h-19l-41 110l-159 2v-327l289 2l66 153h20l-18 -183l-396 2l-138 -2z" />
    <glyph glyph-name="Ebreve.sc" horiz-adv-x="508" 
d="M275 596q18 0 33 5t26.5 12.5t19.5 15.5t14 15l12 -11q-5 -11 -11.5 -22t-17 -21.5t-26.5 -20.5t-40 -20q-24 0 -43 7.5t-33 19.5t-24 27t-17 29l13 12q6 -7 14 -15t19.5 -15.5t26.5 -12.5t34 -5zM461 507l4 -136h-16l-49 109l-217 1v-202l121 1l33 82h16l-4 -95l4 -97
h-16l-33 82l-121 1v-227l223 1l53 112h18l-14 -140l-321 2l-107 -2l-2 22l68 7v452l-68 6l2 21l107 -1z" />
    <glyph glyph-name="Ecaron.002" horiz-adv-x="613" 
d="M330 798l6 -5l6 5l101 62h31l-114 -111h-48l-114 111h31zM30 19l89 10v643l-89 9l2 20l138 -2l393 2l4 -178h-18l-60 149l-280 1v-294l159 2l41 111h19l-5 -122l5 -128h-19l-41 110l-159 2v-327l289 2l66 153h20l-18 -183l-396 2l-138 -2z" />
    <glyph glyph-name="Ecaron.sc" horiz-adv-x="508" 
d="M193 654l82 -49l5 -7l5 7l82 49h27l-94 -99h-41l-93 99h27zM461 507l4 -136h-16l-49 109l-217 1v-202l121 1l33 82h16l-4 -95l4 -97h-16l-33 82l-121 1v-227l223 1l53 112h18l-14 -140l-322 2l-106 -2l-2 22l68 7v452l-68 6l2 21l107 -1z" />
    <glyph glyph-name="Ecircumflex.002" horiz-adv-x="613" 
d="M201 744l114 111h47l114 -111h-30l-102 62l-6 5l-5 -5l-102 -62h-30zM30 19l89 10v643l-89 9l2 20l138 -2l393 2l4 -178h-18l-60 149l-280 1v-294l159 2l41 111h19l-5 -122l5 -128h-19l-41 110l-159 2v-327l289 2l66 153h20l-18 -183l-396 2l-138 -2z" />
    <glyph glyph-name="Ecircumflex.sc" horiz-adv-x="508" 
d="M169 557l93 99h41l93 -99h-26l-82 48l-7 8l-4 -8l-82 -48h-26zM461 507l4 -136h-16l-49 109l-217 1v-202l121 1l33 82h16l-4 -95l4 -97h-16l-33 82l-121 1v-227l223 1l53 112h18l-14 -140l-321 2l-107 -2l-2 22l68 7v452l-68 6l2 21l107 -1z" />
    <glyph glyph-name="Edieresis.002" horiz-adv-x="613" 
d="M250 852l22 -4l5 -42l-9 -38l-54 -4l-22 4l-4 44l8 36zM463 852l23 -4l4 -42l-8 -38l-54 -4l-22 4l-5 44l9 36zM30 19l89 10v643l-89 9l2 20l138 -2l393 2l4 -178h-18l-60 149l-280 1v-294l159 2l41 111h19l-5 -122l5 -128h-19l-41 110l-159 2v-327l289 2l66 153h20
l-18 -183l-396 2l-138 -2z" />
    <glyph glyph-name="Edieresis.sc" horiz-adv-x="508" 
d="M211 640l19 -3l5 -38l-8 -33l-46 -4l-19 4l-3 39l7 32zM386 640l18 -3l4 -38l-7 -33l-45 -4l-19 4l-4 39l6 32zM461 507l4 -136h-16l-49 109l-217 1v-202l121 1l33 82h16l-4 -95l4 -97h-16l-33 82l-121 1v-227l223 1l53 112h18l-14 -140l-321 2l-107 -2l-2 22l68 7v452
l-68 6l2 21l108 -1z" />
    <glyph glyph-name="Edotaccent.002" horiz-adv-x="613" 
d="M296 850l62 4l21 -4l5 -46l-9 -41l-62 -5l-20 5l-5 48zM30 19l89 10v643l-89 9l2 20l138 -2l393 2l4 -178h-18l-60 149l-280 1v-294l159 2l41 111h19l-5 -122l5 -128h-19l-41 110l-159 2v-327l289 2l66 153h20l-18 -183l-396 2l-138 -2z" />
    <glyph glyph-name="Edotaccent.sc" horiz-adv-x="508" 
d="M245 643l55 4l20 -5l4 -41l-8 -37l-55 -4l-19 4l-4 43zM461 507l4 -136h-16l-49 109l-217 1v-202l121 1l33 82h16l-4 -95l4 -97h-16l-33 82l-121 1v-227l223 1l53 112h18l-14 -140l-322 2l-106 -2l-2 22l68 7v452l-68 6l2 21l108 -1z" />
    <glyph glyph-name="Egrave.002" horiz-adv-x="613" 
d="M336 747l-113 103h89l55 -103h-31zM30 19l89 10v643l-89 9l2 20l138 -2l393 2l4 -178h-18l-60 149l-280 1v-294l159 2l41 111h19l-5 -122l5 -128h-19l-41 110l-159 2v-327l289 2l66 153h20l-18 -183l-396 2l-138 -2z" />
    <glyph glyph-name="Egrave.sc" horiz-adv-x="508" 
d="M270 557l-100 97h81l46 -97h-27zM461 507l4 -136h-16l-49 109l-217 1v-202l121 1l33 82h16l-4 -95l4 -97h-16l-33 82l-121 1v-227l223 1l53 112h18l-14 -140l-321 2l-107 -2l-2 22l68 7v452l-68 6l2 21l107 -1z" />
    <glyph glyph-name="Emacron.002" horiz-adv-x="613" 
d="M197 825h280v-38h-280v38zM30 19l89 10v643l-89 9l2 20l138 -2l393 2l4 -178h-18l-60 149l-280 1v-294l159 2l41 111h19l-5 -122l5 -128h-19l-41 110l-159 2v-327l289 2l66 153h20l-18 -183l-396 2l-138 -2z" />
    <glyph glyph-name="Emacron.sc" horiz-adv-x="508" 
d="M164 615h224v-40h-224v40zM461 507l4 -136h-16l-49 109l-217 1v-202l121 1l33 82h16l-4 -95l4 -97h-16l-33 82l-121 1v-227l223 1l53 112h18l-14 -140l-321 2l-107 -2l-2 22l68 7v452l-68 6l2 21l108 -1z" />
    <glyph glyph-name="Eng.001" horiz-adv-x="718" 
d="M156 29l86 -10l-3 -20l-100 2l-107 -2l-2 20l89 10v638l-87 14l2 20l94 -2l83 2l349 -530l22 -47v548l-88 9l3 20l100 -2l108 2l3 -20l-90 -9v-676l-90 -172h-122v50l73 2l70 90l53 30h-35l-390 600l-21 55v-622z" />
    <glyph glyph-name="Eng.sc" horiz-adv-x="600" 
d="M460 -3l-308 416l-20 53v-438l68 -7l-3 -22l-78 2l-84 -2l-2 22l68 7v450l-66 8l2 21l72 -1l74 1l266 -342l24 -50v365l-67 6l1 21l79 -1l84 1l2 -21l-68 -6v-483l-92 -167h-89v68h63l62 78l35 21h-23z" />
    <glyph glyph-name="Eogonek.001" horiz-adv-x="614" 
d="M530 -158q0 -3 1.5 -10.5t3.5 -8.5q-41 0 -68 5.5t-43 16t-22 26.5t-6 37q-7 0 -10.5 9t-3.5 13l104 70l-319 1l-135 -2l-2 20l89 10v643l-89 9l2 20l136 -2l395 2l4 -178h-18l-60 149l-280 1v-294l159 2l41 111h19l-5 -122l5 -128h-19l-41 110l-159 2v-327l289 2l66 153
h20l-18 -183l-67 1l-52 -80l-2 -14q0 -35 22.5 -49.5t62.5 -14.5z" />
    <glyph glyph-name="Eogonek.sc" horiz-adv-x="508" 
d="M461 507l4 -136h-16l-49 109l-217 1v-202l121 1l33 82h16l-4 -95l4 -97h-16l-33 82l-121 1v-227l223 1l53 112h18l-14 -140l-51 1l-41 -82v-26q0 -23 22.5 -37t60.5 -14v-18q-76 0 -107.5 18.5t-31.5 54.5v39l75 65l-249 1l-106 -2l-2 22l68 7v452l-68 6l2 21l107 -1z
" />
    <glyph glyph-name="Eth.sc" horiz-adv-x="598" 
d="M101 275v205l-72 6l2 21q23 -1 44 -1h66h87q29 0 62 1q61 0 110.5 -16t84 -46.5t53 -76t18.5 -103.5q0 -55 -17 -101.5t-50.5 -81.5t-84.5 -56.5t-118 -26.5l-142 2l-113 -2l-2 22l72 7v225h-64v22h64zM182 480v-205h105v-22h-105v-225l98 -5q42 -1 76 16.5t58.5 49.5
t38 75.5t13.5 94.5q0 49 -12 91t-36.5 72t-63 46.5t-90.5 15.5z" />
    <glyph glyph-name="Euro.sc" horiz-adv-x="559" 
d="M190 195q7 -33 21 -61t35.5 -48.5t51.5 -32t69 -11.5q45 0 78 13.5t55 25.5l10 -21q-25 -17 -68.5 -38t-94.5 -33q-48 0 -90 12.5t-74.5 38t-54.5 64t-29 91.5h-49v29h47q-1 5 -1 11.5v11.5v18t2 18h-48v29h52q17 88 81.5 139t166.5 68q59 0 99.5 -15.5t63.5 -33.5v-118
h-23l-38 95q-17 18 -42 29.5t-68 11.5q-28 0 -54 -11t-47 -33t-36 -55t-19 -77h245l-15 -29h-233v-15q0 -23 3 -44h196l-16 -29h-176z" />
    <glyph glyph-name="Euro.tlf" 
d="M176 273q8 -48 26 -89t46.5 -71.5t67.5 -48t90 -17.5q55 0 96.5 19.5t67.5 38.5l13 -24q-15 -12 -36.5 -25.5t-48 -27t-56.5 -25t-62 -18.5q-60 0 -112 18.5t-92 54.5t-66.5 90t-35.5 125h-64v32h61q-1 9 -1 17v18v28t2 28h-62v31h66q21 126 101.5 197t205.5 93
q75 0 126 -21t78 -43v-151h-26l-46 122q-21 26 -55 45.5t-89 19.5q-36 0 -69.5 -17t-60.5 -50.5t-46 -82.5t-25 -112h318l-17 -31h-304v-26q0 -34 3 -65h258l-17 -32h-235z" />
    <glyph glyph-name="Euro.tlf.sc" horiz-adv-x="621" 
d="M222 195q7 -33 21 -61t36 -48.5t51.5 -32t67.5 -11.5q45 0 78.5 13.5t55.5 25.5l11 -21q-25 -17 -69 -38t-95 -33q-48 0 -90 12.5t-74.5 38t-54 64t-28.5 91.5h-49v29h46q-1 5 -1 11.5v11.5v18t2 18h-47v29h51q17 88 81.5 139t166.5 68q60 0 100 -15.5t63 -33.5v-118h-23
l-37 95q-17 18 -42.5 29.5t-67.5 11.5q-28 0 -54.5 -11t-47.5 -33t-35.5 -55t-19.5 -77h245l-15 -29h-232v-15v-22t2 -22h196l-15 -29h-177z" />
    <glyph glyph-name="F.sc" horiz-adv-x="485" 
d="M35 -1l-2 22l68 7v452l-68 6l2 21l108 -1l318 1l4 -140h-17l-50 113l-215 1v-214l121 2l33 86h16l-4 -99l4 -100h-16l-33 85l-121 2v-215l81 -7l-1 -22l-120 2z" />
    <glyph glyph-name="G.sc" horiz-adv-x="604" 
d="M521 37q-15 -8 -37.5 -15.5t-50 -14t-58 -11.5t-61.5 -8q-56 0 -105.5 16.5t-87.5 49t-60 79.5t-22 108q0 63 21 111.5t59 83t92.5 55t121.5 28.5q61 0 110 -14.5t75 -29.5v-123h-23l-38 89q-17 20 -49.5 34.5t-80.5 14.5q-45 0 -81.5 -16t-62 -46t-39.5 -73t-14 -96
q0 -49 13.5 -93t39 -77t63.5 -52.5t86 -19.5q38 0 66 10.5t42 22.5v154l-67 8l2 23l105 -2l90 2l2 -23l-51 -8v-167v0z" />
    <glyph glyph-name="Gbreve.002" horiz-adv-x="731" 
d="M398 788q23 0 41 7t32 17t24 22t17 21l13 -10q-5 -10 -12.5 -23t-20.5 -27.5t-32.5 -29t-48.5 -26.5q-30 0 -52.5 10.5t-39.5 26t-29 34t-20 34.5l15 11q6 -10 16 -21.5t24 -21.5t32 -17t41 -7zM385 -17q-69 0 -131.5 23.5t-110 69t-75 112.5t-27.5 154q0 84 25.5 149.5
t72.5 112.5t113.5 75.5t148.5 37.5q39 0 74.5 -6.5t66.5 -16.5t55 -22t39 -22v-141h-26l-45 110q-12 12 -28 24t-37.5 21.5t-48 16t-58.5 6.5q-58 0 -104.5 -23.5t-79 -67t-50 -105t-17.5 -136.5q0 -65 17.5 -126.5t51 -109t82.5 -76t112 -28.5q51 0 89 20.5t57 41.5v213
l-86 11l2 19l124 -2l112 2l2 -19l-64 -11v-236q-21 -9 -51 -20t-64.5 -21.5t-70.5 -18.5t-70 -11z" />
    <glyph glyph-name="Gbreve.sc" horiz-adv-x="604" 
d="M521 37q-15 -8 -37.5 -15.5t-50 -14t-58 -11.5t-61.5 -8q-56 0 -105.5 16.5t-87.5 49t-60 79.5t-22 108q0 63 21 111.5t59 83t92.5 55t121.5 28.5q61 0 110 -14.5t75 -29.5v-123h-23l-38 89q-17 20 -49.5 34.5t-80.5 14.5q-45 0 -81.5 -16t-62 -46t-39.5 -73t-14 -96
q0 -49 13.5 -93t39 -77t63.5 -52.5t86 -19.5q38 0 66 10.5t42 22.5v154l-67 8l2 23l105 -2l90 2l2 -23l-51 -8v-167zM324 596q19 0 33.5 5t26 12.5t20 15.5t14.5 15l12 -11q-4 -12 -10 -22.5t-16.5 -21t-27 -20.5t-41.5 -20q-24 0 -43 7.5t-33 19.5t-24 27t-17 29l14 12
q5 -7 13 -15t19 -15.5t26 -12.5t34 -5z" />
    <glyph glyph-name="Gcircumflex.002" horiz-adv-x="731" 
d="M263 744l114 111h47l114 -111h-30l-102 62l-6 5l-5 -5l-102 -62h-30zM385 -17q-69 0 -131.5 23.5t-110 69t-75 112.5t-27.5 154q0 84 25.5 149.5t72.5 112.5t113.5 75.5t148.5 37.5q39 0 74.5 -6.5t66.5 -16.5t55 -22t39 -22v-141h-26l-45 110q-12 12 -28 24t-37.5 21.5
t-48 16t-58.5 6.5q-58 0 -104.5 -23.5t-79 -67t-50 -105t-17.5 -136.5q0 -65 17.5 -126.5t51 -109t82.5 -76t112 -28.5q51 0 89 20.5t57 41.5v213l-86 11l2 19l124 -2l112 2l2 -19l-64 -11v-236q-21 -9 -51 -20t-64.5 -21.5t-70.5 -18.5t-70 -11z" />
    <glyph glyph-name="Gcircumflex.sc" horiz-adv-x="604" 
d="M440 204l-67 8l2 23l105 -2l90 2l2 -23l-51 -8v-167q-15 -8 -37.5 -15.5t-50 -14t-58 -11.5t-61.5 -8q-56 0 -105.5 16.5t-87.5 49t-60 79.5t-22 108q0 63 21 111.5t59 83t92.5 55t121.5 28.5q61 0 110 -14.5t75 -29.5v-123h-23l-38 89q-17 20 -49.5 34.5t-80.5 14.5
q-45 0 -81.5 -16t-62 -46t-39.5 -73t-14 -96q0 -49 13.5 -93t39 -77t63.5 -52.5t86 -19.5q38 0 66 10.5t42 22.5v154zM213 557l94 99h40l94 -99h-27l-81 48l-7 8l-4 -8l-82 -48h-27z" />
    <glyph glyph-name="Gcommaaccent.001" horiz-adv-x="731" 
d="M380 -115l-37 23v41h86v-64l-69 -66l-17 8zM385 -17q-69 0 -131.5 23.5t-110 69t-75 112.5t-27.5 154q0 84 25.5 149.5t72.5 112.5t113.5 75.5t148.5 37.5q39 0 74.5 -6.5t66.5 -16.5t55 -22t39 -22v-141h-26l-45 110q-12 12 -28 24t-37.5 21.5t-48 16t-58.5 6.5
q-58 0 -104.5 -23.5t-79 -67t-50 -105t-17.5 -136.5q0 -65 17.5 -126.5t51 -109t82.5 -76t112 -28.5q51 0 89 20.5t57 41.5v213l-86 11l2 19l124 -2l112 2l2 -19l-64 -11v-236q-21 -9 -51 -20t-64.5 -21.5t-70.5 -18.5t-70 -11z" />
    <glyph glyph-name="Gcommaaccent.sc" horiz-adv-x="604" 
d="M521 37q-15 -8 -37.5 -15.5t-50 -14t-58 -11.5t-61.5 -8q-56 0 -105.5 16.5t-87.5 49t-60 79.5t-22 108q0 63 21 111.5t59 83t92.5 55t121.5 28.5q61 0 110 -14.5t75 -29.5v-123h-23l-38 89q-17 20 -49.5 34.5t-80.5 14.5q-45 0 -81.5 -16t-62 -46t-39.5 -73t-14 -96
q0 -49 13.5 -93t39 -77t63.5 -52.5t86 -19.5q38 0 66 10.5t42 22.5v154l-67 8l2 23l104 -2l91 2l2 -23l-51 -8v-167zM307 -92l-26 24v32h75v-58l-61 -82l-18 4z" />
    <glyph glyph-name="Gdotaccent.002" horiz-adv-x="731" 
d="M367 850l61 4l22 -4l4 -46l-8 -41l-62 -5l-21 5l-5 48zM385 -17q-69 0 -131.5 23.5t-110 69t-75 112.5t-27.5 154q0 84 25.5 149.5t72.5 112.5t113.5 75.5t148.5 37.5q39 0 74.5 -6.5t66.5 -16.5t55 -22t39 -22v-141h-26l-45 110q-12 12 -28 24t-37.5 21.5t-48 16
t-58.5 6.5q-58 0 -104.5 -23.5t-79 -67t-50 -105t-17.5 -136.5q0 -65 17.5 -126.5t51 -109t82.5 -76t112 -28.5q51 0 89 20.5t57 41.5v213l-86 11l2 19l124 -2l112 2l2 -19l-64 -11v-236q-21 -9 -51 -20t-64.5 -21.5t-70.5 -18.5t-70 -11z" />
    <glyph glyph-name="Gdotaccent.sc" horiz-adv-x="604" 
d="M521 37q-15 -8 -37.5 -15.5t-50 -14t-58 -11.5t-61.5 -8q-56 0 -105.5 16.5t-87.5 49t-60 79.5t-22 108q0 63 21 111.5t59 83t92.5 55t121.5 28.5q61 0 110 -14.5t75 -29.5v-123h-23l-38 89q-17 20 -49.5 34.5t-80.5 14.5q-45 0 -81.5 -16t-62 -46t-39.5 -73t-14 -96
q0 -49 13.5 -93t39 -77t63.5 -52.5t86 -19.5q38 0 66 10.5t42 22.5v154l-67 8l2 23l105 -2l90 2l2 -23l-51 -8v-167zM294 645l55 4l21 -5l3 -41l-8 -37l-54 -4l-20 4l-4 43z" />
    <glyph glyph-name="H.sc" horiz-adv-x="618" 
d="M33 486l2 21l107 -1l105 1l2 -21l-66 -6v-202h255v202l-68 6l2 21l107 -1l104 1l2 -21l-66 -6v-452l66 -7l-2 -22l-104 2l-107 -2l-2 22l68 7v221h-255v-221l66 -7l-2 -22l-105 2l-107 -2l-2 22l68 7v452z" />
    <glyph glyph-name="Hbar.sc" horiz-adv-x="618" 
d="M33 486l2 21l107 -1l105 1l2 -21l-66 -6v-114h255v114l-68 6l2 21l107 -1l104 1l2 -21l-66 -6v-452l66 -7l-2 -22l-104 2l-107 -2l-2 22l68 7v221h-255v-221l66 -7l-2 -22l-105 2l-107 -2l-2 22l68 7v452zM438 278v68h-255v-68h255z" />
    <glyph glyph-name="Hcircumflex.002" horiz-adv-x="749" 
d="M238 744l114 111h47l114 -111h-30l-102 62l-6 5l-5 -5l-102 -62h-30zM30 19l89 10v643l-89 9l2 20l132 -2l129 2l3 -20l-87 -9v-294h334v294l-90 9l3 20l133 -2l128 2l3 -20l-87 -9v-643l87 -10l-3 -20l-128 2l-133 -2l-3 20l90 10v320h-334v-320l87 -10l-3 -20l-129 2
l-132 -2z" />
    <glyph glyph-name="Hcircumflex.sc" horiz-adv-x="618" 
d="M200 557l93 99h41l93 -99h-27l-81 48l-7 8l-4 -8l-82 -48h-26zM33 486l2 21l107 -1l105 1l2 -21l-66 -6v-202h255v202l-68 6l2 21l107 -1l104 1l2 -21l-66 -6v-452l66 -7l-2 -22l-104 2l-107 -2l-2 22l68 7v221h-255v-221l66 -7l-2 -22l-105 2l-107 -2l-2 22l68 7v452z
" />
    <glyph glyph-name="I.sc" horiz-adv-x="284" 
d="M142 1l-107 -2l-2 22l69 7v452l-69 6l2 21l107 -1l107 1l2 -21l-68 -6v-452l68 -7l-2 -22z" />
    <glyph glyph-name="IJ.sc" horiz-adv-x="493" 
d="M397 97q0 -88 -44 -138l-78 -85h-59v82h86l5 16q5 16 7 38t2 62v408l-54 6l2 21l93 -1l104 1l2 -21l-66 -6v-383zM141 1l-106 -2l-2 22l69 7v452l-69 6l2 21l108 -1l85 1l2 -21l-47 -6v-452l66 -7l-2 -22z" />
    <glyph glyph-name="Iacute.002" horiz-adv-x="331" 
d="M134 747l55 103h90l-114 -103h-31zM164 1l-132 -2l-2 21l89 9v643l-89 9l2 20l132 -2l132 2l2 -20l-89 -9v-643l89 -9l-2 -21z" />
    <glyph glyph-name="Iacute.sc" horiz-adv-x="284" 
d="M128 557l46 97h81l-99 -97h-28zM142 1l-107 -2l-2 22l69 7v452l-69 6l2 21l107 -1l107 1l2 -21l-68 -6v-452l68 -7l-2 -22z" />
    <glyph glyph-name="Ibreve.002" horiz-adv-x="331" 
d="M163 788q23 0 41 7t32 17t24 22t17 21l14 -10q-6 -10 -13.5 -23t-20.5 -27.5t-32.5 -29t-48.5 -26.5q-30 0 -52.5 10.5t-39.5 26t-29 34t-20 34.5l15 11q6 -10 16 -21.5t24 -21.5t32 -17t41 -7zM164 1l-132 -2l-2 21l89 9v643l-89 9l2 20l132 -2l132 2l2 -20l-89 -9v-643
l89 -9l-2 -21z" />
    <glyph glyph-name="Ibreve.sc" horiz-adv-x="284" 
d="M143 597q37 0 59.5 17t33.5 30l12 -11q-9 -23 -27.5 -43.5t-66.5 -40.5q-25 0 -44 7.5t-33 19.5t-24 27t-17 29l13 12q6 -7 14 -15t19.5 -15t26.5 -12t34 -5zM142 1l-107 -2l-2 22l69 7v452l-69 6l2 21l107 -1l107 1l2 -21l-68 -6v-452l68 -7l-2 -22z" />
    <glyph glyph-name="Icircumflex.002" horiz-adv-x="331" 
d="M26 744l114 111h47l115 -111h-31l-101 62l-7 5l-5 -5l-102 -62h-30zM164 1l-132 -2l-2 21l89 9v643l-89 9l2 20l132 -2l132 2l2 -20l-89 -9v-643l89 -9l-2 -21z" />
    <glyph glyph-name="Icircumflex.sc" horiz-adv-x="284" 
d="M28 557l94 99h41l93 -99h-27l-81 48l-6 8l-5 -8l-82 -48h-27zM142 1l-107 -2l-2 22l69 7v452l-69 6l2 21l107 -1l107 1l2 -21l-68 -6v-452l68 -7l-2 -22z" />
    <glyph glyph-name="Idieresis.002" horiz-adv-x="331" 
d="M76 852l22 -4l5 -42l-9 -38l-54 -4l-21 4l-5 44l8 36zM294 852l22 -4l4 -42l-8 -38l-54 -4l-22 4l-5 44l9 36zM164 1l-132 -2l-2 21l89 9v643l-89 9l2 20l132 -2l132 2l2 -20l-89 -9v-643l89 -9l-2 -21z" />
    <glyph glyph-name="Idieresis.sc" horiz-adv-x="284" 
d="M77 640l19 -3l4 -38l-8 -33l-45 -4l-19 4l-3 39l6 32zM240 640l18 -3l4 -38l-8 -33l-45 -4l-18 4l-3 39l6 32zM142 1l-107 -2l-2 22l69 7v452l-69 6l2 21l107 -1l107 1l2 -21l-68 -6v-452l68 -7l-2 -22z" />
    <glyph glyph-name="Idotaccent.002" horiz-adv-x="331" 
d="M123 850l62 4l21 -4l5 -46l-9 -41l-62 -5l-20 5l-5 48zM164 1l-132 -2l-2 21l89 9v643l-89 9l2 20l132 -2l132 2l2 -20l-89 -9v-643l89 -9l-2 -21z" />
    <glyph glyph-name="Idotaccent.sc" horiz-adv-x="284" 
d="M107 645l55 4l20 -5l4 -41l-8 -37l-55 -4l-19 4l-5 43zM142 1l-107 -2l-2 22l69 7v452l-69 6l2 21l107 -1l107 1l2 -21l-68 -6v-452l68 -7l-2 -22z" />
    <glyph glyph-name="Igrave.002" horiz-adv-x="331" 
d="M174 747l-114 103h90l55 -103h-31zM164 1l-132 -2l-2 21l89 9v643l-89 9l2 20l132 -2l132 2l2 -20l-89 -9v-643l89 -9l-2 -21z" />
    <glyph glyph-name="Igrave.sc" horiz-adv-x="284" 
d="M146 557l-99 97h80l46 -97h-27zM142 1l-107 -2l-2 22l69 7v452l-69 6l2 21l107 -1l107 1l2 -21l-68 -6v-452l68 -7l-2 -22z" />
    <glyph glyph-name="Imacron.002" horiz-adv-x="331" 
d="M26 825h279v-38h-279v38zM164 1l-132 -2l-2 21l89 9v643l-89 9l2 20l132 -2l132 2l2 -20l-89 -9v-643l89 -9l-2 -21z" />
    <glyph glyph-name="Imacron.sc" horiz-adv-x="284" 
d="M29 615h225v-40h-225v40zM142 1l-107 -2l-2 22l69 7v452l-69 6l2 21l107 -1l107 1l2 -21l-68 -6v-452l68 -7l-2 -22z" />
    <glyph glyph-name="Iogonek.001" horiz-adv-x="328" 
d="M214 -178q-45 0 -74.5 6t-47.5 17.5t-25 28.5t-7 40v18l97 69l-125 -2l-2 21l89 9v643l-89 9l2 20l132 -2l132 2l2 -20l-89 -9v-643l89 -9l-2 -21l-117 2l-57 -83v-11q0 -37 25 -53.5t67 -16.5v-15z" />
    <glyph glyph-name="Iogonek.sc" horiz-adv-x="281" 
d="M156 1l-38 -83v-26q0 -23 22 -37t61 -14v-18q-76 0 -108 18t-32 55v35l73 70l-99 -2l-2 22l69 7v452l-69 6l2 21l107 -1l105 1l2 -21l-66 -6v-452l66 -7l-2 -22z" />
    <glyph glyph-name="Itilde.002" horiz-adv-x="331" 
d="M44 833l69 20l168 -57l35 60h14l-27 -82l-70 -19l-167 57l-35 -61h-14zM165 1l-132 -2l-2 21l89 9v643l-89 9l2 20l132 -2l132 2l2 -20l-89 -9v-643l89 -9l-2 -21z" />
    <glyph glyph-name="Itilde.sc" horiz-adv-x="284" 
d="M40 635l52 14l142 -46l28 47h12l-20 -81l-52 -13l-143 47l-27 -48h-12zM142 1l-107 -2l-2 22l69 7v452l-69 6l2 21l107 -1l107 1l2 -21l-68 -6v-452l68 -7l-2 -22z" />
    <glyph glyph-name="J.sc" horiz-adv-x="292" 
d="M196 94q0 -49 -10.5 -81.5t-33.5 -58.5l-76 -80h-61v77h86l5 16q5 16 7 38t2 62v413l-83 6l2 21l121 -1l105 1l2 -21l-66 -6v-386z" />
    <glyph glyph-name="Jcircumflex.002" horiz-adv-x="327" 
d="M28 744l114 111h47l114 -111h-30l-102 62l-6 5l-5 -5l-102 -62h-30zM217 93q0 -60 -11 -96t-37 -66l-93 -106h-76v81h109l6 21q3 10 5.5 22t3.5 31t1.5 46t0.5 66v580l-106 9l3 20l148 -2l130 2l2 -20l-86 -9v-579z" />
    <glyph glyph-name="Jcircumflex.sc" horiz-adv-x="292" 
d="M190 94q0 -49 -11 -81.5t-34 -58.5l-76 -80h-61v77h86l5 16q5 16 7 38t2 62v413l-83 6l2 21l122 -1l105 1l2 -21l-66 -6v-386zM33 557l93 99h40l94 -99h-27l-82 48l-6 8l-5 -8l-82 -48h-25z" />
    <glyph glyph-name="K.sc" horiz-adv-x="577" 
d="M33 21l68 7v452l-68 6l2 21l107 -1l100 1l2 -21l-61 -6v-212l17 11l240 201l-65 6l2 21l84 -1l74 1l2 -21l-65 -7l-246 -207l41 3l245 -248l46 -6l-2 -22l-74 2l-61 -2l-227 237l-11 20v-228l61 -7l-2 -22l-100 2l-107 -2z" />
    <glyph glyph-name="Kcommaaccent.001" horiz-adv-x="689" 
d="M335 -103l-35 23v41h86v-64l-68 -75l-17 8zM233 386l302 286l-82 9l3 20l102 -2l91 2l3 -20l-80 -11l-311 -298l44 3l314 -348l59 -8l-2 -20l-101 2l-59 -2l-292 333l-15 23v-326l80 -10l-2 -20l-123 2l-132 -2l-2 20l89 10v643l-89 9l2 20l132 -2l123 2l2 -20l-80 -9
v-304z" />
    <glyph glyph-name="Kcommaaccent.sc" horiz-adv-x="577" 
d="M279 -92l-26 24v32h76v-58l-62 -82l-19 4zM33 21l68 7v452l-68 6l2 21l107 -1l100 1l2 -21l-61 -6v-212l20 13l237 199l-65 6l2 21l83 -1l75 1l2 -21l-65 -7l-246 -207l41 3l245 -248l46 -6l-2 -22l-73 2l-62 -2l-226 236l-12 21v-228l61 -7l-2 -22l-100 2l-107 -2z" />
    <glyph glyph-name="L.sc" horiz-adv-x="473" 
d="M142 1l-107 -2l-2 22l68 7v452l-68 6l2 21l107 -1l107 1l1 -21l-67 -6v-453l202 1l55 115h19l-14 -144z" />
    <glyph glyph-name="Lacute.002" horiz-adv-x="570" 
d="M145 747l56 103h89l-113 -103h-32zM168 1l-136 -2l-2 20l89 10v643l-89 9l2 20l134 -2l130 2l2 -20l-89 -9v-644l262 2l65 154h22l-17 -185z" />
    <glyph glyph-name="Lacute.sc" horiz-adv-x="473" 
d="M176 654h81l-99 -97h-27zM141 1l-106 -2l-2 22l68 7v452l-68 6l2 21l107 -1l107 1l1 -21l-67 -6v-453l202 1l55 115h19l-14 -144z" />
    <glyph glyph-name="Lcaron.sc" horiz-adv-x="476" 
d="M359 472l5 38l57 4l23 -4l4 -44l-6 -39l-61 -115l-17 7q2 5 9 20.5t14 33t12.5 32.5t5.5 19l-43 3zM143 1l-108 -2l-2 22l68 7v452l-68 6l2 21l107 -1l107 1l1 -21l-67 -6v-453l202 1l55 115h19l-14 -144z" />
    <glyph glyph-name="Lcommaaccent.001" horiz-adv-x="570" 
d="M300 -106l-34 23v41h86v-64l-70 -75l-16 8zM168 1l-136 -2l-2 20l89 10v643l-89 9l2 20l134 -2l130 2l2 -20l-89 -9v-644l262 2l65 154h22l-17 -185z" />
    <glyph glyph-name="Lcommaaccent.sc" horiz-adv-x="473" 
d="M255 -92l-26 24v32h76v-58l-62 -82l-19 4zM141 1l-106 -2l-2 22l68 7v452l-68 6l2 21l107 -1l107 1l1 -21l-67 -6v-453l202 1l55 115h19l-14 -144z" />
    <glyph glyph-name="Ldot.sc" horiz-adv-x="473" 
d="M324 337l21 -5l3 -42l-8 -37l-53 -5l-21 5l-4 43l7 36zM142 1l-107 -2l-2 22l68 7v452l-68 6l2 21l107 -1l107 1l1 -21l-67 -6v-453l202 1l55 115h19l-14 -144z" />
    <glyph glyph-name="Lslash.sc" horiz-adv-x="473" 
d="M141 1l-106 -2l-2 22l68 7v212l-66 -31v30l66 31v210l-68 6l2 21l107 -1l107 1l1 -21l-67 -6v-172l81 39v-29l-81 -39v-252l202 1l55 115h19l-14 -144z" />
    <glyph glyph-name="M.sc" horiz-adv-x="750" 
d="M562 507l70 -1l84 1l2 -21l-67 -6v-452l65 -7l-2 -22l-98 2l-109 -2l-2 22l65 7v374l5 69l-201 -474h-43l-176 407l-25 69v-445l65 -7l-3 -22l-76 2l-79 -2l-2 22l64 7v451l-66 7l2 21l76 -1l85 1l171 -377l11 -45z" />
    <glyph glyph-name="N.sc" horiz-adv-x="600" 
d="M132 28l68 -7l-3 -22l-78 2l-84 -2l-2 22l68 7v450l-66 8l2 21l75 -1l71 1l267 -343l23 -49v365l-67 6l1 21l79 -1l84 1l2 -21l-68 -6v-483h-44l-308 416l-20 53v-438z" />
    <glyph glyph-name="Nacute.002" horiz-adv-x="718" 
d="M345 747l55 103h90l-113 -103h-32zM179 593l-23 55v-619l88 -10l-3 -20l-99 2l-110 -2l-2 20l89 10v638l-87 14l3 20l95 -2l80 2l350 -531l22 -43v545l-87 9l2 20l99 -2l109 2l3 -20l-90 -9v-676h-50z" />
    <glyph glyph-name="Nacute.sc" horiz-adv-x="600" 
d="M132 28l68 -7l-3 -22l-77 2l-85 -2l-2 22l68 7v450l-66 8l2 21l75 -1l71 1l267 -342l23 -50v365l-67 6l1 21l80 -1l83 1l2 -21l-68 -6v-483h-44l-308 417l-20 52v-438zM286 557l46 97h80l-99 -97h-27z" />
    <glyph glyph-name="Ncaron.002" horiz-adv-x="718" 
d="M364 798l5 -5l6 5l102 62h30l-114 -111h-47l-114 111h30zM179 593l-23 55v-619l88 -10l-3 -20l-99 2l-110 -2l-2 20l89 10v638l-87 14l3 20l95 -2l80 2l350 -531l22 -43v545l-87 9l2 20l99 -2l109 2l3 -20l-90 -9v-676h-50z" />
    <glyph glyph-name="Ncaron.sc" horiz-adv-x="600" 
d="M132 28l68 -7l-3 -22l-77 2l-85 -2l-2 22l68 7v450l-66 8l2 21l75 -1l71 1l267 -342l23 -50v365l-67 6l1 21l80 -1l83 1l2 -21l-68 -6v-483h-44l-308 417l-20 52v-438zM223 654l82 -49l5 -7l6 7l82 49h26l-93 -99h-41l-94 99h27z" />
    <glyph glyph-name="Ncommaaccent.001" horiz-adv-x="718" 
d="M355 -103l-34 23v41h86v-64l-69 -75l-17 8zM179 593l-23 55v-619l88 -10l-3 -20l-99 2l-110 -2l-2 20l89 10v638l-87 14l3 20l95 -2l80 2l350 -531l22 -43v545l-87 9l2 20l99 -2l109 2l3 -20l-90 -9v-676h-50z" />
    <glyph glyph-name="Ncommaaccent.sc" horiz-adv-x="600" 
d="M132 28l68 -7l-3 -22l-77 2l-85 -2l-2 22l68 7v450l-66 8l2 21l75 -1l71 1l267 -342l23 -50v365l-67 6l1 21l80 -1l83 1l2 -21l-68 -6v-483h-44l-308 417l-20 52v-438zM294 -92l-27 24v32h77v-58l-62 -82l-19 4z" />
    <glyph glyph-name="Ntilde.002" horiz-adv-x="718" 
d="M251 833l69 20l168 -57l34 60h15l-27 -82l-70 -19l-167 57l-35 -61h-15zM179 593l-23 55v-619l88 -10l-3 -20l-99 2l-110 -2l-2 20l89 10v638l-87 14l3 20l95 -2l80 2l350 -531l22 -43v545l-87 9l2 20l99 -2l109 2l3 -20l-90 -9v-676h-50z" />
    <glyph glyph-name="Ntilde.sc" horiz-adv-x="600" 
d="M132 28l68 -7l-3 -22l-77 2l-85 -2l-2 22l68 7v450l-66 8l2 21l75 -1l71 1l267 -342l23 -50v365l-67 6l1 21l80 -1l83 1l2 -21l-68 -6v-483h-44l-308 417l-20 52v-438zM212 635l52 14l142 -46l27 47h13l-20 -81l-52 -13l-142 47l-27 -48h-13z" />
    <glyph glyph-name="O.sc" horiz-adv-x="627" 
d="M130 267q0 -48 12.5 -92.5t37 -79t61.5 -55t86 -20.5q42 0 74 17.5t53.5 47.5t32 70t10.5 85q0 47 -12.5 91.5t-37.5 79t-62 55.5t-86 21q-42 0 -74 -17.5t-53 -47.5t-31.5 -70t-10.5 -85zM321 519q60 0 109 -19.5t84 -53.5t54.5 -80.5t19.5 -100.5q0 -119 -68.5 -186
t-213.5 -91q-59 0 -108.5 19.5t-84.5 53.5t-54.5 80.5t-19.5 100.5q0 119 68.5 186t213.5 91z" />
    </font>
</defs>
</svg>
